<svg xmlns="http://www.w3.org/2000/svg" xmlns:xlink="http://www.w3.org/1999/xlink" width="183" height="181.6" viewBox="0 0 183 181.6">
  <defs>
    <clipPath id="clip-path">
      <rect id="Rectangle_460" data-name="Rectangle 460" width="183" height="181.6" fill="none"/>
    </clipPath>
    <clipPath id="clip-path-2">
      <path id="Path_1237" data-name="Path 1237" d="M76.528,1.394C71.029,20.866,62.878,23.607,46.48,11.6a1.581,1.581,0,0,0-2.508,1.443c2.146,20.316-4.63,26.109-24.909,21.713a1.58,1.58,0,0,0-1.732,2.284c9.72,18.332,5.975,26.425-14.166,29.852A1.581,1.581,0,0,0,2.456,69.7c16,12.536,15.563,21.126-1.7,31.688A1.558,1.558,0,0,0,0,102.7v.058a1.573,1.573,0,0,0,1.157,1.5c19.471,5.5,22.21,13.65,10.2,30.045a1.581,1.581,0,0,0,1.446,2.508c20.313-2.143,26.109,4.633,21.709,24.912a1.579,1.579,0,0,0,2.284,1.729c18.335-9.717,26.425-5.975,29.855,14.163a1.582,1.582,0,0,0,2.806.715c12.536-16,21.126-15.566,31.688,1.692a1.581,1.581,0,0,0,2.874-.393c5.5-19.474,13.65-22.213,30.042-10.205a1.579,1.579,0,0,0,2.508-1.443c-2.143-20.316,4.633-26.109,24.912-21.713a1.578,1.578,0,0,0,1.729-2.284c-9.717-18.335-5.972-26.425,14.169-29.855a1.581,1.581,0,0,0,.709-2.806c-16-12.536-15.566-21.126,1.695-31.685a1.58,1.58,0,0,0-.4-2.874c-19.471-5.5-22.21-13.653-10.205-30.045a1.582,1.582,0,0,0-1.443-2.511c-20.313,2.149-26.109-4.627-21.713-24.906a1.577,1.577,0,0,0-2.281-1.732c-18.338,9.717-26.425,5.972-29.858-14.166a1.577,1.577,0,0,0-2.8-.709C98.548,18.689,89.957,18.259,79.4,1a1.578,1.578,0,0,0-2.871.4" transform="translate(0 -0.237)" fill="none"/>
    </clipPath>
    <radialGradient id="radial-gradient" cx="0.834" cy="0.803" r="1.058" gradientUnits="objectBoundingBox">
      <stop offset="0" stop-color="#feca23"/>
      <stop offset="0.179" stop-color="#fcc620"/>
      <stop offset="0.356" stop-color="#f7ba19"/>
      <stop offset="0.532" stop-color="#efa60e"/>
      <stop offset="0.57" stop-color="#eda10b"/>
      <stop offset="0.984" stop-color="#f15a24"/>
      <stop offset="1" stop-color="#f2943d"/>
    </radialGradient>
    <clipPath id="clip-path-4">
      <path id="Path_1239" data-name="Path 1239" d="M30.466,24.558A64.365,64.365,0,1,0,72.776,8.676,64.369,64.369,0,0,0,30.466,24.558" transform="translate(-8.438 -8.676)" fill="none"/>
    </clipPath>
    <linearGradient id="linear-gradient" x1="0.02" y1="0.971" x2="0.036" y2="0.971" gradientUnits="objectBoundingBox">
      <stop offset="0" stop-color="#fb9f2c"/>
      <stop offset="0.005" stop-color="#fb9f2c"/>
      <stop offset="0.683" stop-color="#fee217"/>
      <stop offset="1" stop-color="#fee217"/>
    </linearGradient>
  </defs>
  <g id="Group_506" data-name="Group 506" transform="translate(0 0)">
    <g id="Group_499" data-name="Group 499" transform="translate(0 0)">
      <g id="Group_498" data-name="Group 498" clip-path="url(#clip-path)">
        <path id="Path_1236" data-name="Path 1236" d="M35.527,161.448c4.4-20.279-1.4-27.055-21.713-24.909a1.581,1.581,0,0,1-1.443-2.508c12.008-16.395,9.269-24.549-10.205-30.048a1.581,1.581,0,0,1-.4-2.874c17.261-10.558,15.3-18.747-.7-31.282-1.084-.847.39-2.745,1.747-2.975,20.138-3.429,22.944-11.842,13.223-30.177-.629-1.188,2.714-2.478,4.031-2.2,20.279,4.4,24.955-1.274,22.809-21.59-.144-1.369,3.5-2.379,4.608-1.566C63.887,23.331,69.984,20.681,75.48,1.21,75.857-.122,79.689-.457,80.41.725c10.562,17.258,17.313,17.988,29.849,2,.85-1.087,4.412-.949,4.642.411,3.429,20.138,9.981,24.19,28.313,14.473,1.188-.629,4.111.107,3.825,1.422-4.4,20.279.427,27.583,20.742,25.437,1.369-.144,3.227.869,2.413,1.98-12.008,16.395-9.269,24.549,10.205,30.045a1.581,1.581,0,0,1,.4,2.874c-17.261,10.562-17.691,19.152-1.7,31.688a1.581,1.581,0,0,1-.709,2.806c-20.138,3.429-23.883,11.519-14.166,29.855.632,1.188-1.237,3.408-2.551,3.122-20.282-4.4-26.235.556-24.089,20.874.147,1.369-2.416,3.239-3.528,2.425-16.395-12.008-23.527-10.251-29.026,9.22-.375,1.332-3.687,3.03-4.409,1.848-10.562-17.261-17.614-19.143-30.149-3.147-.85,1.084-4.222,1.94-4.452.58-3.429-20.138-9.874-25.176-28.209-15.455a1.58,1.58,0,0,1-2.284-1.732" transform="translate(1.444 -0.001)" fill="#fff300"/>
      </g>
    </g>
    <g id="Group_501" data-name="Group 501" transform="translate(0 0.727)">
      <g id="Group_500" data-name="Group 500" clip-path="url(#clip-path-2)">
        <rect id="Rectangle_461" data-name="Rectangle 461" width="253.53" height="253.53" transform="matrix(0.604, -0.797, 0.797, 0.604, -87.11, 114.964)" fill="url(#radial-gradient)"/>
      </g>
    </g>
    <g id="Group_503" data-name="Group 503" transform="translate(0 0)">
      <g id="Group_502" data-name="Group 502" clip-path="url(#clip-path)">
        <path id="Path_1238" data-name="Path 1238" d="M24.9,115.039a64.365,64.365,0,1,1,90.817,6.147A64.363,64.363,0,0,1,24.9,115.039" transform="translate(18.658 17.259)" fill="#fff300"/>
      </g>
    </g>
    <g id="Group_505" data-name="Group 505" transform="translate(25.908 26.637)">
      <g id="Group_504" data-name="Group 504" clip-path="url(#clip-path-4)">
        <rect id="Rectangle_463" data-name="Rectangle 463" width="188.087" height="184.503" transform="translate(-60.034 24.764) rotate(-25.237)" fill="url(#linear-gradient)"/>
      </g>
    </g>
  </g>
</svg>
