<svg xmlns="http://www.w3.org/2000/svg" width="143" height="39" viewBox="0 0 143 39">
  <g id="Group_1" data-name="Group 1" transform="translate(-814 -1460)">
    <rect id="Rectangle_3" data-name="Rectangle 3" width="143" height="39" rx="19.5" transform="translate(814 1460)" fill="#0f4d9a"/>
    <text id="BELANJA" transform="translate(837.5 1484)" fill="#fff" font-size="15" font-family="Brevia-Bold, Brevia Bold" font-weight="700"><tspan x="0" y="0">BELANJA</tspan></text>
    <path id="Icon_zocial-cart" data-name="Icon zocial-cart" d="M-2.07,5.649A.943.943,0,0,1-1.8,4.954.94.94,0,0,1-1.1,4.68H3.847a.965.965,0,0,1,.6.2.936.936,0,0,1,.347.537L5.3,7.481H19.492l.148-.442a.871.871,0,0,1,.905-.674.648.648,0,0,1,.274.042.907.907,0,0,1,.505.337.92.92,0,0,1,.19.569,1.177,1.177,0,0,1-.042.274l-2.485,8.275a.906.906,0,0,1-.337.505.925.925,0,0,1-.569.19H6.311a.936.936,0,0,1-.6-.21.983.983,0,0,1-.347-.527L3.089,6.6H-1.1a.952.952,0,0,1-.684-.274A.9.9,0,0,1-2.07,5.649ZM5.763,9.4l1.306,5.222h10.3l.041-.189L18.924,9.4H5.763Zm.884,10.192a1.848,1.848,0,0,1,.579-1.369,1.9,1.9,0,0,1,1.379-.569,1.937,1.937,0,0,1,0,3.874,1.9,1.9,0,0,1-1.379-.568A1.85,1.85,0,0,1,6.648,19.588Zm1.369-8.549h3.5v1.937H8.437Zm5.159,1.937L13.2,11.04h3.411L16.1,12.976Zm.779,6.612a1.848,1.848,0,0,1,.58-1.369,1.9,1.9,0,0,1,1.379-.569,1.937,1.937,0,0,1,0,3.874,1.9,1.9,0,0,1-1.379-.568A1.848,1.848,0,0,1,13.954,19.588Z" transform="translate(911.986 1466.397)" fill="#fff"/>
  </g>
</svg>
