<?xml version="1.0" encoding="UTF-8" standalone="no"?>
<!DOCTYPE svg  PUBLIC '-//W3C//DTD SVG 1.1//EN'  'http://www.w3.org/Graphics/SVG/1.1/DTD/svg11.dtd'>
<svg xmlns="http://www.w3.org/2000/svg" version="1.1">
<defs>
<font id="Brevia-Semibold" horiz-adv-x="316">
<font-face ascent="800" x-height="550" units-per-em="1000" descent="-200" underline-position="-150" font-family="a" cap-height="680" underline-thickness="50" unicode-range="U+0020-00A9" panose-1="2 0 5 3 5 0 0 2 0 4" bbox="-5.75 -161 987.769 774" font-weight="600"/>
<missing-glyph/>
<glyph glyph-name="space" unicode=" " horiz-adv-x="305"/>
<glyph glyph-name="exclam" unicode="!" d="M90 71q-1 52 20.5 68t64.5 16t66.5 -16t24.5 -68q0 -50 -22 -65.5t-65 -15.5q-44 0 -66.5 15.5t-22.5 65.5zM194 274l-31 3q-4 44 -34 162t-29 160q2 91 84 91q92 0 92 -112q0 -20 -2.5 -40.5t-9 -47.5t-10.5 -42.5t-15.5 -48.5t-14 -41.5t-16.5 -45.5z" horiz-adv-x="336"/>
<glyph glyph-name="numbersign" unicode="#" d="M526 240q25 1 33 -4.5t7 -26.5v-15q0 -18 -8.5 -22.5t-32.5 -3.5h-72q-20 -112 -23 -137q-4 -20 -10.5 -25.5t-21.5 -5.5h-27q-15 0 -20.5 7.5t-1.5 29.5l22 132l-158 -1l-24 -137q-4 -20 -10.5 -25.5t-21.5 -5.5h-26q-16 0 -21.5 7.5t-1.5 29.5l23 130h-35q-25 0 -31 5 t-6 26v11q0 16 3.5 22t14.5 8h13t19.5 -0.5t33.5 -0.5l43 243h-52q-25 -1 -30.5 4t-5.5 27v14q1 26 18 27q11 1 14 0.5t25 -1.5t43 -2l15 93q3 23 10.5 30t20.5 7h33q14 0 20 -8t2 -30l-17 -92q80 -2 156 0q11 58 15 93q3 23 10.5 30t20.5 7h33q15 0 20.5 -7.5t1.5 -30.5 q-5 -30 -17 -92h19.5t17.5 0.5t8 0.5q26 1 34 -5t7 -26v-15q0 -18 -8 -22t-33 -4l-21 1h-37l-43 -241q14 0 28 0.5t22.5 0.5h9.5zM426 480l-157 1l-44 -243h158z" horiz-adv-x="663"/>
<glyph glyph-name="dollar" unicode="$" d="M275 409l79 -23q88 -25 126 -71t39 -115q2 -84 -52 -138.5t-144 -67.5v-39v-39v-20q0 -19 -6 -25.5t-24 -6.5h-25q-17 0 -22 7t-4 28q0 2 0.5 36t0.5 56q-85 5 -139 35q-32 16 -41 36.5t2 50.5q4 13 11.5 24.5t13.5 16.5l5 6q7 -7 20.5 -16.5t58 -26t92.5 -16.5 q53 0 83.5 26t30.5 68q0 60 -99 87l-79 22q-153 41 -156 177q-2 84 52.5 140.5t146.5 65.5v53q0 22 6 28t24 6h14q35 0 34 -34q0 -1 -0.5 -19.5t-0.5 -32.5q85 -6 128 -35q27 -14 33.5 -33t-7.5 -55q-4 -10 -10 -19t-10 -13l-4 -4q-8 6 -23 14t-58.5 22t-84.5 14 q-51 0 -77 -25t-26 -67q0 -31 24 -48.5t68 -29.5z" horiz-adv-x="565"/>
<glyph glyph-name="percent" unicode="%" d="M414 508q-2 -80 -48.5 -131t-128.5 -51q-89 0 -134 50t-43 132q1 80 47 131t131 51t131 -51t45 -131zM307 509q0 97 -69 97q-42 0 -57 -26t-15 -71q0 -46 14.5 -72.5t56.5 -26.5q70 0 70 99zM558 644q6 12 9.5 18t12 12t19.5 6h35q35 0 14 -41q-241 -474 -299 -605 q-8 -21 -18.5 -27.5t-27.5 -6.5h-30q-37 0 -14 42q35 67 150.5 299.5t148.5 302.5zM855 172q-1 -80 -48 -131t-129 -51q-89 0 -133.5 49.5t-43.5 132.5q1 80 47 131t131 51t131 -50.5t45 -131.5zM748 173q0 97 -69 97q-72 0 -72 -97q0 -46 14.5 -72.5t56.5 -26.5q70 0 70 99 z" horiz-adv-x="915"/>
<glyph glyph-name="ampersand" unicode="&amp;" d="M588 388l51 -19q31 -10 19 -57q-19 -73 -65 -143l87 -72q32 -26 5 -56l-28 -30q-29 -34 -60 -8l-82 72q-96 -87 -219 -87q-115 0 -180 55.5t-65 142.5q0 41 16 73.5t39.5 49t46.5 27.5t39 14l16 2v6q-96 70 -96 153q0 76 55.5 127.5t156.5 51.5q88 0 161 -45 q59 -36 18 -93q-5 -7 -12 -13.5t-11 -9.5l-5 -3q-7 6 -20 15.5t-50.5 25t-73.5 15.5q-41 0 -63 -21t-22 -51q0 -29 13 -49t44 -47l201 -170q30 59 42 121q10 35 42 23zM301 100q73 0 131 48l-172 152q-30 -1 -54 -26.5t-24 -70.5q0 -48 34.5 -75.5t84.5 -27.5z" horiz-adv-x="725"/>
<glyph glyph-name="parenleft" unicode="(" d="M204 308q0 -26 3 -52t8 -48.5t12.5 -45t15 -41t17 -36.5t17 -31t16.5 -26.5t14 -20.5t11 -15l5 -7q22 -34 -6 -51l-45 -27q-13 -7 -22.5 -3.5t-24.5 19.5q-158 176 -158 384q0 60 15 120t33.5 100t45 79t38.5 53t24 27q17 18 26.5 21.5t22.5 -2.5l46 -26q27 -16 5 -49 l-8 -10q-8 -10 -15 -20t-19 -28.5t-21.5 -37.5t-20.5 -45.5t-18 -53t-12 -60t-5 -67.5z" horiz-adv-x="372"/>
<glyph glyph-name="parenright" unicode=")" d="M168 308q0 34 -5 67.5t-12 60t-18 53t-20.5 45.5t-21.5 37.5t-19 28.5t-15 20l-8 10q-22 33 5 49l46 26q13 6 22.5 2.5t26.5 -21.5q155 -172 155 -379q0 -75 -20.5 -146t-53 -122.5t-50 -74.5t-34.5 -41q-15 -16 -24 -19.5t-22 3.5l-46 27q-27 17 -5 51l5 7q6 8 11 15 t14 20.5t16.5 26.5t17 31t17 36.5t15 41t12.5 45t8 48.5t3 52z" horiz-adv-x="372"/>
<glyph glyph-name="asterisk" unicode="*" d="M149 362l-8 4q-12 7 -15 19t4.5 28.5t15.5 29t21.5 31.5t17.5 26l-4 4q-4 0 -22 -4t-35 -6t-35 -1.5t-29 9.5t-11 26q0 24 18 33.5t37.5 7.5t45 -7.5t28.5 -5.5l5 5q-6 8 -20.5 25.5t-24 30t-18 28t-7.5 27t12 18.5l10 6q10 3 17 4t15 -7t13.5 -15.5t12 -21.5t11 -24 t10 -24t8.5 -21h7q3 8 7 22l7 24.5t7.5 24t9 21t11.5 15.5t14.5 7t18.5 -4l10 -5q12 -6 14.5 -17.5t-4 -27t-15 -28.5t-21 -31t-17.5 -26l4 -6q1 0 24 5.5t36.5 6.5t33.5 0.5t30 -10t10 -27.5q0 -16 -6.5 -24.5t-21 -10t-27.5 -0.5t-37.5 4.5t-39.5 4.5l-1 -6q5 -7 21.5 -24 t26.5 -29t19.5 -27.5t8 -27.5t-15.5 -20l-9 -5q-14 -8 -27.5 -0.5t-26.5 29.5t-20 38t-17 41h-9q-2 -9 -3 -14t-3.5 -16t-4.5 -18l-5 -17.5t-6.5 -17t-8 -14t-9.5 -11.5t-11 -7t-13 -2t-14 5z" horiz-adv-x="458"/>
<glyph glyph-name="comma" unicode="," d="M76 84q0 45 25 67t66 22q45 0 72.5 -29t27.5 -88q0 -103 -35.5 -159.5t-84.5 -56.5q-31 0 -46 13t-14 26l1 13q3 1 8.5 3.5t19 12t24 20.5t19 30t9.5 41q-39 -2 -65.5 18.5t-26.5 66.5z" horiz-adv-x="344"/>
<glyph glyph-name="hyphen" unicode="-" d="M334 285l-229 -2q-20 0 -28 9t-8 30v46q0 20 8 26t34 6q174 0 231 4q20 1 27.5 -10t7.5 -34l-1 -43q-1 -20 -8.5 -26t-33.5 -6z" horiz-adv-x="445"/>
<glyph glyph-name="period" unicode="." d="M68 81q-1 57 21.5 74.5t68.5 17.5q44 0 67 -18t23 -74q0 -55 -22.5 -73t-66.5 -18q-45 0 -68.5 18t-22.5 73z"/>
<glyph glyph-name="slash" unicode="/" d="M245 644q5 13 8 18.5t10.5 11.5t19.5 6h34q35 0 20 -41q-170 -461 -213 -605q-6 -21 -15.5 -27.5t-27.5 -6.5h-29q-36 0 -20 42q26 65 106 292.5t107 309.5z" horiz-adv-x="375"/>
<glyph glyph-name="zero" unicode="0" d="M590 340q1 -155 -68.5 -252.5t-204.5 -97.5q-92 0 -152 47t-84.5 123t-24.5 180q0 102 28 179t90.5 124t153.5 47q70 0 121 -26.5t81.5 -75t45 -110t14.5 -138.5zM457 340q0 66 -12 117t-42.5 85t-75.5 34q-71 0 -104.5 -66.5t-33.5 -168.5q0 -101 30.5 -169t98.5 -68 q47 0 79.5 35t46 86.5t13.5 114.5z" horiz-adv-x="646"/>
<glyph glyph-name="one" unicode="1" d="M228 72q2 28 5.5 225.5t4.5 237.5l-129 -60q-33 -12 -47 17l-12 27q-16 36 16 52l211 109h51q17 0 27 -6t13.5 -18.5t4.5 -21.5t0 -25q-2 -26 -4.5 -258t-0.5 -270q0 -3 2 -17t2 -19.5t-1.5 -16.5t-6.5 -15.5t-15 -8.5t-25 -4h-50q-22 0 -33 13t-12.5 25.5t-0.5 33.5z " horiz-adv-x="460"/>
<glyph glyph-name="two" unicode="2" d="M103 0q-47 0 -47 41l-2 72q28 29 91.5 86t105 97t76.5 94t35 100q0 37 -27 62t-74 25q-40 0 -81 -12.5t-62 -24.5l-21 -13q-11 11 -19 30q-9 21 -11 37t4.5 26.5t13 16t17.5 12.5q66 41 173 41q98 0 159 -47.5t65 -130.5q3 -44 -13 -88t-50.5 -87.5t-63.5 -74t-76.5 -75 t-66.5 -63.5v-9q175 0 226 6q22 2 32.5 -9t9.5 -33v-47q-1 -20 -8.5 -26t-36.5 -6h-349z" horiz-adv-x="564"/>
<glyph glyph-name="three" unicode="3" d="M93 644q22 15 73 30.5t114 15.5q120 0 175.5 -51t54.5 -137q0 -33 -10.5 -60t-25 -42.5t-29 -26t-25.5 -14.5l-10 -4v-6q5 -1 13.5 -2.5t30.5 -12t38.5 -26t30 -46.5t13.5 -70q0 -87 -71.5 -144.5t-182.5 -57.5q-105 0 -187 39q-30 13 -39 31t0 52q3 12 9 22.5t10 15.5 l4 4q10 -6 27.5 -15t69 -23.5t99.5 -14.5q64 0 95 29t31 75q0 40 -31 65t-91 25h-84q-21 0 -21 26v52q0 21 18 21h82q48 0 75 26t27 69q0 40 -26.5 64t-80.5 24q-48 0 -91.5 -12.5t-63.5 -24.5l-19 -12q-12 10 -21 29q-27 59 19 87z" horiz-adv-x="588"/>
<glyph glyph-name="four" unicode="4" d="M86 627q0 29 7.5 41t35.5 12h46q24 0 35 -12t10 -31l-7 -84t-11 -142.5t-5 -93.5l166 1q1 40 1 171q0 17 0.5 24.5t4.5 18t13.5 14.5t26.5 4h42q51 0 48 -52q-1 -7 -2.5 -86.5t-1.5 -90.5h76q15 1 24.5 -7.5t8.5 -24.5v-41q0 -19 -7 -25.5t-24 -4.5q-8 1 -80 1 q0 -1 -0.5 -38.5t-0.5 -69t1 -36.5q0 -4 1.5 -17t1.5 -18t-2 -14.5t-7 -14t-14.5 -8t-24.5 -3.5h-45q-16 0 -26.5 6.5t-14 18.5t-4 22t-0.5 25q0 89 1 145q-138 -3 -240 -3q-54 0 -52 67q19 291 19 346z" horiz-adv-x="641"/>
<glyph glyph-name="five" unicode="5" d="M90 365q1 12 5 233v10q0 22 1 31.5t6.5 21t18.5 15.5t35 4h295q24 0 31.5 -10.5t7.5 -32.5v-40q0 -22 -14.5 -28.5t-50.5 -6.5q-142 0 -205 -1q0 -21 -2 -74t-2 -64q324 17 324 -207q0 -100 -68 -163t-187 -63q-112 0 -174 31t-50 81q3 17 11.5 32.5t13.5 18.5 q10 -6 27.5 -14.5t68.5 -23t99 -14.5q60 0 92 32.5t32 82.5q0 108 -182 108q-21 0 -54 -2t-42 -2q-40 0 -37 45z" horiz-adv-x="596"/>
<glyph glyph-name="six" unicode="6" d="M313 341q-62 1 -91 -35.5t-29 -83.5q1 -59 36 -91.5t88 -32.5q57 0 87 36t29 90q0 55 -34.5 86t-85.5 31zM369 690q99 0 156 -37q35 -24 8 -76q-5 -11 -12 -20t-12 -13l-5 -4q-52 35 -137 35q-38 0 -70.5 -15t-54 -38t-36.5 -52.5t-21.5 -57.5t-6.5 -53h8q2 3 6 7.5 t18.5 16t31.5 20.5t45.5 16.5t59.5 7.5q91 0 154.5 -53t64.5 -148q2 -99 -69 -167.5t-181 -68.5q-120 0 -189 80.5t-71 224.5q-1 77 18 146.5t56 126t99 89.5t140 33z" horiz-adv-x="617"/>
<glyph glyph-name="seven" unicode="7" d="M191 0h-65q-24 0 -33.5 10t-10.5 32q0 28 20.5 77t60.5 115t71.5 115t80 120t58.5 87v6q-72 -2 -284 -2q-22 0 -29.5 10t-6.5 32l1 46q0 20 8.5 26t36.5 6h375q20 0 31 -11.5t11 -30.5l-1 -65q-239 -366 -282 -529q-10 -44 -42 -44z" horiz-adv-x="550"/>
<glyph glyph-name="eight" unicode="8" d="M184 357v6q-4 1 -10.5 3.5t-23 13t-29.5 24t-23.5 39t-10.5 55.5q0 86 55.5 138.5t174.5 53.5q119 0 175 -51.5t55 -140.5q0 -30 -10.5 -55t-25.5 -39.5t-29.5 -24t-25.5 -13.5l-10 -3v-6q5 -1 14 -3.5t31 -14.5t39 -28t31 -47t14 -70q0 -88 -72 -146t-186 -58 q-120 0 -192.5 57.5t-72.5 146.5q0 39 14 70t33 47.5t38.5 27.5t32.5 15zM444 208q-2 46 -32 76t-95 30t-97.5 -31.5t-32.5 -76.5q-1 -50 31.5 -77.5t98.5 -27.5q67 0 97.5 28.5t29.5 78.5zM419 491q0 39 -26.5 64t-75.5 25q-50 0 -75.5 -25t-25.5 -64q0 -40 25.5 -66 t75.5 -26q49 0 75.5 26.5t26.5 65.5z" horiz-adv-x="627"/>
<glyph glyph-name="nine" unicode="9" d="M259 -10q-111 0 -154 37q-30 24 -10 76q4 11 10 20.5t10 13.5l4 4q50 -37 139 -37q48 0 84 22t55.5 56.5t28.5 70.5t9 71h-9q-2 -3 -5.5 -8t-17 -17t-29.5 -21.5t-43.5 -17.5t-58.5 -8q-103 0 -160.5 54.5t-59.5 152.5q-2 96 63 163.5t182 67.5q124 0 194 -85.5 t72 -249.5q1 -69 -16.5 -133t-53.5 -116.5t-96.5 -84t-137.5 -31.5zM298 341q58 -1 90 36.5t32 84.5q0 58 -32.5 89.5t-87.5 31.5q-57 0 -87 -35t-30 -89q1 -55 34.5 -86.5t80.5 -31.5z" horiz-adv-x="619"/>
<glyph glyph-name="colon" unicode=":" d="M73 472q-1 54 20 71t65 17q41 0 63 -17t22 -71q0 -53 -21.5 -70t-62.5 -17q-43 0 -65 17t-21 70zM73 77q-1 54 20 71t65 17q41 0 63 -17.5t22 -70.5t-21 -70t-63 -17q-43 0 -65 17t-21 70z"/>
<glyph glyph-name="semicolon" unicode=";" d="M75 74q0 83 87 83q43 0 69 -27t26 -84q0 -98 -34 -152t-81 -54q-29 0 -43 12t-13 24v13q3 1 8 3.5t18 12t23 20.5t18.5 29.5t9.5 38.5q-37 -3 -62.5 16.5t-25.5 64.5zM73 472q-1 54 20 71t65 17q41 0 63 -17t22 -71q0 -53 -21.5 -70t-62.5 -17q-43 0 -65 17t-21 70z"/>
<glyph glyph-name="question" unicode="?" d="M191 309q0 25 19 52.5t41.5 47.5t41 48t18.5 55q0 30 -20 47.5t-58 17.5q-34 0 -68.5 -12.5t-52.5 -24.5l-18 -12q-3 3 -6.5 7.5t-12 18.5t-12.5 26.5t-2 28.5t14 28q22 22 67.5 37.5t101.5 15.5q100 0 153 -42.5t55 -120.5q0 -41 -22 -81.5t-48 -66.5t-48 -55t-22 -49 q-28 -17 -63 -17q-27 0 -42 14.5t-16 36.5zM164 71q-1 52 20.5 68t65.5 16q43 0 66 -16t24 -68q0 -50 -21.5 -65.5t-64.5 -15.5q-44 0 -67 15.5t-23 65.5z" horiz-adv-x="490"/>
<glyph glyph-name="at" unicode="@" d="M388 -100q-32 0 -66.5 7.5t-76.5 29.5t-75.5 57t-58.5 95t-31 138q-16 206 113.5 344.5t356.5 138.5q186 0 304 -90t128 -252q5 -85 -15 -150t-57 -100t-77.5 -51.5t-81.5 -16.5q-65 0 -93.5 35t-27.5 77h-8q-6 -33 -49.5 -72.5t-110.5 -39.5q-87 0 -138 53.5t-51 151.5 q0 125 83.5 215t213.5 90q59 0 98.5 -13t59.5 -38.5t27 -54t6 -67.5q-1 -33 -3.5 -80t-3.5 -76t-1 -36q1 -22 2.5 -32t8 -17.5t17.5 -7.5q14 0 34 11.5t42.5 35.5t35.5 72t8 111q-10 127 -103 196.5t-242 69.5q-196 0 -303 -116.5t-95 -290.5q5 -68 30 -118.5t61.5 -76.5 t70 -38.5t67.5 -14.5h4t4 -0.5t4 -1t4.5 -1t4 -1.5t3.5 -2l3 -3t2.5 -4.5t1 -5.5t0.5 -7l-1 -30q0 -12 -5.5 -17t-9.5 -5.5t-14 -0.5zM506 159q42 0 73.5 30t45.5 63q3 76 3 124q0 46 -17 61.5t-47 15.5q-69 0 -111 -54t-42 -132q0 -108 95 -108z" horiz-adv-x="1061"/>
<glyph glyph-name="A" unicode="A" d="M229 624q8 29 22 42.5t46 13.5h90q30 0 45.5 -14.5t23.5 -42.5q4 -15 85.5 -276.5t88.5 -289.5q13 -57 -32 -57h-41q-13 0 -23 3t-15.5 10t-8 11.5t-5.5 14t-4 11.5q-1 3 -13 40t-24 66h-252q-33 -96 -35 -103q-6 -29 -16 -41t-35 -12h-57q-20 0 -27.5 15.5t-0.5 38.5 q13 45 98.5 300t89.5 270zM335 585q-13 -58 -100 -333h206q-89 287 -100 333h-6z" horiz-adv-x="673"/>
<glyph glyph-name="B" unicode="B" d="M455 363v-6q6 -1 16.5 -2.5t36.5 -12t46 -26.5t36.5 -47.5t16.5 -72.5q1 -89 -64 -142.5t-193 -53.5h-216q-22 0 -33 13t-12.5 25t-1.5 34q2 53 2 543q0 18 -1 32t12 23.5t43 9.5h188q125 0 185 -48t60 -128q0 -33 -12.5 -59.5t-30.5 -41t-35.5 -24.5t-29.5 -13zM446 494 q0 42 -32.5 65.5t-88.5 23.5h-101l-1 -185h101q122 0 122 96zM469 207q0 49 -35 76t-96 27h-116v-212h115q60 0 96 27t36 82z" horiz-adv-x="659"/>
<glyph glyph-name="C" unicode="C" d="M556 643q43 -31 6 -84q-7 -11 -15 -19.5t-12 -11.5l-4 -2q-6 5 -17 13.5t-50 22t-84 13.5q-94 0 -141 -65.5t-47 -168.5q0 -102 50 -168.5t137 -66.5q71 0 120 35q30 20 45 -7l26 -46q17 -28 -2 -43q-68 -55 -192 -55q-156 0 -238.5 97t-81.5 253t82 253t235 97 q119 0 183 -47z" horiz-adv-x="638"/>
<glyph glyph-name="D" unicode="D" d="M653 340q-7 -340 -346 -340h-172q-17 0 -27.5 6.5t-14.5 18.5t-4.5 22t-0.5 25q1 26 1 527q0 4 -1.5 21t-0.5 23t4.5 17t14.5 15.5t28 4.5h171q181 0 266 -91.5t82 -248.5zM515 343q0 50 -9 88.5t-31 73t-65 53t-106 18.5h-78q-2 -70 -2 -472h80q66 0 110.5 19.5t65.5 56 t28 74.5t7 89z" horiz-adv-x="710"/>
<glyph glyph-name="E" unicode="E" d="M89 599q0 5 -1.5 21t-1 23t4 17.5t14.5 15t28 4.5h359q24 0 32.5 -10.5t8.5 -32.5v-35q0 -39 -43 -38h-263l-1 -174q202 0 226 1q34 2 34 -32v-40q0 -19 -6.5 -25t-24.5 -6h-51h-95.5h-82.5q0 -68 2 -172q218 0 263 3q42 3 42 -40v-47q0 -20 -7.5 -26t-33.5 -6h-355 q-16 0 -26.5 6.5t-14.5 18.5t-4.5 22t-0.5 25q1 64 0.5 166.5t-1.5 231t-1 129.5z" horiz-adv-x="599"/>
<glyph glyph-name="F" unicode="F" d="M89 599q0 6 -0.5 19.5t0 18.5t1.5 14.5t4 12.5t8.5 8t14 6.5t20.5 1.5h336q41 0 41 -44v-36q0 -24 -11 -31.5t-36 -7.5h-242l-1 -194h221q22 0 31.5 -7.5t9.5 -27.5v-38q0 -20 -7.5 -27t-25.5 -6q-39 4 -230 1q0 -57 2 -125t2 -71q0 -23 -2 -35t-12.5 -21.5t-31.5 -9.5 h-46q-29 0 -38 15.5t-9 48.5q0 4 0.5 23.5t0.5 34.5v477z" horiz-adv-x="570"/>
<glyph glyph-name="G" unicode="G" d="M384 575q-85 0 -138.5 -62.5t-53.5 -168.5q0 -116 50.5 -178t124.5 -62q45 0 77 18.5t46 45t21 53.5t7 45v19l-129 -1q-20 0 -20 24l-1 54q0 20 26 20h211q26 0 34 -8t7 -32q-7 -251 -5 -291q5 -51 -32 -51h-45q-36 0 -36 41q0 1 1.5 29.5t0.5 36.5h-9q-1 -5 -4 -13 t-17 -28t-32.5 -35.5t-53 -28t-76.5 -12.5q-130 0 -206.5 99t-75.5 251q1 154 85.5 252t234.5 98q129 0 204 -50q47 -31 9 -86q-6 -9 -14 -16.5t-13 -10.5l-5 -3q-6 6 -19 14.5t-57.5 22.5t-96.5 14z" horiz-adv-x="711"/>
<glyph glyph-name="H" unicode="H" d="M542 599q0 6 -1.5 21t-1 23t4 18t14 14.5t28.5 4.5h51q16 0 26.5 -6t14.5 -18t4.5 -22t0.5 -25q-2 -33 -4 -258.5t1 -269.5q0 -5 1.5 -21t1 -23t-4 -17.5t-14 -15t-28.5 -4.5h-50q-17 0 -27.5 6.5t-14.5 18.5t-4.5 22t-0.5 25q2 62 2 212h-316q0 -184 2 -203 q0 -4 1.5 -17t1.5 -19.5t-1.5 -16.5t-6.5 -15t-14.5 -9t-24.5 -4h-51q-16 0 -26.5 6.5t-14.5 18.5t-4.5 22t-0.5 25q3 79 3 527q0 5 -1.5 21t-1 23t4 17.5t14 15t28.5 4.5h50q51 0 46 -71q-2 -32 -2 -222h315v212z" horiz-adv-x="769"/>
<glyph glyph-name="I" unicode="I" d="M99 599q0 6 -1.5 21t-0.5 23t4.5 18t14 14.5t27.5 4.5h51q16 0 26.5 -6t14.5 -18t4.5 -22t0.5 -25q-2 -75 -2 -281t2 -247q0 -4 2 -17.5t2 -19t-1.5 -16t-6 -15.5t-14 -9t-24.5 -4h-50q-17 0 -27.5 6.5t-14.5 18.5t-4.5 22t-0.5 25q1 66 0.5 152t-1.5 216.5t-1 158.5z " horiz-adv-x="342"/>
<glyph glyph-name="J" unicode="J" d="M434 218q-1 -109 -60.5 -168.5t-163.5 -59.5q-44 0 -84.5 15.5t-60 30t-33.5 28.5q-23 27 -6 47l29 40q18 26 44 5q46 -50 103 -50q92 0 96 119q2 77 2.5 154t0 122.5t-1.5 83.5t-1 41q-1 13 -0.5 23t4 17t13 10.5t26.5 3.5h50q17 0 27 -6t14 -18.5t5 -21.5t1 -25 q0 -14 -1.5 -176t-2.5 -215z" horiz-adv-x="512"/>
<glyph glyph-name="K" unicode="K" d="M588 125q13 -18 25.5 -23t38.5 -5q23 -107 -81 -107q-36 0 -59 16t-44 51l-150 239h-95q0 -195 1 -215q0 -18 1 -36t-9 -31.5t-33 -13.5h-51q-22 0 -33 13t-12.5 25t-1.5 34q4 105 4 527q0 6 -1 17.5t-1.5 18.5t1 17t6 15t14 9t24.5 4h51q16 0 26.5 -6t14 -18.5 t4.5 -21.5t1 -25q-2 -20 -4 -216h101q108 163 163 254q19 33 46 33h80q19 0 27.5 -15t-1.5 -32q-4 -6 -49.5 -70t-87.5 -124t-66 -98q14 -23 38.5 -59.5t45 -64.5t42 -58t24.5 -34z" horiz-adv-x="689"/>
<glyph glyph-name="L" unicode="L" d="M135 0q-45 0 -47 61v76q1 59 1 415q0 12 -1.5 43t-0.5 49t8.5 27t29.5 9h55q19 0 29.5 -10t12.5 -21t3 -29v-54q-6 -281 -2 -450q224 0 252 3q21 2 31.5 -9t10.5 -33q0 -27 -1 -41q1 -20 -7 -28t-33 -8h-341z" horiz-adv-x="565"/>
<glyph glyph-name="M" unicode="M" d="M121 625l1 5v8.5t1 8t2 8l3 7.5t5.5 7.5t7.5 5.5t10 4t13 1h97q43 0 52 -34l136 -405h8q130 372 140 406q9 33 57 33h97q20 0 31 -11t12.5 -23t2.5 -31v-6q20 -266 44 -543q0 -4 2 -19t1 -19.5t-4.5 -13t-14.5 -11.5t-29 -3h-45q-12 0 -20.5 3t-13 5.5t-7 10.5t-3 12 t-1 15t-0.5 15q-1 9 -13 218t-16 258h-7q-10 -33 -70 -207.5t-64 -189.5q-11 -31 -38 -31h-88q-32 0 -42 31q-5 20 -65 194.5t-68 202.5h-6q-2 -69 -10.5 -267t-8.5 -211q0 -5 -0.5 -16t-1 -15t-2.5 -11t-6 -9.5t-12 -5t-20 -2.5h-51q-32 0 -40.5 14t-5.5 41 q5 43 26.5 297.5t23.5 272.5z" horiz-adv-x="915"/>
<glyph glyph-name="N" unicode="N" d="M521 645q-1 16 7.5 25.5t38.5 9.5h49q16 0 26.5 -6t14 -18.5t4.5 -21.5t1 -25q-1 -51 -3 -258.5t0 -269.5q0 -5 1.5 -21t1 -23t-4 -17.5t-14 -15t-28.5 -4.5h-48q-45 0 -47 64q0 15 -61.5 97.5t-138 181t-95.5 126.5h-9q0 -48 4.5 -210.5t6.5 -177.5q0 -5 1.5 -21t1 -23 t-4 -17.5t-14.5 -15t-28 -4.5h-51q-16 0 -26.5 6.5t-14.5 18.5t-4.5 22t-0.5 25q2 53 2 543v11v11t0.5 10t2 9.5t3.5 7.5t6 7l9 4.5t12 3.5t16 1h68l314 -412h8q-6 135 -6 377z" horiz-adv-x="748"/>
<glyph glyph-name="O" unicode="O" d="M668 340q-2 -155 -81.5 -252.5t-223.5 -97.5q-150 0 -229 96.5t-78 253.5q1 156 78.5 253t227.5 97q144 0 225 -98t81 -252zM528 341q0 104 -39.5 169.5t-126.5 65.5q-89 0 -128.5 -65t-39.5 -170q1 -105 40.5 -171t127.5 -66q87 0 126.5 67t39.5 170z" horiz-adv-x="724"/>
<glyph glyph-name="P" unicode="P" d="M604 445q-2 -103 -70 -170.5t-189 -67.5h-119q0 -117 1 -126q0 -5 1.5 -17.5t2 -19t-1.5 -16.5t-6.5 -15t-14 -9t-24.5 -4h-51q-16 0 -26.5 6.5t-14.5 18.5t-4.5 22t-0.5 25q2 79 2 527q0 5 -1.5 21t-1 23t4 17.5t14.5 15t28 4.5h205q126 0 197 -66t69 -169zM469 438 q1 64 -32.5 103.5t-104.5 39.5h-107q-2 -7 -1.5 -136.5t0.5 -141.5h106q70 0 104 36t35 99z" horiz-adv-x="652"/>
<glyph glyph-name="Q" unicode="Q" d="M668 358q0 -59 -16 -110.5t-38 -83t-44.5 -55t-37.5 -33.5l-16 -9q33 -48 80.5 -82.5t91.5 -34.5q10 -47 -11.5 -78.5t-70.5 -31.5q-55 0 -109 58t-95 154h-8q-1 -7 -4.5 -17.5t-22.5 -27.5t-48 -17q-103 0 -183.5 102.5t-79.5 247.5q1 152 81 251t229 99 q141 0 222.5 -95.5t79.5 -236.5zM399 98q5 3 14 9t32 28t40 49t31.5 74t14.5 100q0 58 -14 104.5t-52.5 80t-97.5 33.5q-47 0 -82 -19t-54.5 -53t-28.5 -74.5t-9 -89.5q0 -113 62.5 -177t143.5 -65z" horiz-adv-x="728"/>
<glyph glyph-name="R" unicode="R" d="M605 451q0 -72 -39 -123t-101 -76l98 -128q12 -18 25 -22.5t36 -4.5q25 -107 -72 -107q-39 0 -60 16.5t-42 50.5l-113 172h-112q-5 -125 0 -172q2 -32 -7 -44.5t-35 -12.5h-50q-16 0 -26.5 6.5t-14.5 18.5t-4.5 22t-0.5 25q1 55 2 284.5t0 243.5q0 3 -0.5 15t0 16.5 t1.5 14t4.5 14t9.5 10t15 8t22 2.5h206q125 0 192.5 -62.5t65.5 -166.5zM470 451q0 53 -32.5 91.5t-97.5 38.5h-118q-1 -25 -1 -79t0.5 -113t0.5 -67h117q60 0 95.5 33.5t35.5 95.5z" horiz-adv-x="678"/>
<glyph glyph-name="S" unicode="S" d="M284 409l85 -23q92 -25 131.5 -71t41.5 -115q2 -97 -71 -153.5t-190 -56.5q-110 0 -175 34q-59 29 -37 89q4 13 11.5 24t13.5 15l5 5q7 -6 21 -15.5t60.5 -25t97.5 -15.5q57 0 91 26t33 68q0 61 -105 87l-86 22q-160 41 -163 177q-2 92 65.5 150.5t179.5 58.5 q111 0 177 -37q54 -28 27 -88q-4 -10 -10.5 -19t-10.5 -13l-4 -4q-9 6 -24 14t-60.5 22t-89.5 14q-55 0 -84 -25t-29 -67q1 -31 27 -48t72 -30z" horiz-adv-x="590"/>
<glyph glyph-name="T" unicode="T" d="M529 681q38 3 36 -43l-1 -43q-1 -20 -7.5 -26t-32.5 -6l-163 -1q-2 -55 -2 -481q0 -6 1.5 -21t1 -23t-4 -18t-14 -14.5t-27.5 -4.5h-51q-21 0 -32.5 12.5t-13.5 25.5t-1 33q2 24 4 217t1 275h-160q-21 -2 -29.5 7.5t-8.5 31.5l1 46q0 20 7 26t33 6q406 -4 463 1z" horiz-adv-x="591"/>
<glyph glyph-name="U" unicode="U" d="M634 315q-3 -79 -16.5 -134.5t-43 -100.5t-83 -67.5t-131.5 -22.5q-83 0 -139 22t-86 67t-42.5 100t-14.5 135q-1 58 -1 130.5t0.5 107.5t-0.5 58q0 3 -1 16.5t-0.5 17.5t2.5 13.5t6.5 12.5t13.5 6.5t22 3.5h51q22 0 33 -9.5t13 -20.5t1 -31q-5 -81 -3 -305 q1 -105 33 -157.5t110 -52.5q77 0 108.5 52t31.5 160v186l1 108q0 5 -0.5 16.5t-0.5 17t2 14t6.5 12.5t13 7t21.5 3h51q32 0 40.5 -15.5t7.5 -45.5q0 -9 -2.5 -143t-3.5 -161z" horiz-adv-x="715"/>
<glyph glyph-name="V" unicode="V" d="M437 56q-8 -28 -22 -42t-47 -14h-90q-55 0 -70 57q-4 15 -81 276t-85 290q-8 25 -1 41t33 16h41q10 0 17.5 -1.5t13 -5.5t9 -7t6.5 -9.5t4 -9t3 -9.5t2 -8q2 -8 26 -89.5t48.5 -165.5t48.5 -168.5t30 -111.5h7q8 37 43 161t71 246.5t37 124.5q1 3 2 8q6 26 14.5 35.5 t35.5 9.5h55q20 0 28 -15.5t1 -38.5q-14 -49 -96.5 -308.5t-83.5 -261.5z" horiz-adv-x="658"/>
<glyph glyph-name="W" unicode="W" d="M633 52q-9 33 -117 498h-6q-14 -61 -63 -269.5t-54 -229.5q-9 -51 -61 -51h-87q-17 0 -29 6t-19.5 20t-10 20.5t-7.5 24.5q-12 43 -70 275.5t-64 267.5q-8 26 -1.5 46t38.5 20h40q49 0 58 -52l110 -510h5q18 82 65.5 281.5t55.5 223.5q6 30 16.5 43.5t39.5 13.5h82 q46 0 56 -57q40 -184 122 -508h5q9 42 34 165.5t46.5 227.5t24.5 118q3 16 5.5 23.5t8 16t15 11.5t24.5 3h58q24 0 31 -18t1 -44q-12 -49 -73.5 -286.5t-64.5 -250.5q-10 -48 -22 -63q-17 -18 -47 -18h-84q-51 0 -61 52z" horiz-adv-x="1028"/>
<glyph glyph-name="X" unicode="X" d="M590 628q-27 -49 -187 -288q18 -29 63.5 -100.5t78 -122.5t40.5 -65q12 -16 8 -34t-26 -18h-65q-34 0 -52 40q-101 178 -128 222h-6q-25 -38 -73.5 -121t-60.5 -108q-16 -33 -57 -33h-59q-20 0 -27 18t6 39q6 9 39.5 60t78 120.5t66.5 102.5l-183 288q-11 16 -6.5 34 t24.5 18h65q34 0 52 -40l130 -221h6q26 41 74 123t58 105q7 17 18.5 25t38.5 8h59q21 0 28.5 -15.5t-3.5 -36.5z" horiz-adv-x="633"/>
<glyph glyph-name="Y" unicode="Y" d="M238 72q0 22 0.5 107t0.5 97q-24 45 -108.5 187.5t-98.5 164.5q-5 9 -7.5 20t3.5 21.5t25 10.5h64q16 0 27.5 -8.5t14 -13.5t10.5 -20q16 -33 74 -137t63 -112h6q27 46 79.5 140t61.5 116q8 19 20 27t42 8h58q19 0 27 -17.5t-2 -34.5q-11 -16 -107.5 -172t-114.5 -183 v-91.5t2 -100.5q0 -5 1.5 -17.5t2 -19t-1.5 -16.5t-6.5 -15t-14 -9t-24.5 -4h-50q-52 0 -47 72z" horiz-adv-x="627"/>
<glyph glyph-name="Z" unicode="Z" d="M96 0q-23 0 -33.5 9.5t-12.5 31.5l-1 72q10 12 337 442v6q-46 0 -131.5 -0.5t-132.5 -0.5q-21 0 -28.5 10t-7.5 32v46q0 20 8.5 26t35.5 6h373q39 0 43 -42v-65l-336 -448v-8q232 0 274 4q43 4 43 -40v-49q0 -20 -8 -26t-36 -6h-387z" horiz-adv-x="595"/>
<glyph glyph-name="bracketleft" unicode="[" d="M321 -130h-184q-39 0 -45 56q-2 11 -2 52q1 77 -0.5 335t-1.5 277q0 12 -0.5 32t-0.5 29.5t1 23.5t5.5 20t12 13t20.5 9.5t31 2.5h165q24 0 32 -10.5t8 -32.5v-23q0 -12 -4 -19.5t-8 -11t-16.5 -5.5t-17.5 -2h-23h-94q-1 -86 -0.5 -333.5t1.5 -313.5q101 0 122 2 q22 1 31 -8t9 -29v-32q0 -20 -7.5 -26t-33.5 -6z" horiz-adv-x="377"/>
<glyph glyph-name="backslash" unicode="\" d="M130 644q187 -538 213 -602q16 -42 -19 -42h-30q-18 0 -27 6.5t-15 27.5q-20 65 -101 292.5t-112 312.5q-8 20 -2.5 30.5t21.5 10.5h35q16 0 23 -8.5t14 -27.5z" horiz-adv-x="375"/>
<glyph glyph-name="bracketright" unicode="]" d="M290 639q0 -3 -0.5 -107t-0.5 -220v-230.5v-139.5q0 -72 -48 -72h-184q-27 0 -34.5 6t-7.5 26v32q0 20 9.5 29t31.5 8q21 -2 121 -2q1 66 1.5 313.5t-0.5 333.5h-121q-21 -2 -32 7.5t-10 30.5v23q0 22 8.5 32.5t32.5 10.5h191q17 0 27 -8t12.5 -20t3.5 -26t0 -27z" horiz-adv-x="378"/>
<glyph glyph-name="a" unicode="a" d="M506 69q0 -6 2.5 -23t1.5 -23t-6 -16t-20 -13.5t-40 -3.5q-72 0 -60 97h-6q-2 -4 -6 -10.5t-18.5 -23t-31.5 -29.5t-46.5 -23.5t-61.5 -10.5q-78 0 -122.5 47t-46.5 118q-1 80 53.5 126t145.5 45q76 -1 134 -24v49q0 47 -30 70.5t-82 23.5q-36 0 -73 -9t-57 -18l-19 -9 q-2 3 -5.5 7.5t-10 18.5t-9.5 26.5t0.5 28.5t15.5 28q47 42 174 42q105 0 164 -55t61 -147q0 -38 -1 -148.5t0 -140.5zM377 234q-39 13 -97 13q-48 0 -78.5 -21.5t-30.5 -59.5q0 -35 23 -55t60 -20q45 0 79 26.5t44 57.5v59z" horiz-adv-x="578"/>
<glyph glyph-name="b" unicode="b" d="M134 710q46 0 64 -20t15 -52q-3 -46 -4 -165h9q46 87 154 87q94 0 144.5 -68.5t52.5 -189.5q3 -142 -74 -227t-207 -85q-64 0 -107.5 14.5t-65 42t-30 58t-8.5 72.5q0 395 -3 467q-1 18 -0.5 31t6 20.5t18 11t36.5 3.5zM324 451q-45 0 -75 -28t-42 -61q0 -145 2 -188 q2 -33 22 -55.5t62 -22.5q64 0 101.5 48.5t36.5 144.5q0 81 -28.5 121.5t-78.5 40.5z" horiz-adv-x="616"/>
<glyph glyph-name="c" unicode="c" d="M491 432q-1 -43 -34 -60t-69 1q2 9 2 17q0 23 -18.5 42t-56.5 19q-64 0 -99 -46.5t-35 -127.5q1 -85 37 -131.5t106 -46.5q35 0 68.5 10.5t49.5 20.5l15 10q4 -2 10 -6t16 -20t10 -36q1 -36 -48 -62t-131 -26q-131 0 -198.5 74.5t-69.5 211.5q-1 123 71 203.5t191 80.5 q95 0 140.5 -37.5t42.5 -90.5z" horiz-adv-x="550"/>
<glyph glyph-name="d" unicode="d" d="M298 96q47 0 80 40t33 109v93q-5 17 -16 39t-40 47.5t-64 25.5q-46 0 -76.5 -39.5t-30.5 -124.5q0 -89 32 -139.5t82 -50.5zM465 710q86 0 82 -75q-2 -42 -4.5 -245.5t1.5 -320.5q0 -6 1.5 -20t2 -22.5t-4 -17.5t-14.5 -13q-20 -6 -49 -6q-71 0 -60 93h-6q-1 -4 -4.5 -10 t-16 -22t-28.5 -28.5t-45.5 -22.5t-63.5 -10q-90 0 -149.5 79t-60.5 220q-1 122 55.5 196.5t144.5 74.5q65 0 107.5 -38t50.5 -73h7q-1 39 -2.5 108t-1.5 82q-2 42 7.5 56.5t50.5 14.5z" horiz-adv-x="622"/>
<glyph glyph-name="e" unicode="e" d="M463 253h-288l-2 -3q1 -65 38 -110t108 -45q70 0 150 48q20 -14 28 -41q12 -46 -24 -69q-68 -43 -162 -43q-134 0 -199.5 79t-65.5 209q0 124 68.5 203t188.5 79q104 0 163 -59t59 -144q0 -61 -15.5 -82.5t-46.5 -21.5zM176 329h222q3 13 3 28q0 100 -101 100 q-65 0 -94.5 -41t-29.5 -87z" horiz-adv-x="573"/>
<glyph glyph-name="f" unicode="f" d="M115 411h-53q-23 0 -23 22v43q0 23 22 26l54 11q0 37 1 50q1 62 38 104.5t122 42.5q43 0 111 -13q1 -4 1.5 -10t0.5 -21t-3 -27t-13 -21.5t-25 -9.5q-8 0 -24.5 1.5t-25.5 1.5q-21 0 -36.5 -13.5t-15.5 -42.5v-41q60 -2 94 0q27 1 25 -20l-3 -62q-1 -22 -20 -22h-93 q-3 -142 3 -332q0 -2 1 -20t-0.5 -23t-5 -16t-13.5 -15t-25 -4h-48q-16 0 -26.5 6t-14.5 18t-4.5 22t-0.5 25v79.5v157.5v103z" horiz-adv-x="410"/>
<glyph glyph-name="g" unicode="g" d="M517 464q-39 -1 -81 6l-1 -5q17 -7 27 -12t28 -18.5t27.5 -35t9.5 -50.5q1 -80 -66.5 -121.5t-178.5 -41.5q-63 0 -63 -32q0 -31 57 -31q6 0 55.5 1.5t63.5 1.5q82 0 128.5 -31t46.5 -90q0 -73 -66.5 -119t-195.5 -46q-116 0 -181 30t-66 90q0 35 24.5 56.5t48.5 25.5 l25 5v5q-2 0 -6 1t-13.5 5.5t-16.5 11.5t-13 20.5t-6 31.5q0 36 24 58t48 26l24 4v5q-6 1 -15.5 2.5t-34.5 11.5t-44.5 25t-35 44t-15.5 66q-1 83 59.5 139.5t194.5 56.5h252q1 -4 3 -10.5t4 -23t-0.5 -29t-15.5 -23t-35 -10.5zM306 462q-77 0 -103.5 -28t-25.5 -69 q0 -40 28 -62.5t78 -22.5q64 0 93.5 26t29.5 65q0 38 -26 64.5t-74 26.5zM206 34q0 -1 -3.5 -4.5t-6.5 -7t-6 -8.5t-5 -11t-2 -12q0 -64 125 -64q129 0 129 63q0 40 -60 40q-18 1 -58 -0.5t-47 -1.5q-48 0 -66 6z" horiz-adv-x="624"/>
<glyph glyph-name="h" unicode="h" d="M175 0h-51q-45 0 -45 61v79q3 135 3 505q0 4 -0.5 15t-0.5 16t3 13t9 11.5t18 6.5t30 3q44 0 63 -17.5t17 -54.5q-3 -49 -5 -187h11q9 33 52 71t119 38q51 0 88 -19t57 -52.5t28.5 -70.5t8.5 -81q0 -16 -3.5 -116t-2.5 -171q1 -12 0 -23t-5.5 -19t-18 -13t-36.5 -5 q-81 0 -81 65q0 45 2.5 138t2.5 143t-22.5 82t-66.5 32q-83 0 -134 -109q-1 -120 1 -207q0 -42 2 -62q3 -37 -4.5 -54.5t-38.5 -17.5z" horiz-adv-x="647"/>
<glyph glyph-name="i" unicode="i" d="M85 677q-1 40 16.5 53t53.5 13t55 -13t20 -53t-17 -52.5t-53 -12.5q-37 0 -55.5 12.5t-19.5 52.5zM182 0h-52q-45 0 -45 61q0 8 0.5 34.5t0.5 44.5q3 135 3 345q0 3 -1 18t0.5 19t6.5 13t18 12t34 3q47 0 64.5 -13t16.5 -49q-9 -222 -6 -354q0 -52 2 -62q4 -36 -4 -54 t-38 -18z" horiz-adv-x="313"/>
<glyph glyph-name="j" unicode="j" d="M236 484q-2 -70 -1.5 -138.5t1.5 -190.5t1 -160q0 -34 -5 -58.5t-19 -48.5t-43 -36.5t-73 -12.5q-46 0 -101 13q-1 4 -1.5 10t0 21t4 27t13.5 21.5t25 9.5q7 0 17.5 -1t19.5 -1q17 0 24.5 12t7.5 44q1 81 0 147t-3 180t-2 155q0 1 -1 16t-0.5 18t3.5 14t8.5 14t16.5 7 t27 4q51 0 67 -15.5t14 -50.5zM95 677q-1 40 16.5 53t53.5 13t55 -13t20 -53t-17.5 -52.5t-53.5 -12.5q-36 0 -54.5 12.5t-19.5 52.5z" horiz-adv-x="323"/>
<glyph glyph-name="k" unicode="k" d="M318 258l8 15q53 5 87 30.5t34 69.5q-1 35 -27 58t-65 23q-62 0 -101 -60t-39 -136q0 -148 1 -177q0 -6 2 -21t1.5 -22.5t-4 -18t-14 -15t-27.5 -4.5h-50q-17 0 -27.5 6.5t-14.5 18.5t-4.5 22t-0.5 25q5 132 5 572v11q0 18 0.5 26t6 16t18 10.5t34.5 2.5q48 0 65 -20.5 t16 -55.5q0 -98 -10 -182l10 -1q15 43 63 76t115 33q79 0 130.5 -45.5t52.5 -118.5q1 -35 -12 -64t-31 -46t-36.5 -28.5t-31.5 -15.5l-13 -5q22 -50 110 -172l27 -35q-2 -4 -6 -11t-24 -18t-49 -11q-60 0 -91 46q-13 19 -33 60t-42.5 91.5t-32.5 70.5z" horiz-adv-x="643"/>
<glyph glyph-name="l" unicode="l" d="M176 -10q-53 0 -76 32t-23 96q0 22 2 155t3 228.5t0 143.5q-2 39 8.5 52t52.5 13q48 0 63.5 -18t14.5 -52q-14 -460 -12 -514q1 -25 10 -29t41 -3q23 1 26 -20l2 -33q1 -25 -20 -34q-37 -17 -92 -17z" horiz-adv-x="340"/>
<glyph glyph-name="m" unicode="m" d="M503 0h-51q-27 0 -35.5 11.5t-8.5 37.5q0 42 3.5 139.5t3.5 147.5q0 114 -82 114q-75 0 -119 -100q-3 -195 -2 -216q0 -52 1 -62q4 -36 -4 -54t-38 -18h-52q-45 0 -45 61q0 8 0.5 34.5t0.5 44.5q0 79 1.5 211t1.5 144q0 5 -1.5 18t-0.5 18.5t6 14t18.5 11.5t35.5 3 q70 0 78 -69l2 -40h6q2 13 10 29t24.5 35.5t48 32t71.5 12.5q126 0 162 -109h7q3 13 12 29t26.5 35t49.5 32t72 13q180 0 180 -223q0 -17 -3.5 -115t-2.5 -169q1 -12 0 -23.5t-5 -20.5t-18 -14t-37 -5q-81 0 -81 66q0 45 2.5 137.5t2.5 142.5q0 114 -83 114q-68 0 -108 -72 q2 -28 2 -42q0 -23 -4 -120t-3 -166q1 -26 -8.5 -38t-35.5 -12z" horiz-adv-x="952"/>
<glyph glyph-name="n" unicode="n" d="M509 -10q-81 0 -81 65q0 45 4 138t4 143t-23.5 82t-67.5 32q-82 0 -132 -106q-2 -148 -1 -210q0 -52 1 -62q4 -36 -4 -54t-38 -18h-52q-45 0 -45 61q0 8 0.5 34.5t0.5 44.5q3 135 3 355q0 5 -1.5 18t-0.5 18.5t6 14t18.5 11.5t35.5 3q70 0 78 -69q2 -7 2 -40h7 q3 12 13.5 28t29 35.5t51.5 32.5t73 13q52 0 90 -19t58 -52.5t28.5 -70.5t8.5 -81q0 -29 -3.5 -123.5t-2.5 -163.5q1 -12 0 -23t-5.5 -19t-18 -13t-36.5 -5z" horiz-adv-x="642"/>
<glyph glyph-name="o" unicode="o" d="M560 277q-2 -128 -68 -208t-189 -80q-124 0 -191 80.5t-65 208.5q2 124 67.5 203t187.5 79q124 0 192 -79.5t66 -203.5zM426 278q0 173 -123 173q-36 0 -61.5 -13.5t-38 -39t-18 -54t-5.5 -66.5q0 -180 122 -180q124 0 124 180z" horiz-adv-x="607"/>
<glyph glyph-name="p" unicode="p" d="M323 454q-48 0 -80.5 -42t-32.5 -117v-83q5 -17 16 -39t40 -47.5t64 -25.5q46 0 76.5 39.5t30.5 124.5q0 89 -32 139.5t-82 50.5zM162 -150h-41q-29 0 -39 13.5t-8 40.5q2 38 4.5 250t-0.5 327q0 5 -2 19.5t-2.5 23t4 17.5t14.5 13q20 6 49 6q71 0 60 -93h6q1 4 4.5 10 t16 22t28.5 28.5t45.5 22.5t63.5 10q90 0 149.5 -79t60.5 -220q1 -122 -55.5 -196.5t-144.5 -74.5q-65 0 -107.5 37.5t-50.5 72.5h-7q1 -39 2.5 -111t1.5 -85q1 -33 -9 -43.5t-43 -10.5z" horiz-adv-x="622"/>
<glyph glyph-name="q" unicode="q" d="M498 -152q-43 -8 -63 -8q-18 0 -26.5 9t-10 21.5t-0.5 41.5q2 51 5 170h-10q-14 -33 -52.5 -62.5t-96.5 -29.5q-95 0 -145 67t-52 184q-3 147 75.5 233t209.5 86q115 0 159 -46t44 -127q0 -449 1 -473q1 -34 -7.5 -48t-30.5 -18zM288 99q84 0 116 85q2 135 -1 200 q-2 30 -24 49.5t-59 19.5q-62 0 -99.5 -49.5t-36.5 -148.5q1 -77 28.5 -116.5t75.5 -39.5z" horiz-adv-x="609"/>
<glyph glyph-name="r" unicode="r" d="M129 560q44 0 58.5 -25t13.5 -86h7q14 52 53.5 81.5t85.5 29.5q116 0 114 -132q-1 -43 -20.5 -62.5t-60.5 -18.5q-19 0 -26.5 6t-8.5 13t-1 29q0 56 -43 56q-34 0 -59.5 -43t-30.5 -85q-5 -143 1 -251q0 -17 1.5 -33t-9.5 -27.5t-36 -11.5h-49q-18 0 -28 9.5t-12.5 19.5 t-3.5 27q-2 10 -2 71q3 303 3 320q-1 24 -1 47v10.5v10.5t0.5 9t1.5 9t3 7.5t4.5 7t6.5 5t9.5 4.5t12.5 2t16 1z" horiz-adv-x="489"/>
<glyph glyph-name="s" unicode="s" d="M425 417q-59 40 -144 40q-91 0 -91 -58q0 -21 15 -34.5t47 -22.5l77 -23q80 -23 116 -59.5t36 -95.5q0 -80 -62 -127t-174 -47q-96 0 -139 22t-44 53q-1 23 9.5 45.5t17.5 25.5q7 -5 19.5 -12t52 -19t79.5 -12q45 0 75 15t30 48q0 42 -83 67l-74 23q-73 23 -103.5 58.5 t-30.5 91.5q0 76 58 120t160 44q66 0 109 -11.5t57.5 -24.5t16.5 -27q3 -19 -8 -45t-22 -35z" horiz-adv-x="539"/>
<glyph glyph-name="t" unicode="t" d="M34 466q1 8 0 25t-1 23q0 19 24 23q90 5 98 94q3 27 30 27q3 0 11.5 0.5t13.5 0t12.5 -1t12.5 -2.5t9.5 -5.5t6.5 -9t1 -13.5q-1 -24 -1 -77q47 -4 130 0q28 1 28 -21q0 -9 -0.5 -30t-0.5 -32q0 -21 -22 -21h-29.5h-35.5h-33.5h-26.5h-12q-6 -123 -4 -286q0 -37 11 -50 t39 -13q11 0 65 12q29 9 33 -17l6 -38q3 -27 -17 -38q-46 -26 -127 -26q-78 0 -113 38.5t-34 120.5q0 34 2.5 159t2.5 136h-53q-14 0 -20 4.5t-6 17.5z" horiz-adv-x="451"/>
<glyph glyph-name="u" unicode="u" d="M133 560q81 0 81 -65q0 -45 -4 -138t-4 -143q0 -51 22 -82.5t66 -31.5q80 0 127 103q3 183 2 213q0 11 -0.5 25.5t-1 23.5t-0.5 13q-4 36 4 54t39 18h51q45 0 45 -61q0 -8 -0.5 -34.5t-0.5 -44.5q-4 -266 -2 -355q0 -4 1.5 -18t0 -19t-6.5 -13.5t-18.5 -11.5t-35.5 -3 q-70 0 -78 69q-2 7 -2 40h-7q-3 -12 -13 -28.5t-28.5 -35.5t-50.5 -32t-71 -13q-42 0 -74.5 13t-52.5 34t-32.5 51t-17 60t-4.5 65q0 16 3.5 116t2.5 171q-1 12 0 23t5.5 19t18 13t36.5 5z" horiz-adv-x="634"/>
<glyph glyph-name="v" unicode="v" d="M400 66l-4 -10q-3 -10 -4 -12t-5 -10.5t-7 -11t-8.5 -8.5t-11.5 -8t-14 -4t-18 -2h-80q-49 0 -69 58q-47 122 -146 431q-4 14 -5.5 22t-0.5 18.5t9 15.5t23 5h48q15 0 25 -3t16 -12t7.5 -12.5t6.5 -18.5q3 -12 32 -104.5t56 -183.5t35 -130h7q30 129 121 417 q5 18 8.5 25.5t14.5 14.5t29 7h65q38 0 20 -59q-18 -57 -69.5 -205t-80.5 -220z" horiz-adv-x="582"/>
<glyph glyph-name="w" unicode="w" d="M556 43q-2 7 -45 187t-52 227h-6q-23 -127 -98 -415q-8 -42 -60 -42h-75q-53 0 -69 58l-123 430q-10 22 -6.5 42t32.5 20h47q43 0 56 -47q32 -112 103 -415h5q11 51 50 220t46 195q6 25 16.5 36t37.5 11h86q40 0 53 -47q16 -77 95 -414h5q36 152 102 414q5 25 15 36 t38 11h59q22 0 25.5 -20.5t-4.5 -38.5l-127 -424q-4 -14 -7.5 -23t-11.5 -20.5t-21.5 -17.5t-32.5 -6h-72q-53 0 -61 43z" horiz-adv-x="920"/>
<glyph glyph-name="x" unicode="x" d="M547 502q-1 -1 -63.5 -92.5t-88.5 -133.5q19 -34 55 -88t65.5 -98t30.5 -46q9 -10 4.5 -27t-25.5 -17h-71q-37 0 -50 30q-9 19 -52.5 88.5t-52.5 87.5h-6q-9 -18 -52 -87t-53 -93q-11 -26 -54 -26h-65q-18 0 -26.5 14t-0.5 29q4 8 35.5 51t70.5 98t57 84 q-24 42 -87 130.5t-68 95.5q-6 10 -8.5 20t3.5 19t22 9h67q41 0 54 -35q7 -17 51.5 -86t53.5 -86h5q10 17 50 81t56 95t54 31h66q21 0 27.5 -16.5t-4.5 -31.5z" horiz-adv-x="592"/>
<glyph glyph-name="y" unicode="y" d="M535 491q-11 -43 -67 -226.5t-67 -220.5q-14 -48 -29.5 -81t-40 -63t-60.5 -45t-84 -15q-74 0 -112 18q-16 7 -21 14.5t-1 22.5l7 47q6 29 38 18q34 -14 81 -14q37 0 57 24t36 81h-34q-28 0 -40 11t-21 35q-11 30 -76.5 200.5t-73.5 191.5q-11 21 -7 41t34 20h45 q17 0 28 -3t17.5 -12t8 -13t6.5 -18q6 -21 61 -177t69 -202h6l99 378q4 25 14.5 36t40.5 11h56q28 0 33.5 -16.5t-3.5 -42.5z" horiz-adv-x="566"/>
<glyph glyph-name="z" unicode="z" d="M397 0h-317q-40 0 -40 44v48q22 28 130.5 176t123.5 172q-19 1 -60 0t-96.5 -2t-60.5 -1q-16 0 -23 7t-7 28v48q0 30 32 30h326q27 0 37.5 -11t11.5 -37l1 -37q-29 -37 -133 -175.5t-128 -174.5q178 0 210 4q17 2 29 -7t12 -37v-32q0 -7 -1 -12.5t-1.5 -10t-3 -7.5 t-4 -5.5t-5.5 -4t-5.5 -2t-6.5 -1t-6.5 -0.5h-7.5h-7z" horiz-adv-x="502"/>
<glyph glyph-name="braceleft" unicode="{" d="M270 159q0 -25 -8.5 -70.5t-8.5 -58.5q0 -63 49 -63q17 0 53 6q30 4 33 -24l5 -43q3 -18 -8 -29q-18 -17 -93 -17q-173 0 -173 166q0 24 12.5 75t12.5 69q0 41 -53 51q-24 5 -33 12t-9 27v52q0 19 8.5 25.5t33.5 11.5q53 10 53 52q0 13 -12.5 67t-12.5 80q0 162 172 162 q68 0 89 -14q16 -10 13 -32l-5 -43q-3 -28 -33 -24q-32 5 -53 5q-49 0 -49 -62q0 -14 8.5 -59t8.5 -70q0 -34 -10.5 -59.5t-26 -37t-30.5 -18.5t-25 -8h-11v-7q4 0 11 -0.5t25 -7.5t31.5 -18.5t24.5 -36.5t11 -59z" horiz-adv-x="408"/>
<glyph glyph-name="bar" unicode="|" d="M88 680q0 24 7 32t25 8h23q18 0 27 -8.5t9 -31.5q-1 -46 -3 -388t-1 -387q0 -20 -6.5 -27.5t-23.5 -7.5h-33q-15 0 -20 8t-4 28q1 25 1 149v253t-1 250v122z" horiz-adv-x="265"/>
<glyph glyph-name="braceright" unicode="}" d="M138 159q0 34 10.5 59t26 36.5t30.5 18.5t25 7l11 1v7q-4 0 -11 0.5t-25 7.5t-31.5 18.5t-24.5 37t-11 59.5q0 26 9 70.5t9 58.5q0 62 -49 62q-21 0 -54 -5q-30 -5 -32 24l-6 43q-1 22 13 32q21 14 89 14q172 0 172 -162q0 -26 -12 -80t-12 -67q0 -42 53 -52 q17 -4 23.5 -6.5t12 -10t5.5 -20.5v-52q0 -19 -9 -26.5t-32 -12.5q-53 -10 -53 -51q0 -18 12 -69t12 -75q0 -166 -172 -166q-76 0 -93 17q-11 9 -9 29l6 43q1 28 32 24q36 -6 53 -6q50 0 50 63q0 13 -9 58.5t-9 70.5z" horiz-adv-x="409"/>
<glyph glyph-name="copyright" unicode="©" d="M331 426h4q13 -4 13 -25v-73q18 -92 108 -167q73 -40 125 -40h21q38 0 87 40h13l4 -12q-12 -38 -43.5 -77t-75.5 -66l-3 2q-60 -16 -115.5 9.5t-92.5 75t-58.5 108.5t-21.5 111q6 114 35 114zM831 483l-4 32h4q46 -23 65 -81v-29q0 -65 -147 -85h-56q-100 0 -246 89 l-13 21v8l13 12q113 -57 203 -57h26q155 12 155 90zM274 470l5 -4v-4q-138 -128 -138 -231v-41q0 -52 60 -85v-9l-30 -8q-52 9 -73.5 29.5t-21.5 56.5v36q0 97 155 240q28 20 43 20zM650 668l17 2q87 -16 87 -57q0 -75 -225 -110q-21 0 -26 12q0 9 65 20q90 30 121 78v20 q-17 24 -30 24zM214 523l60 12h5l8 -8q-4 -7 -95 -36q-108 -61 -125 -143h-4q-7 0 -13 21q0 73 164 154zM473 686l39 8q60 -4 60 -41q-18 -51 -69 -81h-17v8q39 40 39 61v8q0 29 -35 29h-17v8zM287 605q61 -9 61 -25v-8l-52 8h-13q-70 0 -125 -49h-4q53 74 133 74zM305 645 l73 21q49 0 60 -53l-8 -21h-17q0 38 -44 53h-25l-39 -8v8z" horiz-adv-x="946"/>
</font>
</defs>
</svg>
