<svg id="Layer_1" data-name="Layer 1" xmlns="http://www.w3.org/2000/svg" viewBox="0 0 50 50"><defs><style>.cls-1{fill:#53575a;}</style></defs><path class="cls-1" d="M27,33.68c-.47,0-1,0-1.46,0H25.2c-.51,0-1,0-1.47,0-.61.54-1.26,1.09-1.95,1.63-1,.75-1.9,1.43-2.78,2a21.18,21.18,0,0,0,6.38.66,21.25,21.25,0,0,0,6.39-.66c-.88-.59-1.83-1.27-2.78-2C28.3,34.77,27.64,34.22,27,33.68Z"/><path class="cls-1" d="M12.49,33.84a40.8,40.8,0,0,0,3.87-2.47,17.89,17.89,0,0,1-3.15-2.86,7.66,7.66,0,0,1-1.79-8,8.3,8.3,0,0,1,3.63-4.32,4.6,4.6,0,0,1,.59-.29,5,5,0,0,1,1.26-.36l.5-.06a19.46,19.46,0,0,1,2.06-.13H20l.26,0h.13l.25,0h.11l.26,0h.08l.25,0h0a9,9,0,0,1,2-2.81,10.69,10.69,0,0,1,1-.8h0a9.62,9.62,0,0,0-1.72-.54l-.07,0-.44-.09H22l-.42-.07-.15,0-.4,0-.18,0-.39,0H18.57l-.43,0-.29,0-.5,0-.25,0-.78.09a8.85,8.85,0,0,0-1.76.42,8.51,8.51,0,0,0-.83.34,12.43,12.43,0,0,0-6.37,7A12,12,0,0,0,10,31.39,24,24,0,0,0,12.49,33.84Z"/><path class="cls-1" d="M37.4,34.54h0l0,0Z"/><path class="cls-1" d="M38.92,35.37l-.33-.18h0L38.23,35h0l-.36-.2,0,0-.36-.2s0,0,0,0v0c-1-.65-2.56-1.5-4-2.53h0s0-.05-.05-.06l-.27-.21-.07-.06-.34-.26,0,0-.3-.24-.08-.06L32,30.87l0,0-.35-.28,0,0-.31-.27-.05,0c-.23-.19-.46-.4-.69-.6h0l-.34-.32h0c-.53-.49-1-1-1.5-1.53h0a21.21,21.21,0,0,1-2.59,3.56h0l.31.32.07.07.29.29.11.1.26.25.15.15.24.21.19.18.22.19.22.19.2.18c.41.35.84.7,1.28,1,1.21,1,2.41,1.78,3.47,2.47l.29.18.09.06.35.22,0,0,.3.19.1.06.25.15.07,0,.31.19.05,0,.25.15.07,0,.23.13,0,0,.26.14,0,0,.2.11,0,0,.19.1h0l.19.1h0l.15.08h0l.25.12.1,0a2,2,0,0,0,1,.23,2.16,2.16,0,0,0,1-4.09Z"/><path class="cls-1" d="M13.36,34.54Z"/><path class="cls-1" d="M22.41,33.46l.21-.19.22-.19.22-.19.19-.18.23-.21.16-.15.26-.24L24,32l.28-.28.08-.07.31-.32h0l0,0c.1-.11.21-.22.31-.34h0v0l.33-.36A18.57,18.57,0,0,0,28,26.91h0c.08-.16.17-.32.25-.49l0-.09h0c.07-.15.14-.29.2-.44l.06-.14v0c.08-.19.15-.38.22-.57l0-.05.18-.54v0l.15-.55s0-.06,0-.09.08-.34.11-.51v0c0-.18.06-.35.08-.53s0-.08,0-.12,0-.35,0-.52h0c0-.22,0-.43,0-.64a.81.81,0,0,0,0-.16c0-.2,0-.4,0-.6v-.08c0-.17,0-.34,0-.5a1.27,1.27,0,0,0,0-.2,3.44,3.44,0,0,0,0-.46,2.45,2.45,0,0,0,0-.27c0-.1,0-.21,0-.31a2.51,2.51,0,0,0,0-.27l0-.23c0-.17-.06-.34-.1-.5l0-.14a10.32,10.32,0,0,0-.29-1v0l0,0h0a2.87,2.87,0,0,0-1.1.63,16.12,16.12,0,0,0-1.5,3l-.25.56v0l-.31.71c-.34.78-.62,1.39-.88,1.88a11.54,11.54,0,0,1-2,3.46h0l-.35.43c-.12.14-.24.28-.37.41a19.49,19.49,0,0,1-1.49,1.53h0l-.34.31h0c-.22.21-.45.41-.69.61l0,0-.32.27,0,0-.35.29,0,0-.3.23-.08.07-.3.23,0,0-.33.25-.09.07-.25.21s0,.07-.06.07h0a37.57,37.57,0,0,1-3.93,2.54v0s0,0,0,0l-.41.22h0l-.39.21h0l-.36.19h0l-.34.18-.19.1a2.72,2.72,0,0,0-.32.25,2.16,2.16,0,0,0,1.48,3.74,2.09,2.09,0,0,0,1-.23h0l.07,0h0l.23-.12h0l.14-.08h0l.18-.1h0l.17-.1.07,0a1,1,0,0,1,.17-.1l.06,0,.24-.14.07,0,.19-.11.1-.06.21-.12.08,0,.29-.17.11-.06.21-.13.13-.08.25-.15.08-.06.34-.21.12-.08.24-.15c1.08-.69,2.28-1.53,3.5-2.48C21.58,34.15,22,33.8,22.41,33.46Z"/><path class="cls-1" d="M43.4,19c-1.51-4.11-5.11-7.23-8.95-7.75l-.78-.09-.25,0-.5,0-.29,0-.44,0H30.34L30,11l-.19,0-.38,0-.17,0-.4.06-.13,0-.43.08-.09,0c-.16,0-.32.07-.48.12h0a11.67,11.67,0,0,0-1.22.42l-.55.26-.12.06-.39.22h0a8.87,8.87,0,0,0-1.34,1,7.88,7.88,0,0,0-1.69,2.33h0a4,4,0,0,0-.21.47c-.07.16-.13.32-.19.49v.07c-.11.34-.21.68-.29,1l0,.14c0,.16-.07.33-.1.5s0,.15,0,.23l0,.27c0,.1,0,.21,0,.31l0,.27a.53.53,0,0,1,0,.13c0,.11,0,.21,0,.32a1.48,1.48,0,0,1,0,.21,2.71,2.71,0,0,1,0,.29v.29c0,.2,0,.4,0,.6v.16c0,.21.09.42.11.64h.07c0,.08-.06.16-.05.24s0,.18,0,.28a.48.48,0,0,1,0,.12c0,.18,0,.35.08.53v0c0,.17.07.34.11.51a.3.3,0,0,0,0,.1,2.5,2.5,0,0,0,.07.26c0,.1.05.19.08.29v0c0,.12.08.25.12.38a.75.75,0,0,1,0,.16l0,.05.22.57v0l.06.13h0c.2-.26.38-.53.55-.8s.23-.38.33-.56A7.75,7.75,0,0,0,23.81,23c.24-.46.51-1,.79-1.67l.41-.93.1-.24c0-.09.08-.17.11-.26l.22-.49A11.65,11.65,0,0,1,27,16.55a4,4,0,0,1,1.42-.83h0a4.13,4.13,0,0,1,.5-.15l.08,0,.37-.08h.07l.25,0h.09l.26,0h.11l.25,0h.13l.25,0h.52a19.83,19.83,0,0,1,2.32.16l.24,0a6.28,6.28,0,0,1,3.38,1.78c.07.07.14.13.2.2s.23.24.34.37a4.16,4.16,0,0,1,.32.39,3.91,3.91,0,0,1,.3.41l.15.21c.09.15.18.29.26.44a8.82,8.82,0,0,1,.54,1.17,7.66,7.66,0,0,1-1.79,8.05c-.35.39-.7.76-1.05,1.1l-.53.5a14,14,0,0,1-1.58,1.27,45.27,45.27,0,0,0,3.88,2.47c.26-.23.53-.46.79-.71s.39-.36.58-.56c.38-.37.76-.77,1.13-1.19A12,12,0,0,0,43.4,19Z"/></svg>