<?xml version="1.0" encoding="utf-8"?>
<!-- Generator: Adobe Illustrator 24.2.0, SVG Export Plug-In . SVG Version: 6.00 Build 0)  -->
<svg version="1.1" id="Layer_1" xmlns="http://www.w3.org/2000/svg" xmlns:xlink="http://www.w3.org/1999/xlink" x="0px" y="0px"
	 viewBox="0 0 50 50" style="enable-background:new 0 0 50 50;" xml:space="preserve">
<style type="text/css">
	.st0{fill-rule:evenodd;clip-rule:evenodd;fill:#0E3F96;}
</style>
<path class="st0" d="M18.2,15.6l-7-7c-0.7-0.7-1.9-0.7-2.6,0C8.3,9,8.1,9.4,8.1,9.9c0,0.5,0.2,0.9,0.5,1.3l7,7
	c0.7,0.7,1.9,0.7,2.6,0C18.9,17.5,18.9,16.3,18.2,15.6z M24,28c0-0.2-0.2-0.3-0.3-0.5c-0.2-0.2-0.3-0.4-0.6-0.6
	c-0.3-0.3-0.5-0.4-0.7-0.6c-0.2-0.1-0.4-0.2-0.5-0.3c-0.2-0.1-0.3-0.1-0.5,0c-0.1,0-0.3,0.1-0.4,0.2c-0.1,0.1-0.2,0.2-0.2,0.4
	c0,0.1,0,0.3,0,0.4c0,0.2,0.1,0.3,0.3,0.5c0.1,0.2,0.3,0.4,0.6,0.7c0.3,0.3,0.5,0.5,0.7,0.6c0.2,0.1,0.4,0.3,0.6,0.3
	c0.2,0,0.3,0,0.4,0c0.1,0,0.2-0.1,0.4-0.2c0.1-0.1,0.2-0.3,0.2-0.4C24.1,28.4,24.1,28.2,24,28z M24,28c0-0.2-0.2-0.3-0.3-0.5
	c-0.2-0.2-0.3-0.4-0.6-0.6c-0.3-0.3-0.5-0.4-0.7-0.6c-0.2-0.1-0.4-0.2-0.5-0.3c-0.2-0.1-0.3-0.1-0.5,0c-0.1,0-0.3,0.1-0.4,0.2
	c-0.1,0.1-0.2,0.2-0.2,0.4c0,0.1,0,0.3,0,0.4c0,0.2,0.1,0.3,0.3,0.5c0.1,0.2,0.3,0.4,0.6,0.7c0.3,0.3,0.5,0.5,0.7,0.6
	c0.2,0.1,0.4,0.3,0.6,0.3c0.2,0,0.3,0,0.4,0c0.1,0,0.2-0.1,0.4-0.2c0.1-0.1,0.2-0.3,0.2-0.4C24.1,28.4,24.1,28.2,24,28z M41,23.7
	L28.6,11.3C23.8,6.5,18,6.7,13.8,9.2l3.1,3.1c0.4,0,0.8,0,1.2,0.2c2.4,0.6,3.9,3.1,3.2,5.5c-0.6,2.4-3.1,3.9-5.6,3.2
	c-2-0.5-3.4-2.4-3.4-4.4l-3.1-3.1c-2.6,4.3-2.7,10,2.1,14.8L23.7,41c2.1,2.1,5.5,2.1,7.6,0l9.6-9.6C43.1,29.2,43,25.8,41,23.7z
	 M25.5,28.8c-0.1,0.4-0.4,0.7-0.8,1.1c-0.4,0.4-0.8,0.6-1.1,0.8c-0.4,0.2-0.7,0.2-1.1,0.2c-0.4,0-0.7-0.2-1.1-0.4
	c-0.3-0.2-0.7-0.5-1-0.8c-0.3-0.3-0.6-0.7-0.8-1c-0.2-0.4-0.3-0.7-0.4-1.1c0-0.4,0-0.7,0.1-1.1c0.2-0.4,0.4-0.7,0.8-1.1
	c0.4-0.4,0.8-0.7,1.2-0.8c0.4-0.1,0.7-0.2,1.1-0.1c0.4,0.1,0.7,0.2,1,0.4c0.3,0.2,0.6,0.5,1,0.8c0.3,0.4,0.6,0.7,0.8,1.1
	c0.2,0.4,0.3,0.7,0.4,1.1C25.7,28,25.7,28.4,25.5,28.8z M29.1,34.4c0,0.1-0.1,0.2-0.2,0.3c-0.1,0.1-0.2,0.2-0.3,0.3
	c-0.1,0.2-0.3,0.3-0.4,0.3c-0.1,0.1-0.2,0.1-0.3,0.1c-0.1,0-0.1,0-0.2-0.1c0-0.1-0.1-0.1-0.1-0.3l-2.3-14.8c0-0.1,0-0.2,0-0.3
	c0-0.1,0-0.2,0.1-0.2c0-0.1,0.1-0.2,0.2-0.3c0.1-0.1,0.2-0.2,0.3-0.3c0.1-0.1,0.3-0.3,0.4-0.3c0.1-0.1,0.2-0.1,0.3-0.1
	c0.1,0,0.1,0,0.2,0.1c0,0.1,0.1,0.1,0.1,0.3l2.3,14.8c0,0.1,0,0.2,0,0.3C29.2,34.2,29.2,34.3,29.1,34.4z M35.2,27.9
	c-0.1,0.4-0.4,0.7-0.8,1.1c-0.4,0.4-0.8,0.7-1.1,0.8c-0.4,0.1-0.7,0.2-1.1,0.2c-0.4,0-0.7-0.2-1.1-0.4c-0.3-0.2-0.7-0.5-1-0.8
	c-0.3-0.3-0.6-0.7-0.8-1c-0.2-0.4-0.3-0.7-0.4-1.1c0-0.4,0-0.8,0.2-1.1c0.1-0.4,0.4-0.8,0.8-1.1c0.4-0.4,0.8-0.7,1.2-0.8
	s0.7-0.2,1.1-0.1c0.4,0.1,0.7,0.2,1,0.4c0.3,0.2,0.6,0.5,0.9,0.8c0.4,0.4,0.6,0.7,0.8,1.1c0.2,0.4,0.3,0.7,0.4,1.1
	C35.4,27.2,35.3,27.5,35.2,27.9z M33.4,26.6c-0.2-0.2-0.3-0.4-0.6-0.6c-0.3-0.2-0.5-0.4-0.7-0.6c-0.2-0.1-0.4-0.2-0.6-0.3
	c-0.2-0.1-0.3-0.1-0.4,0c-0.1,0-0.3,0.1-0.4,0.2c-0.1,0.1-0.2,0.2-0.2,0.4c0,0.1,0,0.3,0,0.4c0,0.2,0.1,0.3,0.3,0.5
	c0.1,0.2,0.3,0.4,0.6,0.7c0.3,0.3,0.5,0.5,0.7,0.6c0.2,0.1,0.4,0.2,0.6,0.3c0.2,0,0.3,0,0.4,0c0.1,0,0.2-0.1,0.3-0.2
	c0.1-0.1,0.2-0.3,0.3-0.4c0-0.1,0-0.3,0-0.4C33.6,27,33.5,26.8,33.4,26.6z M23.7,27.5c-0.2-0.2-0.3-0.4-0.6-0.6
	c-0.3-0.3-0.5-0.4-0.7-0.6c-0.2-0.1-0.4-0.2-0.5-0.3c-0.2-0.1-0.3-0.1-0.5,0c-0.1,0-0.3,0.1-0.4,0.2c-0.1,0.1-0.2,0.2-0.2,0.4
	c0,0.1,0,0.3,0,0.4c0,0.2,0.1,0.3,0.3,0.5c0.1,0.2,0.3,0.4,0.6,0.7c0.3,0.3,0.5,0.5,0.7,0.6c0.2,0.1,0.4,0.3,0.6,0.3
	c0.2,0,0.3,0,0.4,0c0.1,0,0.2-0.1,0.4-0.2c0.1-0.1,0.2-0.3,0.2-0.4c0-0.1,0-0.3,0-0.4C24,27.9,23.9,27.7,23.7,27.5z"/>
</svg>
