<svg id="Layer_1" data-name="Layer 1" xmlns="http://www.w3.org/2000/svg" viewBox="0 0 50 50"><defs><style>.cls-1{fill:#53575a;}</style></defs><path class="cls-1" d="M14.72,10.35a.25.25,0,0,0-.3-.1.28.28,0,0,0-.16.29c0,.1.46,2.58-1.8,5.7a3.44,3.44,0,0,0-.72,2.64,4.31,4.31,0,0,0,1.69,2.54.3.3,0,0,0,.15,0,.23.23,0,0,0,.11,0,.26.26,0,0,0,.14-.22c0-1.59.22-2.59,1.68-4.9S14.82,10.49,14.72,10.35Z"/><path class="cls-1" d="M23.81,7.74a.26.26,0,0,0-.45.19s.72,2.18-2.36,6.63c-2.49,3.59,1,6.6,1,6.63a.27.27,0,0,0,.17.06.18.18,0,0,0,.1,0,.25.25,0,0,0,.15-.23c.05-2,.56-3.6,2.11-6.66A6.39,6.39,0,0,0,23.81,7.74Z"/><path class="cls-1" d="M46.43,38.63,37.59,23.32a7.48,7.48,0,0,0-.05-7,7.58,7.58,0,0,0-5.89-3.58,3.54,3.54,0,0,0-1.81.46c-2.44,1.41-2.56,5.78-1.15,8.22A7.58,7.58,0,0,0,34.58,25h.18l8.83,15.31a1.67,1.67,0,0,0,1.42.82,1.64,1.64,0,0,0,1.42-2.45Z"/><path class="cls-1" d="M33.63,26.44a8.94,8.94,0,0,1-5-2.44H4.74a.66.66,0,0,0-.68.72,17.58,17.58,0,0,0,12.1,16.47c.28.1,11.62.1,11.89,0a18.12,18.12,0,0,0,9.59-7.81Zm-15.84,12A.9.9,0,0,1,17,39a.81.81,0,0,1-.31-.06,15.6,15.6,0,0,1-10-11.8.92.92,0,0,1,.15-.67.9.9,0,0,1,.58-.37h.16a.88.88,0,0,1,.88.74,13.8,13.8,0,0,0,8.89,10.43A.9.9,0,0,1,17.79,38.4Z"/></svg>