<?xml version="1.0" encoding="utf-8"?>
<!-- Generator: Adobe Illustrator 24.2.0, SVG Export Plug-In . SVG Version: 6.00 Build 0)  -->
<svg version="1.1" id="Layer_1" xmlns="http://www.w3.org/2000/svg" xmlns:xlink="http://www.w3.org/1999/xlink" x="0px" y="0px"
	 viewBox="0 0 50 50" style="enable-background:new 0 0 50 50;" xml:space="preserve">
<style type="text/css">
	.st0{fill:#53575A;}
</style>
<g>
	<path class="st0" d="M33.8,23.5l-1,0c-0.2,0-0.4-0.2-0.4-0.4c-0.1-0.7-0.2-1.3-0.4-1.9c0,0,0,0.1,0,0.1c-0.2,0.4-0.4,0.8-0.7,1.2
		c-0.5,0.7-1.2,0.8-1.6,0.8c-0.4,0-1-0.1-1.6-0.8c-0.3-0.4-0.5-0.8-0.7-1.2c-0.1-0.3-0.4-0.9-0.6-0.9c0,0,0,0,0,0
		c-0.4,0-0.5,0.1-0.8,0.4c-0.4,0.3-1,0.8-2.1,0.8c-1.1,0-1.6-0.5-2-0.8c-0.3-0.3-0.5-0.4-0.9-0.4s-0.5,0.1-0.8,0.4
		c-0.4,0.3-1,0.8-2,0.8c-1.1,0-1.6-0.5-2.1-0.8c0,0-0.1-0.1-0.1-0.1c-0.3,0.8-0.5,1.6-0.6,2.5c0,0.2-0.2,0.4-0.4,0.4h-1
		c-0.3,0-0.5-0.2-0.4-0.5c0.2-2.5,1.3-4.8,3-6.6c1.5-1.5,3.5-2.5,5.5-2.9c-0.4-0.4-0.6-1-0.6-1.7c0-1.3,1-2.4,2.2-2.5
		c-0.2-1.7-0.1-3.4,0.2-5C23.8,3.6,24.1,3,24.1,3h1.1c0.1,0-0.1,0.6-0.3,1.4c-0.5,1.6-0.8,3.3-0.8,5c1.2,0.2,2.1,1.2,2.1,2.5
		c0,0.6-0.2,1.2-0.6,1.7c2.1,0.4,4,1.4,5.5,2.9c1.8,1.8,2.9,4.1,3,6.6C34.2,23.3,34,23.5,33.8,23.5z"/>
	<path class="st0" d="M39.1,12.9l-2.8,8.6c-0.1,0.3-0.6,0.3-0.7-0.1c-0.3-1.6-0.7-2.7-1.1-3.4c0-0.1,0-0.2,0-0.3
		c0.3-0.9,1.9-5.8,1.9-5.8c0.1-0.2,0.3-0.3,0.5-0.3l1.8,0.6C39,12.5,39.1,12.7,39.1,12.9z"/>
	<path class="st0" d="M35.2,24.9H12.4c-0.8,0-1.4,0.6-1.4,1.3l0,0.9c0,0.3,0.1,0.6,0.4,0.9c0.4,0.4,0.8,0.8,0.9,1.3
		c1,4.5,5.1,8,9.6,9c0.4,0.1,0.6,0.4,0.6,0.8c0,1,0,2.7,0,3.6c0,0.3-0.2,0.6-0.6,0.7c-1.7,0.6-3.5,1.7-3.9,3.2c0,0.1,0,0.2,0,0.2
		c0,0.1,0.1,0.1,0.2,0.1h11.2c0.1,0,0.2,0,0.2-0.1c0-0.1,0.1-0.1,0-0.2c-0.5-1.5-2.2-2.6-4-3.2c-0.3-0.1-0.6-0.4-0.6-0.7v-3.6
		c0-0.4,0.3-0.7,0.6-0.8c4.5-1,8.6-4.5,9.7-8.9c0.1-0.5,0.5-1,0.9-1.3c0.2-0.2,0.4-0.5,0.4-0.9v-0.9C36.6,25.5,36,24.9,35.2,24.9z"
		/>
</g>
</svg>
