<svg id="Layer_1" data-name="Layer 1" xmlns="http://www.w3.org/2000/svg" viewBox="0 0 50 50"><defs><style>.cls-1{fill:#0e3f96;}</style></defs><path class="cls-1" d="M30.75,11.48H29.14L30.3,3.56a.92.92,0,0,0-.79-1,.94.94,0,0,0-1,.8l-1.19,8.15H16.73a1.16,1.16,0,0,0-1.16,1.16V44.69a1.16,1.16,0,0,0,1.16,1.16h14a1.16,1.16,0,0,0,1.16-1.16v-32A1.16,1.16,0,0,0,30.75,11.48Zm-.62,1.78v13.3H27.21l1.7-13.3ZM27.49,30.87a.93.93,0,0,1,1,.87l.2,3.37a.93.93,0,0,1-.86,1l-3.38.21a.93.93,0,0,1-1-.87l-.2-3.37a.93.93,0,0,1,.86-1Zm-.44-17.61-1.7,13.3H24.14l.36,1a.92.92,0,0,1-.56,1.18L20.76,29.9a.94.94,0,0,1-1.19-.56l-1-2.78H17.34V13.26ZM23.37,24.4l.77,2.16H18.58l-.14-.4A.92.92,0,0,1,19,25l3.18-1.14A.94.94,0,0,1,23.37,24.4Z"/></svg>