<?xml version="1.0" standalone="no"?>
<!DOCTYPE svg PUBLIC "-//W3C//DTD SVG 20010904//EN"
 "http://www.w3.org/TR/2001/REC-SVG-20010904/DTD/svg10.dtd">
<svg version="1.0" xmlns="http://www.w3.org/2000/svg"
 width="16.000000pt" height="16.000000pt" viewBox="0 0 16.000000 16.000000"
 preserveAspectRatio="xMidYMid meet">
<metadata>
Created by potrace 1.11, written by Peter Selinger 2001-2013
</metadata>
<g transform="translate(0.000000,16.000000) scale(0.006154,-0.006154)"
fill="#000000" stroke="none">
<path d="M1170 2505 c-111 -15 -194 -36 -291 -72 -84 -31 -83 -42 0 -19 166
47 447 61 593 31 234 -49 429 -156 595 -328 107 -110 159 -186 224 -321 152
-320 152 -703 0 -1022 -63 -132 -116 -209 -215 -312 -222 -232 -463 -343 -775
-359 -82 -4 -108 -9 -95 -16 24 -14 252 -2 350 18 486 100 876 496 958 974 20
115 21 337 2 441 -77 427 -398 793 -822 936 -164 55 -353 72 -524 49z"/>
<path d="M1000 2364 c-435 -79 -785 -400 -897 -822 -31 -118 -42 -331 -23
-451 38 -240 172 -490 346 -650 71 -65 224 -174 233 -166 2 3 -6 13 -20 23
-210 146 -379 408 -436 672 -13 64 -18 125 -17 245 1 138 5 173 27 257 114
432 447 738 889 821 164 31 401 15 549 -37 38 -13 69 -20 69 -16 0 10 -148 73
-220 94 -158 46 -351 57 -500 30z"/>
<path d="M610 1943 c-19 -10 -41 -31 -49 -47 -12 -26 -12 -33 2 -55 24 -38 35
-63 41 -93 4 -17 13 -28 22 -28 13 0 15 7 11 35 -7 44 7 46 19 3 9 -31 12 -33
49 -30 22 2 42 6 44 8 2 2 -2 24 -8 49 -8 31 -8 51 -1 65 16 30 12 55 -13 78
-33 31 -75 36 -117 15z m35 -68 c0 -13 -8 -21 -24 -23 -32 -5 -48 12 -31 33
18 22 55 15 55 -10z"/>
<path d="M1657 1939 c-93 -12 -271 -56 -527 -128 -259 -74 -388 -101 -479
-102 -77 -1 -136 19 -146 50 -3 12 -10 21 -14 21 -5 0 -25 -33 -45 -73 -40
-81 -71 -208 -75 -302 -2 -56 1 -64 40 -120 99 -142 246 -279 424 -397 114
-76 164 -101 270 -137 l85 -28 -58 -16 c-31 -9 -97 -22 -145 -29 l-89 -12 -81
41 c-107 55 -213 127 -311 209 -85 73 -88 70 -39 -33 30 -65 102 -146 160
-180 104 -61 258 -78 418 -48 98 19 267 62 474 120 318 89 458 113 546 95 38
-8 61 -19 75 -37 11 -14 22 -24 24 -22 2 2 15 34 30 70 56 142 88 367 60 421
-37 72 -170 213 -291 309 -123 97 -359 229 -442 245 -17 4 -31 10 -31 14 0 12
237 43 293 38 40 -3 71 -16 132 -53 92 -56 183 -122 238 -174 57 -54 49 -19
-21 87 -86 132 -272 199 -475 171z m-353 -405 c9 -3 16 -17 16 -29 0 -22 -2
-22 -30 -12 -22 8 -35 9 -48 1 -29 -19 -19 -38 32 -64 60 -31 80 -59 71 -99
-11 -51 -49 -72 -119 -69 l-61 3 -3 35 c-3 33 -3 34 15 18 27 -23 59 -31 83
-18 36 19 24 47 -30 75 -58 30 -77 59 -63 102 14 44 89 75 137 57z m-514 -8
c0 -24 -15 -31 -55 -28 l-45 4 0 -46 c0 -44 1 -46 30 -46 20 0 30 -5 30 -15 0
-10 -10 -15 -30 -15 l-30 0 0 -60 0 -60 -35 0 -35 0 0 135 0 135 85 0 c47 0
85 -2 85 -4z m189 -11 c49 -25 56 -81 16 -121 l-25 -25 35 -52 35 -52 -31 -3
c-36 -4 -60 15 -91 70 -12 21 -26 38 -31 38 -5 0 -7 -25 -5 -55 l3 -55 -32 0
-33 0 0 135 0 135 65 0 c38 0 78 -6 94 -15z m151 -120 l0 -135 -35 0 -35 0 0
135 0 135 35 0 35 0 0 -135z m310 0 l0 -135 -35 0 -35 0 0 135 0 135 35 0 35
0 0 -135z m215 28 c21 -60 44 -120 52 -135 l14 -28 -39 0 c-34 0 -39 3 -51 35
-9 26 -18 35 -34 35 -44 0 -66 -12 -76 -41 -7 -22 -16 -29 -35 -29 -15 0 -26
3 -26 7 0 18 84 230 98 246 8 9 25 17 37 17 19 0 28 -15 60 -107z m157 95 c9
-7 33 -46 53 -85 20 -40 40 -73 43 -73 4 0 6 38 4 85 -3 84 -3 85 20 85 43 0
48 -16 48 -147 l0 -123 -33 0 c-40 0 -50 11 -103 105 -36 65 -39 68 -42 41 -2
-16 -2 -55 0 -88 l3 -58 -32 0 -33 0 0 135 0 135 28 0 c16 0 35 -6 44 -12z
m-128 -324 c9 -3 16 -17 16 -30 0 -21 -3 -23 -19 -14 -44 23 -95 10 -116 -31
-31 -59 -9 -153 40 -165 35 -9 45 2 45 52 0 44 0 44 35 44 l35 0 0 -55 c0 -50
-2 -56 -26 -65 -38 -15 -121 -12 -154 5 -58 30 -77 117 -42 185 30 57 129 96
186 74z m-640 -19 c-4 -11 -21 -15 -56 -15 l-49 0 3 -42 c3 -40 5 -43 33 -43
20 -1 31 -6 33 -18 3 -13 -4 -17 -32 -17 l-36 0 0 -60 0 -60 -32 0 -33 0 3
135 3 135 84 0 c71 0 83 -2 79 -15z m91 -102 l0 -118 43 3 c45 3 45 2 36 -22
-5 -12 -21 -16 -75 -16 l-69 0 0 135 0 135 33 0 33 0 -1 -117z m306 -18 c27
-71 49 -131 49 -133 0 -2 -17 -2 -37 0 -33 3 -39 7 -47 36 -7 26 -14 32 -35
32 -50 0 -70 -11 -76 -41 -5 -24 -12 -29 -36 -29 l-28 0 30 83 c17 45 37 100
45 122 16 45 40 67 68 63 15 -2 30 -34 67 -133z m296 93 c-3 -8 -6 -5 -6 6 -1
11 2 17 5 13 3 -3 4 -12 1 -19z m49 0 c13 -16 14 -19 2 -10 -13 10 -17 10 -21
0 -3 -7 -6 -3 -6 10 -1 27 1 27 25 0z m41 0 c-3 -8 -6 -5 -6 6 -1 11 2 17 5
13 3 -3 4 -12 1 -19z"/>
<path d="M887 1493 c-14 -13 -7 -84 8 -89 21 -8 65 22 65 45 0 33 -53 65 -73
44z"/>
<path d="M1561 1409 c-16 -46 -14 -49 20 -49 24 0 30 3 25 16 -3 9 -9 27 -12
40 -8 33 -20 30 -33 -7z"/>
<path d="M1336 1076 c-3 -13 -9 -31 -12 -40 -5 -13 1 -16 25 -16 34 0 36 3 20
49 -13 37 -25 40 -33 7z"/>
<path d="M1728 1888 c-44 -36 -10 -95 70 -119 35 -10 45 -10 67 5 14 9 25 25
25 35 0 27 -35 55 -61 48 -16 -4 -27 1 -41 19 -22 27 -37 30 -60 12z"/>
<path d="M1947 1742 c-22 -25 -21 -44 4 -76 54 -68 149 -75 149 -11 0 27 -34
59 -55 52 -9 -4 -15 -1 -15 7 0 17 -32 46 -52 46 -8 0 -22 -8 -31 -18z"/>
<path d="M2144 1575 c-15 -23 -15 -27 3 -57 19 -33 86 -78 98 -66 9 9 -25 132
-38 140 -23 14 -47 8 -63 -17z"/>
<path d="M516 1041 c-25 -28 -13 -73 29 -110 48 -42 73 -48 98 -22 17 17 19
25 11 48 -6 17 -18 29 -32 31 -13 2 -22 10 -22 21 0 21 -30 51 -52 51 -8 0
-23 -9 -32 -19z"/>
<path d="M735 860 c-23 -26 -11 -57 39 -95 49 -37 95 -38 115 -3 14 24 14 28
-3 47 -11 12 -29 21 -40 21 -12 0 -25 9 -31 23 -13 30 -56 34 -80 7z"/>
<path d="M1940 841 c-12 -8 -7 -11 20 -11 50 0 100 -33 100 -66 0 -14 -5 -34
-10 -45 -17 -30 4 -23 45 15 41 39 42 60 4 88 -30 23 -136 35 -159 19z"/>
<path d="M933 622 c-12 -8 -8 -37 18 -134 10 -40 28 -48 49 -23 10 12 10 30 0
90 -11 66 -15 75 -34 75 -12 0 -26 -4 -33 -8z"/>
<path d="M884 597 c3 -12 10 -46 16 -74 6 -28 18 -57 26 -64 18 -15 18 -8 -3
86 -11 51 -21 75 -31 75 -10 0 -12 -7 -8 -23z"/>
<path d="M671 464 c28 -35 133 -107 206 -144 326 -161 724 -119 1004 108 58
46 66 73 12 34 -96 -68 -297 -143 -432 -163 -111 -16 -321 -6 -426 20 -94 23
-224 76 -307 126 -66 39 -77 43 -57 19z"/>
</g>
</svg>
