<svg xmlns="http://www.w3.org/2000/svg" viewBox="0 0 128.84 179.05"><defs><style>.cls-1{fill:#221f20;}.cls-2{fill:#c5dfea;}.cls-3{fill:#f1f1f1;}</style></defs><g id="Layer_2" data-name="Layer 2"><g id="Layer_1-2" data-name="Layer 1"><path class="cls-1" d="M88.19,173.35c-.59.29-1.16.57-1.72.86-.81.42-1.67.74-2.51,1.08a21.31,21.31,0,0,1-3.57,1c-1.24.23-2.48.42-3.7.67s-2.45.44-3.69.61c-1.77.24-3.52.62-5.29.87-1.18.17-2.34.25-3.52.34-.85.1-1.71.16-2.56.18-1.75.07-3.52.05-5.27.05-3.45,0-6.87.08-10.32-.11a35.12,35.12,0,0,1-5.95-.86c-.86-.19-1.72-.3-2.55-.49s-1.71-.4-2.59-.57-1.71-.38-2.55-.63-1.6-.52-2.38-.8a28.1,28.1,0,0,1-3.19-1.37c-.61-.32-1.2-.67-1.83-.95a18.47,18.47,0,0,1-5.88-3.39,3.85,3.85,0,0,1-.88-4.11c0-1.56-.13-3.12-.3-4.68-.17-.87-.34-1.73-.51-2.61s-.37-1.94-.57-2.89c-.44-2-.8-4.07-1.13-6.12-.26-1.64-.62-3.26-1-4.87-.41-1.89-.81-3.75-1.14-5.66-.26-1.61-.63-3.21-.91-4.83-.36-1.86-.69-3.73-1-5.59-.13-.76-.25-1.54-.44-2.29s-.43-1.8-.66-2.7c-.44-1.73-.73-3.5-1.09-5.23-.17-.8-.3-1.6-.51-2.38s-.5-1.77-.74-2.64A55.16,55.16,0,0,1,7,107.86c-.31-1.61-.73-3.19-1-4.81s-.66-3.52-1-5.29c-.63-3.54-1.12-7.1-1.58-10.66-.49-3.14-.95-6.27-1.29-9.43-.19-1.68-.42-3.35-.51-5,0-1-.1-2-.16-2.93s-.13-1.65-.15-2.47c-.08-3.56,0-7.13-.25-10.67S.49,49.41.34,45.84C.26,44.1.17,42.39.06,40.66s0-3.42,0-5.12V14.17a3.94,3.94,0,0,1,3.4-3.88s0,0,0-.07A4.19,4.19,0,0,1,5.8,8.41l2.13-.76C9.63,7,11.3,6.41,13,5.8a43.8,43.8,0,0,1,4.86-1.35c1.78-.42,3.57-.72,5.36-1S27.07,3,29,2.8c1.74-.25,3.45-.52,5.16-.8,2-.34,4.11-.69,6.18-.86,3.6-.28,7.2-.47,10.79-.76S58.39.06,62,0l5.75,0,4.83,0c1.73,0,3.45,0,5.18.13S81.24.42,83,.53A108,108,0,0,1,94.48,1.71c.88.15,1.76.27,2.61.46s1.94.36,2.89.59c1.81.46,3.6.93,5.41,1.43s3.46,1,5.19,1.42c.86.23,1.73.42,2.59.63s1.67.44,2.53.67a23.07,23.07,0,0,1,2.26.76,30.07,30.07,0,0,1,4.87,2.13,16.53,16.53,0,0,1,1.79,1.1,10.43,10.43,0,0,1,1.75,1.51,11.58,11.58,0,0,1,.86,1.1,4.51,4.51,0,0,1,.49,1.1l.06.19a5.49,5.49,0,0,1,0,2.61,1.32,1.32,0,0,0-.1.3,4,4,0,0,1,.29.73c0,.34.09.68.13,1,.16,1.41.27,2.82.33,4.25s.11,2.62.21,3.95a55.13,55.13,0,0,1,0,7.71c0,.78-.17,1.54-.24,2.3-.14,1.28-.31,2.53-.5,3.81-.23,1.69-.57,3.39-.89,5.06s-.57,3.46-.94,5.17c-.17.78-.38,1.55-.57,2.31s-.3,1.46-.43,2.2a50.8,50.8,0,0,1-.82,6.51c-.44,1.9-.86,3.83-1.26,5.75-.34,1.67-.66,3.36-1.1,5s-1,3.31-1.43,5a40.93,40.93,0,0,0-1,5.13c-.26,1.68-.53,3.35-.87,5s-.67,3.57-1.12,5.32-.82,3.49-1.26,5.22-.82,3.46-1.22,5.19-.66,3.29-1.1,4.93c-.48,1.79-1.07,3.56-1.6,5.33-1,3.4-1.86,6.85-2.7,10.27a41.82,41.82,0,0,1-1.64,4.72c-.64,1.66-1.25,3.35-1.86,5s-1.12,3.48-1.79,5.2c-.28.76-.53,1.52-.8,2.28s-.66,1.69-1,2.53c0,0,0,0,0,.06-.34.93-.7,1.84-1.08,2.76-.3.72-.65,1.44-.89,2.2-.57,1.66-1.09,3.31-1.51,5s-.83,3.42-1.31,5.12-1,3.5-1.31,5.29A2.83,2.83,0,0,1,96,166v.05a5.94,5.94,0,0,1-.36,1.51,6.54,6.54,0,0,1-.59,1.22c-.14.17-.29.34-.44.49a4,4,0,0,1-1.51,1.62A38.1,38.1,0,0,1,88.19,173.35ZM121,34.06c.06-.73,0-1.47,0-2.21s0-1.65-.08-2.49c-.07-1.66-.23-3.29-.28-4.95v-.13a42.52,42.52,0,0,1-5.39,2c-.74.24-1.48.49-2.24.68s-1.79.42-2.67.65c-1.67.42-3.33.85-5,1.2-.91.19-1.81.38-2.72.51-1.26.17-2.51.32-3.79.44-3.48.34-7,.66-10.48.84-1.83.09-3.64.26-5.44.47s-3.33.38-5,.5c-3.59.28-7.19.28-10.77.3H56.62c-3.56,0-7.11.1-10.67-.09a91.73,91.73,0,0,1-11.46-1.28c-.81-.15-1.69-.25-2.51-.46s-1.75-.43-2.62-.68c-1.68-.46-3.33-.95-5-1.43S20.91,27,19.2,26.49a38.77,38.77,0,0,1-4.89-1.72,30.65,30.65,0,0,1-3.09-1.39c-.76-.41-1.52-.8-2.28-1.19l-1.08-.58V28.9c0,3.54-.06,7.1,0,10.64,0,1.75.19,3.48.26,5.23s.17,3.46.29,5.19c.05.65.09,1.3.15,1.94.72-.36,1.46-.74,2.21-1.1.3-.17.62-.32,1-.49s.66-.36,1-.52l2.07-.91c.8-.34,1.58-.72,2.4-1.08s1.92-.77,2.89-1.15c.72-.28,1.46-.51,2.21-.76a24.65,24.65,0,0,1,2.53-.78c.43-.11.87-.23,1.31-.3s.89-.14,1.31-.25l2.69-.63a21.81,21.81,0,0,1,3-.47l2-.25a55.8,55.8,0,0,1,5.93-.91c1.87-.16,3.71-.29,5.6-.35,1.63-.05,3.27,0,4.91,0H67.47l1.79,0c.3,0,.6,0,.89,0,.95,0,1.88,0,2.82.11,1.86.13,3.72.44,5.57.74.86.15,1.73.27,2.59.38s1.73.23,2.57.44,1.73.48,2.6.63l2.72.45c.88.18,1.75.42,2.63.63s1.62.33,2.42.48A26.84,26.84,0,0,1,99,47.09l2.53,1c1,.38,2,.84,2.9,1.26,1.54.64,3,1.48,4.52,2.18,1,.42,2,.84,2.92,1.28s1.73.68,2.55,1.1,1.56.9,2.32,1.37l.64.42c.06-.44.12-.87.19-1.31s.12-.88.21-1.32c.4-1.65.88-3.31,1.14-5,.52-3.18,1.17-6.34,1.64-9.53C120.72,37.06,120.89,35.56,121,34.06Zm-2.66-17.41.34-.23c-.46-.25-.92-.48-1.39-.68A49.46,49.46,0,0,0,112,14c-1.75-.45-3.52-.85-5.27-1.33l-5-1.39c-1.65-.46-3.33-.89-5-1.24s-3.47-.66-5.2-.95c-1.52-.19-3-.36-4.54-.49s-3-.19-4.57-.31c-2-.15-4-.3-6-.43-.9-.06-1.81,0-2.72,0s-1.77,0-2.67,0c-3.48,0-7,0-10.44,0-1.81,0-3.62,0-5.41.09s-3.63.21-5.44.34c-3.42.27-6.85.46-10.25.75-1,.13-1.91.26-2.84.42-1.29.2-2.57.43-3.86.62-1.54.23-3.08.46-4.64.61L25,11a60.12,60.12,0,0,0-8.09,1.77c-1.84.57-3.67,1.21-5.48,1.88.48.27,1,.51,1.47.76,1.1.55,2.21,1.14,3.33,1.71.78.33,1.58.65,2.4.94C22,19.26,25.42,20,28.8,21c1.74.52,3.47,1,5.22,1.43.78.21,1.62.31,2.41.44l2.46.42c1.31.17,2.64.34,4,.42,1.75.13,3.48.22,5.23.26,3.39.08,6.79,0,10.18,0H68.57c3.56,0,7.15,0,10.71-.42,1.85-.21,3.69-.38,5.52-.59,1.64-.19,3.27-.23,4.89-.32,3.6-.23,7.19-.59,10.77-.93l1.27-.19,2.17-.46c1.56-.36,3.1-.76,4.65-1.14.78-.21,1.54-.38,2.3-.55s1.37-.4,2.05-.61c1.3-.4,2.57-.84,3.83-1.33C117.28,17.22,117.81,17,118.33,16.65ZM116.1,61.11s0,0,0,0c-.78-.51-1.58-1-2.36-1.48-.52-.32-1-.67-1.56-.93s-1-.52-1.54-.74c-1-.42-2-.88-3-1.32-.78-.32-1.54-.64-2.3-1s-1.3-.65-1.92-1c-1.16-.59-2.34-1.08-3.52-1.59a35.16,35.16,0,0,0-5-1.73c-1.75-.42-3.52-.71-5.27-1.13-.85-.21-1.71-.42-2.57-.57s-1.67-.25-2.49-.44-1.73-.45-2.6-.62-1.7-.29-2.55-.4c-1.62-.23-3.22-.5-4.82-.73-1.16-.13-2.3-.26-3.48-.28s-2.45,0-3.69,0h-7.5c-3.42,0-6.87,0-10.29,0-1.81,0-3.62,0-5.42.13-1.55.1-3.09.23-4.65.42-1.23.23-2.47.48-3.73.65L33,48.69c-.5.08-1,.17-1.49.28s-1.21.29-1.82.44c-1.16.27-2.38.42-3.52.74-2.23.65-4.42,1.43-6.57,2.27l-3,1.33c-.55.25-1.09.48-1.62.74s-1.22.63-1.83.93C12.12,56,11.09,56.51,10,57c.19.16.38.31.57.44l.21.17A21.91,21.91,0,0,0,14,59.48l1.7.72a74.09,74.09,0,0,0,8,2.59c1.63.44,3.29.84,5,1.25s3.48.9,5.23,1.24c.85.15,1.71.34,2.59.51.41.08.83.18,1.27.23s.82.14,1.22.21c1.69.38,3.37.78,5.08,1.11.76.09,1.54.17,2.32.2.95,0,1.9.06,2.87.06,2,0,4,0,6,0,1.73,0,3.48-.06,5.23,0s3.71.17,5.55.28c3,.21,6,.21,9,.21h1.62c3.43,0,6.83-.41,10.26-.47.91,0,1.84,0,2.75-.08s1.79-.13,2.67-.23q2.31-.23,4.62-.51c.76-.11,1.52-.23,2.29-.32s1.37-.21,2-.35a20.63,20.63,0,0,0,2.11-.57c1.33-.38,2.65-.83,4-1.23.72-.21,1.43-.44,2.13-.71s1.28-.44,1.92-.64,1.41-.5,2.11-.77,1.28-.45,1.93-.7A5.13,5.13,0,0,0,116.1,61.11Zm-.7,6-1.47.55c-.8.28-1.6.49-2.38.78s-1.6.61-2.41.86c-1.7.51-3.39,1.06-5.1,1.56a33.73,33.73,0,0,1-5.07.93l-2.58.36c-1.75.21-3.48.38-5.24.57s-3.29.15-4.94.19c-1.81.06-3.6.21-5.39.32-.81,0-1.63.12-2.45.14l-2.85,0c-1.77,0-3.54,0-5.31,0s-3.54-.12-5.31-.25C64,73,63.15,73,62.27,73s-1.63-.1-2.47-.12c-1.37,0-2.76,0-4.15,0H54.51c-1.81,0-3.62,0-5.42,0a43.45,43.45,0,0,1-5.1-.26c-1-.14-2-.31-3-.52l-2.57-.59c-.85-.19-1.73-.32-2.58-.49l-2.59-.51c-1.71-.33-3.41-.69-5.08-1.13s-3.64-.89-5.44-1.39c-.82-.2-1.62-.41-2.44-.64l-2.47-.82c-.84-.29-1.68-.53-2.48-.86s-1.82-.72-2.72-1.1a22.5,22.5,0,0,1-2.34-1.08l-.91-.54c-.1,0-.17-.11-.25-.15,0,1,0,2,0,3.06,0,1.83.15,3.64.25,5.46s.23,3.52.45,5.29c.18,1.53.35,3,.54,4.55.26,1.73.57,3.46.78,5.2.17,1.21.32,2.45.49,3.67.33,2.24.71,4.47,1.11,6.71s.78,4.46,1.29,6.66c.21.86.42,1.7.59,2.57s.34,1.83.53,2.76c.38,1.77.92,3.5,1.39,5.25.44,1.56.65,3.18,1,4.76.38,1.84.86,3.67,1.3,5.5.19.76.3,1.54.43,2.3.16.93.31,1.85.48,2.78q.48,2.65,1,5.31c.34,1.73.61,3.5,1,5.23s.8,3.4,1.12,5.12.63,3.61,1,5.42c.13.8.31,1.58.48,2.38s.32,1.65.49,2.49c.12.57.25,1.14.36,1.73a22.21,22.21,0,0,0,2.46.63c1.06.19,2.09.46,3.14.72s2,.44,3,.67,1.85.4,2.8.55c3.33.32,6.7.27,10,.27h11.6c2.91,0,5.82,0,8.73-.17,1.77-.12,3.56-.08,5.33-.16s3.22-.28,4.82-.49,3-.46,4.47-.76a19.09,19.09,0,0,0,2.53-.63c.89-.31,1.77-.57,2.62-.89a20.26,20.26,0,0,0,2.8-1.76,10.15,10.15,0,0,0,.89-.7,3,3,0,0,1,.82-.55c.23-1,.44-1.92.73-2.86a44.18,44.18,0,0,1,1.75-5c.68-1.69,1.35-3.39,2-5.06.27-.72.52-1.47.78-2.19s.55-1.46.8-2.21c.53-1.57,1-3.17,1.62-4.73s1.14-3.18,1.77-4.74c.34-.86.66-1.73,1-2.61.23-.72.4-1.46.59-2.2.85-3.49,1.77-7,2.79-10.43.48-1.6,1-3.18,1.41-4.81s.78-3.49,1.18-5.24.82-3.48,1.24-5.23c.23-.91.44-1.83.65-2.76.17-.74.38-1.5.55-2.24.74-3.47,1.44-6.91,2-10.39a40.22,40.22,0,0,1,1.18-5.33c.23-.76.47-1.5.68-2.26l.74-2.8C114.94,69.45,115.17,68.27,115.4,67.11ZM88.83,163c.1-.59.23-1.16.35-1.75a18.76,18.76,0,0,1-2.53.95c-.56.19-1.11.4-1.66.55s-.89.27-1.33.37-.86.17-1.3.24l-2.79.48c-1,.19-2.13.3-3.2.46-.82.09-1.65.19-2.47.26-1.73.15-3.47.17-5.2.21s-3.5.19-5.25.21c-3.52,0-7,0-10.54,0H42.37c-.82,0-1.64,0-2.45,0s-1.85-.08-2.76-.17c-1.11-.11-2.19-.27-3.28-.48-.81-.15-1.61-.36-2.43-.51-1.64-.32-3.24-.82-4.87-1.14l-.63-.13c.06.87.1,1.73.11,2.6l1.15.57a20.86,20.86,0,0,1,2.43,1.07c.63.36,1.28.7,1.94,1,.93.36,1.89.68,2.86,1,1.16.34,2.36.57,3.52.87.59.13,1.19.29,1.78.38a15.46,15.46,0,0,1,1.7.29c1,.23,2,.43,3,.61.47.05,1,.09,1.46.11.9.06,1.79.11,2.68.13s1.62,0,2.44,0h6.16c1.39,0,2.78,0,4.17,0,1.66-.06,3.33-.21,5-.37.81-.13,1.63-.28,2.43-.43,1.09-.18,2.19-.33,3.27-.48,1.79-.28,3.58-.67,5.39-1a26,26,0,0,0,4.74-1.29l1.25-.63a14.13,14.13,0,0,1,1.68-.76c1.23-.59,2.47-1.15,3.65-1.83a2.2,2.2,0,0,1,0-.36C88.74,163.69,88.78,163.34,88.83,163Z"/><path class="cls-2" d="M121,31.85c0,.74,0,1.48,0,2.21-.1,1.5-.27,3-.44,4.51-.47,3.19-1.12,6.35-1.64,9.53-.26,1.67-.74,3.33-1.14,5-.09.44-.13.88-.21,1.32s-.13.87-.19,1.31l-.64-.42c-.76-.47-1.53-.95-2.32-1.37s-1.7-.76-2.55-1.1-1.94-.86-2.92-1.28c-1.52-.7-3-1.54-4.52-2.18-1-.42-1.91-.88-2.9-1.26l-2.53-1a26.84,26.84,0,0,0-4.92-1.31c-.8-.15-1.62-.29-2.42-.48s-1.75-.45-2.63-.63l-2.72-.45c-.87-.15-1.75-.42-2.6-.63s-1.72-.3-2.57-.44-1.73-.23-2.59-.38c-1.85-.3-3.71-.61-5.57-.74-.94-.08-1.87-.1-2.82-.11-.29,0-.59,0-.89,0l-1.79,0H51.66c-1.64,0-3.28,0-4.91,0-1.89.06-3.73.19-5.6.35a55.8,55.8,0,0,0-5.93.91l-2,.25a21.81,21.81,0,0,0-3,.47l-2.69.63c-.42.11-.87.17-1.31.25s-.88.19-1.31.3a24.65,24.65,0,0,0-2.53.78c-.75.25-1.49.48-2.21.76-1,.38-1.94.75-2.89,1.15s-1.6.74-2.4,1.08l-2.07.91c-.35.16-.67.35-1,.52s-.65.32-1,.49c-.75.36-1.49.74-2.21,1.1-.06-.64-.1-1.29-.15-1.94-.12-1.73-.21-3.46-.29-5.19s-.25-3.48-.26-5.23c-.08-3.54,0-7.1,0-10.64V21.61l1.08.58c.76.39,1.52.78,2.28,1.19a30.65,30.65,0,0,0,3.09,1.39,38.77,38.77,0,0,0,4.89,1.72c1.71.47,3.44.93,5.15,1.42s3.33,1,5,1.43c.87.25,1.75.47,2.62.68s1.7.31,2.51.46A91.73,91.73,0,0,0,46,31.76c3.56.19,7.11.09,10.67.09H67.16c3.58,0,7.18,0,10.77-.3,1.66-.12,3.31-.31,5-.5s3.61-.38,5.44-.47c3.5-.18,7-.5,10.48-.84,1.28-.12,2.53-.27,3.79-.44.91-.13,1.81-.32,2.72-.51,1.67-.35,3.33-.78,5-1.2.88-.23,1.77-.44,2.67-.65s1.5-.44,2.24-.68a42.52,42.52,0,0,0,5.39-2v.13c0,1.66.21,3.29.28,4.95C121,30.2,121,31,121,31.85Z"/><path class="cls-2" d="M118.67,16.42l-.34.23c-.52.3-1,.57-1.6.82-1.26.49-2.53.93-3.83,1.33-.68.21-1.35.44-2.05.61s-1.52.34-2.3.55c-1.55.38-3.09.78-4.65,1.14l-2.17.46-1.27.19c-3.58.34-7.17.7-10.77.93-1.62.09-3.25.13-4.89.32-1.83.21-3.67.38-5.52.59-3.56.38-7.15.38-10.71.42H58.26c-3.39,0-6.79.06-10.18,0-1.75,0-3.48-.13-5.23-.26-1.32-.08-2.65-.25-4-.42l-2.46-.42c-.79-.13-1.63-.23-2.41-.44C32.27,22,30.54,21.54,28.8,21c-3.38-1-6.85-1.76-10.17-2.94-.82-.29-1.62-.61-2.4-.94C15.11,16.57,14,16,12.9,15.43c-.5-.25-1-.49-1.47-.76,1.81-.67,3.64-1.31,5.48-1.88A60.12,60.12,0,0,1,25,11l3.2-.31c1.56-.15,3.1-.38,4.64-.61,1.29-.19,2.57-.42,3.86-.62.93-.16,1.88-.29,2.84-.42,3.4-.29,6.83-.48,10.25-.75C51.6,8.18,53.41,8,55.23,8s3.6-.09,5.41-.09c3.48,0,7,0,10.44,0,.9,0,1.79,0,2.67,0s1.82,0,2.72,0c2,.13,4,.28,6,.43,1.52.12,3,.17,4.57.31s3,.3,4.54.49c1.73.29,3.47.59,5.2.95s3.37.78,5,1.24l5,1.39c1.75.48,3.52.88,5.27,1.33a49.46,49.46,0,0,1,5.25,1.7C117.75,15.94,118.21,16.17,118.67,16.42Z"/><path class="cls-3" d="M116.14,61.09s0,0,0,0a5.13,5.13,0,0,1-.72.46c-.65.25-1.28.48-1.93.7s-1.4.52-2.11.77-1.29.4-1.92.64-1.41.5-2.13.71c-1.31.4-2.63.85-4,1.23a20.63,20.63,0,0,1-2.11.57c-.68.14-1.37.25-2,.35s-1.53.21-2.29.32q-2.31.28-4.62.51c-.88.1-1.77.21-2.67.23s-1.84.06-2.75.08c-3.43.06-6.83.49-10.26.47H75c-3,0-6,0-9-.21-1.84-.11-3.71-.17-5.55-.28s-3.5,0-5.23,0c-2,0-4,0-6,0-1,0-1.92,0-2.87-.06-.78,0-1.56-.11-2.32-.2-1.71-.33-3.39-.73-5.08-1.11-.4-.07-.82-.13-1.22-.21s-.86-.15-1.27-.23c-.88-.17-1.74-.36-2.59-.51-1.75-.34-3.5-.78-5.23-1.24s-3.32-.81-5-1.25a74.09,74.09,0,0,1-8-2.59L14,59.48a21.91,21.91,0,0,1-3.19-1.85l-.21-.17c-.19-.13-.38-.28-.57-.44,1.08-.51,2.11-1.06,3.17-1.6.61-.3,1.22-.6,1.83-.93s1.07-.49,1.62-.74l3-1.33c2.15-.84,4.34-1.62,6.57-2.27,1.14-.32,2.36-.47,3.52-.74.61-.15,1.22-.28,1.82-.44s1-.2,1.49-.28l2.81-.34c1.26-.17,2.5-.42,3.73-.65,1.56-.19,3.1-.32,4.65-.42,1.8-.09,3.61-.13,5.42-.13,3.42,0,6.87,0,10.29,0h7.5c1.24,0,2.47,0,3.69,0s2.32.15,3.48.28c1.6.23,3.2.5,4.82.73.85.11,1.69.24,2.55.4s1.73.41,2.6.62,1.66.29,2.49.44,1.72.36,2.57.57c1.75.42,3.52.71,5.27,1.13a35.16,35.16,0,0,1,5,1.73c1.18.51,2.36,1,3.52,1.59.62.33,1.27.67,1.92,1s1.52.68,2.3,1c1,.44,2,.9,3,1.32.53.22,1,.47,1.54.74s1,.61,1.56.93C114.56,60.11,115.36,60.58,116.14,61.09Z"/><path class="cls-3" d="M113.93,67.66l1.47-.55c-.23,1.16-.46,2.34-.77,3.48l-.74,2.8c-.21.76-.45,1.5-.68,2.26A40.22,40.22,0,0,0,112,81c-.52,3.48-1.22,6.92-2,10.39-.17.74-.38,1.5-.55,2.24-.21.93-.42,1.85-.65,2.76-.42,1.75-.84,3.48-1.24,5.23s-.76,3.5-1.18,5.24-.93,3.21-1.41,4.81c-1,3.46-1.94,6.94-2.79,10.43-.19.74-.36,1.48-.59,2.2-.31.88-.63,1.75-1,2.61-.63,1.56-1.2,3.16-1.77,4.74s-1.09,3.16-1.62,4.73c-.25.75-.55,1.47-.8,2.21s-.51,1.47-.78,2.19c-.7,1.67-1.37,3.37-2,5.06a44.18,44.18,0,0,0-1.75,5c-.29.94-.5,1.91-.73,2.86a3,3,0,0,0-.82.55,10.15,10.15,0,0,1-.89.7,20.26,20.26,0,0,1-2.8,1.76c-.85.32-1.73.58-2.62.89a19.09,19.09,0,0,1-2.53.63c-1.49.3-3,.55-4.47.76s-3.2.4-4.82.49-3.56,0-5.33.16c-2.91.17-5.82.17-8.73.17H46.58c-3.35,0-6.72.05-10-.27-1-.15-1.87-.34-2.8-.55s-2-.42-3-.67-2.08-.53-3.14-.72a22.21,22.21,0,0,1-2.46-.63c-.11-.59-.24-1.16-.36-1.73-.17-.84-.32-1.67-.49-2.49s-.35-1.58-.48-2.38c-.32-1.81-.61-3.62-1-5.42s-.76-3.41-1.12-5.12-.63-3.5-1-5.23-.69-3.54-1-5.31c-.17-.93-.32-1.85-.48-2.78-.13-.76-.24-1.54-.43-2.3-.44-1.83-.92-3.66-1.3-5.5-.32-1.58-.53-3.2-1-4.76-.47-1.75-1-3.48-1.39-5.25-.19-.93-.36-1.84-.53-2.76s-.38-1.71-.59-2.57c-.51-2.2-.89-4.43-1.29-6.66S12,92.22,11.64,90c-.17-1.22-.32-2.46-.49-3.67-.21-1.74-.52-3.47-.78-5.2-.19-1.5-.36-3-.54-4.55-.22-1.77-.36-3.52-.45-5.29s-.23-3.63-.25-5.46c0-1,0-2.05,0-3.06.08,0,.15.1.25.15l.91.54a22.5,22.5,0,0,0,2.34,1.08c.9.38,1.81.76,2.72,1.1s1.64.57,2.48.86l2.47.82c.82.23,1.62.44,2.44.64,1.8.5,3.63.92,5.44,1.39s3.37.8,5.08,1.13l2.59.51c.85.17,1.73.3,2.58.49l2.57.59c1,.21,2,.38,3,.52a43.45,43.45,0,0,0,5.1.26c1.8,0,3.61,0,5.42,0h1.14c1.39,0,2.78,0,4.15,0,.84,0,1.65.08,2.47.12S64,73,64.9,73.1c1.77.13,3.54.23,5.31.25s3.54,0,5.31,0l2.85,0c.82,0,1.64-.1,2.45-.14,1.79-.11,3.58-.26,5.39-.32,1.65,0,3.31,0,4.94-.19s3.49-.36,5.24-.57L99,71.79a33.73,33.73,0,0,0,5.07-.93c1.71-.5,3.4-1,5.1-1.56.81-.25,1.61-.58,2.41-.86S113.13,67.94,113.93,67.66Z"/><path class="cls-2" d="M89.18,161.25c-.12.59-.25,1.16-.35,1.75,0,.34-.09.69-.15,1.05a2.2,2.2,0,0,0,0,.36c-1.18.68-2.42,1.24-3.65,1.83a14.13,14.13,0,0,0-1.68.76l-1.25.63a26,26,0,0,1-4.74,1.29c-1.81.28-3.6.67-5.39,1-1.08.15-2.18.3-3.27.48-.8.15-1.62.3-2.43.43-1.66.16-3.33.31-5,.37-1.39,0-2.78,0-4.17,0H51c-.82,0-1.64,0-2.44,0s-1.78-.07-2.68-.13c-.49,0-1-.06-1.46-.11-1-.18-2-.38-3-.61a15.46,15.46,0,0,0-1.7-.29c-.59-.09-1.19-.25-1.78-.38-1.16-.3-2.36-.53-3.52-.87-1-.29-1.93-.61-2.86-1-.66-.33-1.31-.67-1.94-1a20.86,20.86,0,0,0-2.43-1.07l-1.15-.57c0-.87,0-1.73-.11-2.6l.63.13c1.63.32,3.23.82,4.87,1.14.82.15,1.62.36,2.43.51,1.09.21,2.17.37,3.28.48.91.09,1.84.11,2.76.17s1.63,0,2.45,0H52.91c3.52,0,7,0,10.54,0,1.75,0,3.5-.17,5.25-.21s3.47-.06,5.2-.21c.82-.07,1.65-.17,2.47-.26,1.07-.16,2.15-.27,3.2-.46l2.79-.48c.44-.07.86-.17,1.3-.24s.89-.23,1.33-.37,1.1-.36,1.66-.55A18.76,18.76,0,0,0,89.18,161.25Z"/></g></g></svg>