<svg xmlns="http://www.w3.org/2000/svg" viewBox="0 0 209.48 198.07"><defs><style>.cls-1{fill:#ffb8b8;}.cls-2{fill:#fff;}.cls-3{fill:#d8d86c;}.cls-4{fill:#1e1e1e;}.cls-5{fill:#d8d8d8;}.cls-6{fill:#2d6a9d;}.cls-7{fill:#d16528;}.cls-8{fill:#d3d3d3;}.cls-9{fill:#ecbc97;}.cls-10{fill:#fcd568;}.cls-11{fill:#f4caaa;}</style></defs><g id="Layer_2" data-name="Layer 2"><g id="Layer_1-2" data-name="Layer 1"><path d="M141.89,94.31a1.54,1.54,0,0,1-.21,1.86c-3.07,3.57-3.79,7.38-4.24,12a17.38,17.38,0,0,1-1.58,6.46,20.28,20.28,0,0,1-8.26,8.21,49.61,49.61,0,0,1-23.09,5.79l-1.38,0a2.58,2.58,0,0,1-.4,0l-1.91-.07c0-.1,0-.2,0-.3-.16.2-.32.41-.5.61a6.94,6.94,0,0,1-3.69,2.35c-1.5.33-2.49-.26-3.63-1.14-.44-.31,0-1,.48-.86,3.91,1,6.49-3.63,7-7.23a4.08,4.08,0,0,0-.25.33l-1.47-.52a12.21,12.21,0,0,0,1.14-1.95c.87-1.89,3.35-1.62,3.49.57a11.69,11.69,0,0,1-1,5.06.2.2,0,0,0,0,.07,1.51,1.51,0,0,1,.64-.16c8.39-.42,17.76-1.46,24.82-6.46,5.26-3.73,6.31-8.06,6.91-14.34a17.46,17.46,0,0,1,3.36-8.75c-.64-.36-1.33-.8-1.6-1a2.08,2.08,0,0,1-.73-2.38,4.05,4.05,0,0,0,.3-1.53,1.75,1.75,0,0,1,.12-.61l.71-2.56c1.44.35,2.49,1.1,2.51,2.62,0,.61-.3,1.22-.32,1.86a3.38,3.38,0,0,1,0,.39A6.18,6.18,0,0,1,141.89,94.31Z"/><path d="M137,87.68l-.71,2.56a2.61,2.61,0,0,1-1.4.31,36.18,36.18,0,0,1-7,0,1.53,1.53,0,0,1-1.18-1.45c-7.81,1.09-14.81,6.15-19.05,12.79-2.65,4.13-4.25,7.26-7.74,8.42a6.27,6.27,0,0,1,2,3.56c.58-.36,1.23-.82,1.24-1.24,0-1.76,2.75-1.81,2.73,0,0,2.55-2.92,3.81-4.85,4.81-1,.52-2.25,1.06-3.36,1.74a1.09,1.09,0,0,1,.66,1.08c0,.69,0,1.42,0,2.13l.46-.64,1.47.52a11.68,11.68,0,0,0-.64,1c-.52,1-1,2-1.55,2.88a1.09,1.09,0,0,1-1.65.28c-.07.1-.12.21-.19.3-.65.85-1.88.11-1.94-.77a9.36,9.36,0,0,1,.24-2.7,1.05,1.05,0,0,1-1.78-.39c-.54-2.77,2-4.75,4.07-6.06.7-.43,1.41-.82,2.13-1.21a1.69,1.69,0,0,1,0-.78c.25-2-1.18-3.11-2.9-4-.3,0-.61,0-.94,0a.91.91,0,0,1-.84-.8l.84-2.38a16.43,16.43,0,0,1,2.44,1.07c4.59-1.17,5.68-5.14,8.35-9.2a32.87,32.87,0,0,1,6-6.71,27.34,27.34,0,0,1,16.34-6.87,1.55,1.55,0,0,1,1.59,1.52v.24C131.7,87.53,134.78,87.15,137,87.68Z"/><path class="cls-1" d="M136.55,94.76c.27.19,1,.63,1.6,1a17.46,17.46,0,0,0-3.36,8.75c-.6,6.28-1.65,10.61-6.91,14.34-7.06,5-16.43,6-24.82,6.46a1.51,1.51,0,0,0-.64.16.2.2,0,0,1,0-.07,11.69,11.69,0,0,0,1-5.06c-.14-2.19-2.62-2.46-3.49-.57a12.21,12.21,0,0,1-1.14,1.95l-.46.64c0-.71,0-1.44,0-2.13a1.09,1.09,0,0,0-.66-1.08c1.11-.68,2.34-1.22,3.36-1.74,1.93-1,4.82-2.26,4.85-4.81,0-1.76-2.7-1.71-2.73,0,0,.42-.66.88-1.24,1.24a6.27,6.27,0,0,0-2-3.56c3.49-1.16,5.09-4.29,7.74-8.42,4.24-6.64,11.24-11.7,19.05-12.79a1.53,1.53,0,0,0,1.18,1.45,36.18,36.18,0,0,0,7,0,2.61,2.61,0,0,0,1.4-.31,1.75,1.75,0,0,0-.12.61,4.05,4.05,0,0,1-.3,1.53A2.08,2.08,0,0,0,136.55,94.76ZM126,100.47a1.41,1.41,0,0,0,0-2.7c-8.28-3-15.58,8.61-18.06,14.85-.43,1.08,1.24,1.61,1.8.72,3.14-4.89,7.81-13.33,14.55-13,0,0,0,0,0,0A2,2,0,0,0,126,100.47Z"/><path d="M125.91,97.77a1.41,1.41,0,0,1,0,2.7,2,2,0,0,1-1.73-.09s0,0,0,0c-6.74-.35-11.41,8.09-14.55,13-.56.89-2.23.36-1.8-.72C110.33,106.38,117.63,94.76,125.91,97.77Z"/><path d="M102.73,128.54c.54,5.38.87,10.51-1.86,15.59-1.69,3.15-4.12,6.5-4.89,10a52.79,52.79,0,0,0-1.08,11c3.65,2.36,5,7.56,5,11.67a1.39,1.39,0,0,1-.18,1.16,1.48,1.48,0,0,1-1.28.89,4.77,4.77,0,0,1-1.34,2.18c1.54,1.89.23,4.83-1.49,6.56-3.76,3.81-8.11,5.14-13.22,6.45-6.12,1.56-11.06,5.59-17.51,3.32a1.36,1.36,0,0,1-.84.16.86.86,0,0,1-.41-.16l-.19-.14s0,0,0,0h0v0a3.46,3.46,0,0,1-.44-.34,6,6,0,0,1-.72-.7,3.6,3.6,0,0,1-.62-1,6.33,6.33,0,0,1-1.87-4.83,1.09,1.09,0,0,1,.18-.55l-1.36-.13v-1.56c5.36,0,11.66-3.64,16.38-1.33a.61.61,0,0,1,0,1c-3.43,1.93-9.18,2.28-13,2.07h-.11c.12,10.95,16.23,2.47,21.49,1a21.82,21.82,0,0,0,7.85-3.39,7.73,7.73,0,0,0,3.22-4.74,7.55,7.55,0,0,1-2,.47.62.62,0,0,1-.45-1.06c1.48-1.3,3.62-2.25,4.65-3.95a.84.84,0,0,1-.15-.26,1.34,1.34,0,0,1-.17-1.12c-.1-4.09-.47-7.56-3.36-9.57a2,2,0,0,1-1.51-.82,11.64,11.64,0,0,0-2.19-.63c-4.65-.92-9.39-1.75-14.12-.82-.54.09-.94-.63-.41-.93,4.26-2.42,11.48-1.66,16.59-.31.28-5.88,1.35-11.6,4.43-16.74,2.36-3.93,4.81-7.49,5-12.29.07-2.1,0-4.16.14-6.25Z"/><path class="cls-2" d="M100.84,128.17c0,.1,0,.2,0,.3-.1,2.09-.07,4.15-.14,6.25-.18,4.8-2.63,8.36-5,12.29-3.08,5.14-4.15,10.86-4.43,16.74-5.11-1.35-12.33-2.11-16.59.31-.53.3-.13,1,.41.93,4.73-.93,9.47-.1,14.12.82a11.64,11.64,0,0,1,2.19.63,2,2,0,0,0,1.51.82c2.89,2,3.26,5.48,3.36,9.57a1.34,1.34,0,0,0,.17,1.12.84.84,0,0,0,.15.26c-1,1.7-3.17,2.65-4.65,3.95a.62.62,0,0,0,.45,1.06,7.55,7.55,0,0,0,2-.47,7.73,7.73,0,0,1-3.22,4.74,21.82,21.82,0,0,1-7.85,3.39c-5.26,1.46-21.37,9.94-21.49-1h.11c3.84.21,9.59-.14,13-2.07a.61.61,0,0,0,0-1c-4.72-2.31-11,1.38-16.38,1.33h-.2a.77.77,0,0,0-.74-.06h0a8.16,8.16,0,0,1-2.43-.64,1.53,1.53,0,0,0,.11-.47,5.7,5.7,0,0,0-.12-1.25.94.94,0,0,0-1.35-.6c-5.18-4.79-3-15.55.82-20.2a.57.57,0,0,0-.26-.93,2.82,2.82,0,0,0-2.48.59c-.51-3.21-2.56-12.19-2.68-12.62-1.23-4-3.81-7.2-6-10.59a33.71,33.71,0,0,1-2-3.5,18.43,18.43,0,0,1-.49-6.12,13.58,13.58,0,0,0,2.51,2.87c2.78,2.42,6,2,8.15-1a.94.94,0,0,0,.17-.5c1,1.09,3.14-.35,2.32-1.93-1.89-3.59-2.66-7.86-6.51-10a9.59,9.59,0,0,0-4.8-.87c1.22-1.32,2.8-2.48,3.92-3.71A8.79,8.79,0,0,0,48,114.1c1,.6,1.86-.82,1.17-1.62a1.13,1.13,0,0,1-.26-.6c.08,0,.14-.09.22-.14a.71.71,0,0,0,0-1.12c1.18-3.46,7.07-10,10.22-13.38a7.75,7.75,0,0,0,.43.87,1.28,1.28,0,0,0,2,.21,15.62,15.62,0,0,0,3.47-5.19c1.27.85,3.2-.18,4.47-2a17.56,17.56,0,0,0,2.62,1.37,1.28,1.28,0,0,0,1.82-.77c.16-.26.33-.5.49-.75a1.24,1.24,0,0,0,1.21-1.26c-.09-1.11-.21-2.16-.25-3.23,4.08,1.78,7.15,6.94,9.47,10.28a22.24,22.24,0,0,1,1.2,2,.92.92,0,0,0,.51.94,54.28,54.28,0,0,1,2.79,7c.5,1.44.79,3.65,2.3,4.4a1.57,1.57,0,0,0,2.36-1.15.91.91,0,0,0,.84.8c.33,0,.64,0,.94,0,1.72.93,3.15,2,2.9,4a1.69,1.69,0,0,0,0,.78c-.72.39-1.43.78-2.13,1.21-2.12,1.31-4.61,3.29-4.07,6.06a1.05,1.05,0,0,0,1.78.39,9.36,9.36,0,0,0-.24,2.7c.06.88,1.29,1.62,1.94.77.07-.09.12-.2.19-.3a1.09,1.09,0,0,0,1.65-.28c.56-.93,1-1.93,1.55-2.88a11.68,11.68,0,0,1,.64-1,4.08,4.08,0,0,1,.25-.33c-.49,3.6-3.07,8.18-7,7.23-.46-.12-.92.55-.48.86,1.14.88,2.13,1.47,3.63,1.14a6.94,6.94,0,0,0,3.69-2.35C100.52,128.58,100.68,128.37,100.84,128.17Zm-9.27,46.7c.9-1-.12-2.47-1.24-2.53a6.87,6.87,0,0,0-.69-2.18c-.32-.63-1.11-.32-1.32.19-.41,1.06-.11,2.41-1.08,3.19a20.66,20.66,0,0,1-2.57,1.52c-1.7,1-3.07,2.16-3.24,4.21a1.49,1.49,0,0,0,.57,1.18,2.44,2.44,0,0,0,0,.47,2.84,2.84,0,0,0,.26,1c1,2,4.2,2,6,1.28.66-.29,2.24-1.41,1.22-2.21-.79-.63-2.19,0-3.09.13-.46.06-1.79.16-2.11-.38C87.66,180.47,89.71,177.77,91.57,174.87ZM79,150.25c1.46-2.92.92-6.56.3-9.6-.79-3.77-1-7.8-2-11.49-.84-3-5-5.17-6.9-7.51A10.18,10.18,0,0,0,69,119.11a.89.89,0,0,0-1.64.48c0,.22,0,.43-.06.67a.52.52,0,0,0,.54.55,1.12,1.12,0,0,1,.1.27,1.35,1.35,0,0,0-.36,2,12.12,12.12,0,0,0,1.05,1.29A13.61,13.61,0,0,1,65.86,133c-1.84,2.47-3.4,4.81-3,8a10.38,10.38,0,0,0,1.11,3c1.23,2.71.63,4.95.8,7.73.23,3.74,3.75,7.11,5.58,10.13a1.51,1.51,0,0,0,2.79-.8C73.35,156.47,77.08,154.14,79,150.25ZM66,183a1.45,1.45,0,0,0,1-1.39c0-2.54-1.79-3.92-4-4.77-2.43-.94-4.66-1.37-6-3.75a1,1,0,0,0-1.75.51c0,1.86,1.39,3.11,2.92,4a1.59,1.59,0,0,0,.32,2.87C61.15,181.31,62.87,183.66,66,183Z"/><path d="M96.31,85.62c2.43,4.28,5.52,10.32,3.2,15.25-.89,1.92-2.91,5.17-5.26,6.4.27.08.54.18.81.28l-.84,2.38a1.57,1.57,0,0,1-2.36,1.15c-1.51-.75-1.8-3-2.3-4.4a54.28,54.28,0,0,0-2.79-7,.92.92,0,0,1-.51-.94,22.24,22.24,0,0,0-1.2-2c-2.32-3.34-5.39-8.5-9.47-10.28,0,1.07.16,2.12.25,3.23A1.24,1.24,0,0,1,74.63,91c-.16.25-.33.49-.49.75a1.28,1.28,0,0,1-1.82.77,17.56,17.56,0,0,1-2.62-1.37c-1.27,1.82-3.2,2.85-4.47,2a15.62,15.62,0,0,1-3.47,5.19,1.28,1.28,0,0,1-2-.21,7.75,7.75,0,0,1-.43-.87c-3.15,3.43-9,9.92-10.22,13.38a.71.71,0,0,1,0,1.12c-.08.05-.14.1-.22.14a1.13,1.13,0,0,0,.26.6c.69.8-.16,2.22-1.17,1.62a8.79,8.79,0,0,1-1.62,2.55c-1.12,1.23-2.7,2.39-3.92,3.71l-.21,1.87-.46,0,.27.13a.63.63,0,0,1-.14,1.14,4,4,0,0,1-2.05.29l-1.78.22c0-.19-.06-.37-.08-.55a15.16,15.16,0,0,1-2.24-1,.53.53,0,0,1-.17-.83,6.82,6.82,0,0,1-1.1-1.41,1.32,1.32,0,0,1,1.14-1.94,1.13,1.13,0,0,1,.84.37A12.86,12.86,0,0,0,39,120.86c1.06-1.76,2.8-3,4.34-4.33a16.08,16.08,0,0,0,2.46-2.42,3.86,3.86,0,0,0,.53-1l-.58-2.07a8,8,0,0,0,1.08-.07,9.49,9.49,0,0,1,.9-2.62,1.42,1.42,0,0,1-.93-.06c-7.59-3.12-8.49-12.26-5.89-19a1.57,1.57,0,0,1,2.26-1,15,15,0,0,1,4.29,5.09c1.92,3.12,3.92,4.18,7.16,5.26,2.07-2.38,3.92-4.33,4.66-5.19a1.27,1.27,0,0,1,2.16.86c0,.1,0,.19.06.3,1-1.54,1.67-3.33,2.61-4.93a1.28,1.28,0,0,1,2.37.61,2.19,2.19,0,0,0,1.65-1.61,1.25,1.25,0,0,1,1.71-.47c.82.48,1.6,1,2.4,1.39.09-.2.16-.38.26-.58a1.28,1.28,0,0,1,.71-.57A19.5,19.5,0,0,1,73,84.73a1.35,1.35,0,0,1,1.64-1.31c4.42.84,7.59,5.11,10.14,8.47,1,1.34,2.09,2.7,3,4.12,2.32-3.05,5.81-5.36,5.81-9.6A1.48,1.48,0,0,1,96.31,85.62Zm0,14.56c1.68-3.2.74-6.64-.78-9.75-1.36,3-4,5.6-6.38,8q.19.38.36.72c.47,1,1.22,3.55,2,5.68C93.09,103.29,95.24,102.33,96.36,100.18Zm-47.68,6.44a48.47,48.47,0,0,1,4.24-5.86,8.12,8.12,0,0,1-5.65-2.58c-1.56-1.74-2.63-4-4.19-5.78a11.22,11.22,0,0,0-.25,7.19c1.09,3,3.29,4.52,5.53,6.63A1.6,1.6,0,0,1,48.68,106.62Z"/><path class="cls-3" d="M95.58,90.43c1.52,3.11,2.46,6.55.78,9.75-1.12,2.15-3.27,3.11-4.77,4.64-.81-2.13-1.56-4.65-2-5.68q-.16-.35-.36-.72C91.6,96,94.22,93.48,95.58,90.43Z"/><path d="M90.33,172.34c1.12.06,2.14,1.52,1.24,2.53-1.86,2.9-3.91,5.6-7.27,5.91l-2.29.14a2.44,2.44,0,0,1,0-.47,1.49,1.49,0,0,1-.57-1.18c.17-2.05,1.54-3.24,3.24-4.21a20.66,20.66,0,0,0,2.57-1.52c1-.78.67-2.13,1.08-3.19.21-.51,1-.82,1.32-.19A6.87,6.87,0,0,1,90.33,172.34Z"/><path d="M89.5,181c1,.8-.56,1.92-1.22,2.21-1.81.76-5,.69-6-1.28a2.84,2.84,0,0,1-.26-1l2.29-.14c.32.54,1.65.44,2.11.38C87.31,181.06,88.71,180.4,89.5,181Z"/><path d="M79.32,140.65c.62,3,1.16,6.68-.3,9.6-1.94,3.89-5.67,6.22-5.93,10.86a1.51,1.51,0,0,1-2.79.8c-1.83-3-5.35-6.39-5.58-10.13-.17-2.78.43-5-.8-7.73a10.38,10.38,0,0,1-1.11-3c-.35-3.17,1.21-5.51,3-8a13.61,13.61,0,0,0,2.76-8.67,12.12,12.12,0,0,1-1.05-1.29,1.35,1.35,0,0,1,.36-2,1.12,1.12,0,0,0-.1-.27.52.52,0,0,1-.54-.55c0-.24,0-.45.06-.67a.89.89,0,0,1,1.64-.48,10.18,10.18,0,0,1,1.42,2.54c1.9,2.34,6.06,4.5,6.9,7.51C78.31,132.85,78.53,136.88,79.32,140.65Zm-7.19,13.92c3.12-4.17,5.75-7.48,4.18-13a66.1,66.1,0,0,1-1.61-9.48c-.28-2-1.91-3.67-3.63-5.3a19.9,19.9,0,0,1-3.38,8.87c-1.93,2.88-2.09,4.8-.64,8a7.11,7.11,0,0,1,.77,3.57c-.28,4.18,1.11,6.91,3,9.87A9,9,0,0,1,72.13,154.57Z"/><path class="cls-4" d="M76.31,141.53c1.57,5.56-1.06,8.87-4.18,13a9,9,0,0,0-1.35,2.5c-1.85-3-3.24-5.69-3-9.87a7.11,7.11,0,0,0-.77-3.57c-1.45-3.21-1.29-5.13.64-8a19.9,19.9,0,0,0,3.38-8.87c1.72,1.63,3.35,3.33,3.63,5.3A66.1,66.1,0,0,0,76.31,141.53Z"/><path d="M67,181.57A1.45,1.45,0,0,1,66,183c-3.09.7-4.81-1.65-7.5-2.56a1.59,1.59,0,0,1-.32-2.87c-1.53-.86-2.94-2.11-2.92-4a1,1,0,0,1,1.75-.51c1.38,2.38,3.61,2.81,6,3.75C65.21,177.65,67,179,67,181.57Z"/><path d="M58.51,188.09v1.56a1,1,0,0,1-1.14.17c-.53-.24-1.15-.32-1.69-.51s-1-.36-1.44-.56a.43.43,0,0,1-.27-.44,1.32,1.32,0,0,1-.83-.15c-4.58-2.52-5.33-10-4.84-14.66a23.7,23.7,0,0,1,1.43-5.82,5.17,5.17,0,0,1-1-3.23,51.86,51.86,0,0,0-1.26-10.08,48.12,48.12,0,0,0-5.28-11.78c-.22-.35-.4-.69-.59-1l1.54-.22c2.21,3.39,4.79,6.6,6,10.59.12.43,2.17,9.41,2.68,12.62A2.82,2.82,0,0,1,54.3,164a.57.57,0,0,1,.26.93c-3.83,4.65-6,15.41-.82,20.2a.94.94,0,0,1,1.35.6,5.7,5.7,0,0,1,.12,1.25,1.53,1.53,0,0,1-.11.47,8.16,8.16,0,0,0,2.43.64h0a.77.77,0,0,1,.74.06Z"/><path d="M53.77,131.19c.82,1.58-1.28,3-2.32,1.93a.94.94,0,0,1-.17.5c-2.1,3-5.37,3.38-8.15,1a13.58,13.58,0,0,1-2.51-2.87,18.43,18.43,0,0,0,.49,6.12,33.71,33.71,0,0,0,2,3.5l-1.54.22a.55.55,0,0,1-1,.09c-1.84-2.86-2.87-7.73-1.36-11-6.65,4.56-21.45,1.73-25.55-5a1.53,1.53,0,0,1,.29-1.86c-3.39-2.4-7.43-5-8.68-8.87-.89-2.8.23-4.83,0-7.6C5,103.53,2.2,101.21.22,98.23A1.53,1.53,0,0,1,1.09,96a65.54,65.54,0,0,1,14.58-2.06A1.53,1.53,0,0,1,17,91.26c5.06.86,11.94,3.4,15.57,7.15,4.12,4.29,6.85,12.66,13.2,12.66l.58,2.07c-3.78,1-7.64-1.08-10.09-4.69-2.14-3.15-4.33-7.31-7.74-9.24a53.33,53.33,0,0,0-8-3.54,1.6,1.6,0,0,1-1.25.84c-1.81.15-3.61.28-5.39.44A70.63,70.63,0,0,0,4,98.38c2.55,3.8,4.75,6.69,3.88,11.82-1.08,6.4,5.89,9.69,10.1,13a1.42,1.42,0,0,1-.25,2.23l-.29.13c4.59,4.33,15.78,6.06,20.59,2.45a1.2,1.2,0,0,1,1.05-.25,16.61,16.61,0,0,1-.94-3.78l1.78-.22.54,2.09v0l.18.81c1,3.26,5.15,9.38,8,6.15a.94.94,0,0,1,.63-1.17l.48-.16a1.34,1.34,0,0,1,1.06.14c-.85-2.1-1.33-4.43-2.55-6.33a7.6,7.6,0,0,0-5.93-3.16l.21-1.87a9.59,9.59,0,0,1,4.8.87C51.11,123.33,51.88,127.6,53.77,131.19Z"/><path class="cls-5" d="M50.73,131.72a1.34,1.34,0,0,0-1.06-.14l-.48.16a.94.94,0,0,0-.63,1.17c-2.81,3.23-7-2.89-8-6.15l-.18-.81v0l-.54-2.09a4,4,0,0,0,2.05-.29.63.63,0,0,0,.14-1.14l-.27-.13.46,0a7.6,7.6,0,0,1,5.93,3.16C49.4,127.29,49.88,129.62,50.73,131.72Zm-1.68-2.18c.2-1.57-1.39-2.24-2.39-3.18a1.34,1.34,0,0,0-1.57-.14c-.06-.45-.07-.92-.18-1.42a.52.52,0,0,0-.62-.35c-1.56.27-1.28,2.44-1,3.51a8.84,8.84,0,0,0,2.58,3.92,1.28,1.28,0,0,0,2.14-.93,5.4,5.4,0,0,0-.13-.72,1.85,1.85,0,0,0,.47,0A1,1,0,0,0,49.05,129.54Z"/><path class="cls-3" d="M52.92,100.76a48.47,48.47,0,0,0-4.24,5.86,1.6,1.6,0,0,0-.32-.4c-2.24-2.11-4.44-3.6-5.53-6.63a11.22,11.22,0,0,1,.25-7.19c1.56,1.75,2.63,4,4.19,5.78A8.12,8.12,0,0,0,52.92,100.76Z"/><path d="M46.66,126.36c1,.94,2.59,1.61,2.39,3.18a1,1,0,0,1-.66.68,1.85,1.85,0,0,1-.47,0,5.4,5.4,0,0,1,.13.72,1.28,1.28,0,0,1-2.14.93A8.84,8.84,0,0,1,43.33,128c-.32-1.07-.6-3.24,1-3.51a.52.52,0,0,1,.62.35c.11.5.12,1,.18,1.42A1.34,1.34,0,0,1,46.66,126.36Z"/><path class="cls-1" d="M46.34,113.14a3.86,3.86,0,0,1-.53,1,16.08,16.08,0,0,1-2.46,2.42c-1.54,1.32-3.28,2.57-4.34,4.33a12.86,12.86,0,0,1-2.53-2.24,1.13,1.13,0,0,0-.84-.37l0-.5a7.5,7.5,0,0,0,1.42,0,1.19,1.19,0,0,0,0-2.37c-5.38-.18-7.32-6.2-10.53-9.51S19.2,101.4,15,99.93a1.4,1.4,0,0,0-.84-.16L13.92,97c1.78-.16,3.58-.29,5.39-.44a1.6,1.6,0,0,0,1.25-.84,53.33,53.33,0,0,1,8,3.54c3.41,1.93,5.6,6.09,7.74,9.24C38.7,112.06,42.56,114.19,46.34,113.14Z"/><path class="cls-1" d="M39,127.81a1.2,1.2,0,0,0-1.05.25c-4.81,3.61-16,1.88-20.59-2.45l.29-.13a1.42,1.42,0,0,0,.25-2.23c-4.21-3.36-11.18-6.65-10.1-13,.87-5.13-1.33-8-3.88-11.82a70.63,70.63,0,0,1,10-1.43l.25,2.82c-1.38.18-2.44,2.43-.74,3.19,2.3,1,4.76,1.6,7.1,2.54,3.22,1.29,5,4.24,7,6.82s4.71,5.16,8.08,5.43l0,.5a1.32,1.32,0,0,0-1.14,1.94,6.82,6.82,0,0,0,1.1,1.41.53.53,0,0,0,.17.83,15.16,15.16,0,0,0,2.24,1c0,.18,0,.36.08.55A16.61,16.61,0,0,0,39,127.81Z"/><path d="M37,115.37a1.19,1.19,0,0,1,0,2.37,7.5,7.5,0,0,1-1.42,0c-3.37-.27-6-2.81-8.08-5.43s-3.83-5.53-7-6.82c-2.34-.94-4.8-1.51-7.1-2.54-1.7-.76-.64-3,.74-3.19a1.4,1.4,0,0,1,.84.16c4.19,1.47,8.33,2.67,11.5,5.93S31.66,115.19,37,115.37Z"/><path d="M209.48,150.55c.09,8.68-10.67,15.1-17,19-11.64,7.24-24.23,12.66-37.8,15a96.42,96.42,0,0,1-48.34-3.37c-8.23-2.76-20.61-7.75-24.24-16.55-2.44-5.95-1.75-13.73,5.17-16.44,6.28-2.45,12-1,18.53-1.13,5.47-.14,20.71-5.1,19.58-13.89a2,2,0,0,1,.07-.71,37.92,37.92,0,0,1-18.2-19.08,90.8,90.8,0,0,1-5.42-20.25,2.08,2.08,0,0,1-1.74,0c-5.71-2.75-9.82-9.57-7.77-15.92.67-2.09,2.6-6.87,5.21-7.38-6.79-3.2-12.69-13.53-10.12-21.08-4.23.11-8.45.2-12.66.23a2.13,2.13,0,0,1-2.07-1.42,1.93,1.93,0,0,1-.95-.54l-.56-.55a2.16,2.16,0,0,1-.5-2.56c2.92-5.56,14.29-6.52,19.63-7.48,1.85-.34,3.71-.6,5.58-.82-3-3.73-1.37-6,1.73-7.32a2.13,2.13,0,0,1-.12-.61c-.06-8.62-.23-20.56,9-25C111.44.25,116-.16,121.46.05c5.15.17,15.84,4.83,20.15,3.14,18.36-7.07,41.52-2.52,41,21.3a2.46,2.46,0,0,1-1.1,2.06.34.34,0,0,1,0,.08c.44,2,.88,3.94,1.31,5.89a.54.54,0,0,1,0,.18c6.34.6,18.89.6,22.29,5.42a1.88,1.88,0,0,1,.36,1.54,2.16,2.16,0,0,1-1.61,3.22c-5,.94-10.09,1.93-15.2,2.75a1.72,1.72,0,0,1,.37,1v.7a2,2,0,0,1-.53,1.39c-.63,2.5-.34,5.24-.89,7.78a10.9,10.9,0,0,1-4.43,7c7.44,4.43,9.41,22.48-.78,22.62a.51.51,0,0,1-.25,0c.12,8.72.37,17.76-3.08,26a43.69,43.69,0,0,1-11.23,15.71C174.91,146.64,209.26,124.44,209.48,150.55Zm-6.85,5.54c7-10.23-1.66-16.26-10.26-15.81-5,.27-10,.69-14.4.11-4.52,8.4-10.09,16.17-12.18,25.63a2.17,2.17,0,0,1-3.51,1.2c-4.46-3.12-10.56-8.82-16.14-9.58-1.66-.23-4.8,3.86-6.3,4.91-3.86,2.72-7.44,4.81-10.67,8.41a2.17,2.17,0,0,1-3.63-.7c-3.34-7.31-8-13.65-11.66-20.55a33.83,33.83,0,0,1-11.39,1.47c-4.15-.31-19.53-2.31-17.61,7.92A17.62,17.62,0,0,0,91.49,169a63.13,63.13,0,0,0,18.62,9,85.91,85.91,0,0,0,40.49,3c14.11-2.47,27.49-7.12,39.52-15C194.4,163.2,199.68,160.4,202.63,156.09ZM199.51,39.34v-.05c-3.51-1.1-9.93-1.07-12.12-1.47-4.72-.84-8.44-1.22-13,0-10.57,2.85-23.42.91-34.27,1.4-12.95.59-26.52,1.25-39.44,0-4.54-.46-14,1.81-17.81,3-2.26.74-6.29,3.42-8.23,1.5a2.12,2.12,0,0,1,.55.89c21.82-.21,43.61-1.83,65.44-1.86,10.53,0,21.09,1.48,31.61.45C181.37,42.38,190.44,41,199.51,39.34ZM181.85,59.09c2.87-3.18,1.77-8.91,3.06-12.87-1.16.18-2.3.35-3.47.49a2.34,2.34,0,0,1,.13.67c-.07,3.93,0,7.85,0,11.77A1.68,1.68,0,0,1,181.85,59.09Zm.28,22.8c4.85-.06,3.32-10.59-.35-14,.11,4.68.24,9.35.34,14Zm-3.66-49.47c-.29-1.12-.51-2.3-.77-3.43-13.91.38-27.87-.38-41.78.26-7.63.35-15.26,1.44-22.88,1.47-.42,0-16.1.15-12.69,3.41a2,2,0,0,1,.57,1c12.82-.88,25.93.24,38.81-.21,8.73-.3,17.47-.4,26.19-.66C170.39,34.19,174.26,32.62,178.47,32.42Zm-1.11-7.72a2,2,0,0,1,.93-1.95c-.77-12.19-10.62-21.28-23.81-19.15-6.17,1-11.16,4.48-17.45,4.23S125.36,3.94,118.77,4.2c-14,.61-17,11.07-17,22.9a41.73,41.73,0,0,1,7.34-.65c11.48,0,22.89-1.56,34.39-1.71C154.8,24.6,166.1,25,177.36,24.7Zm-.08,23a2.69,2.69,0,0,1,.12-.54c-1.63.17-3.26.3-4.89.38-10.57.6-21-.66-31.59-.46-13.56.25-27.1.81-40.66,1.27a2.26,2.26,0,0,1,.1.45c.39,17.34,2.94,37.15,7.72,53.87s19,32.61,38.27,30C188,127,176.82,77.17,177.28,47.71Zm-3.67,91.7a14.21,14.21,0,0,1-2.29-1,35,35,0,0,1-4.6,3.89c-4.69,3.76-9.49,7.39-14.43,10.81a12.37,12.37,0,0,1-2.38,1.3c4.45,1.71,8.66,4.82,12.52,7.65C164.9,153.91,169.53,146.89,173.61,139.41ZM168.05,136a17.22,17.22,0,0,1-3.63-5.45,33.5,33.5,0,0,1-20.71,6.54,44,44,0,0,1-13.92-2.73,12.22,12.22,0,0,1-3.84,8.73,83.06,83.06,0,0,0,16.43,8c4.37,1.66,6.94-1.14,10.05-3.4C155.09,145.81,166,139.75,168.05,136Zm-27.27,20c.24-.21.46-.44.69-.66-6.75-1.05-13.68-5.6-19-9.4a30.35,30.35,0,0,1-4.51,2.31c3.28,6,7.12,11.54,10.24,17.67C132.15,162.32,136.81,159.71,140.78,156ZM101.14,88.76c-.25-1.64-.51-3.26-.76-4.92-.48-3-1-6-1.47-9a1.67,1.67,0,0,1-.85-.21,4.29,4.29,0,0,0-.35.64,14,14,0,0,0-.6,1.3,14.92,14.92,0,0,0-1,3.19C95.56,83.38,98.13,86.92,101.14,88.76ZM97.37,64.58a146.73,146.73,0,0,1-1.3-15.45,2.35,2.35,0,0,1,.12-.62l-4.07.1c-.07.11-.09.24-.17.36C88.87,53.35,93.09,61.06,97.37,64.58Z"/><path class="cls-6" d="M192.37,140.28c8.6-.45,17.29,5.58,10.26,15.81-2.95,4.31-8.23,7.11-12.51,9.9-12,7.86-25.41,12.51-39.52,15a85.91,85.91,0,0,1-40.49-3,63.13,63.13,0,0,1-18.62-9,17.62,17.62,0,0,1-6.61-9.89c-1.92-10.23,13.46-8.23,17.61-7.92a33.83,33.83,0,0,0,11.39-1.47c3.69,6.9,8.32,13.24,11.66,20.55a2.17,2.17,0,0,0,3.63.7c3.23-3.6,6.81-5.69,10.67-8.41,1.5-1.05,4.64-5.14,6.3-4.91,5.58.76,11.68,6.46,16.14,9.58a2.17,2.17,0,0,0,3.51-1.2c2.09-9.46,7.66-17.23,12.18-25.63C182.4,141,187.35,140.55,192.37,140.28ZM150.1,168v-1a2.15,2.15,0,0,0-4.29.34v.94a2.15,2.15,0,1,0,4.29-.31Z"/><path class="cls-7" d="M199.51,39.29v.05c-9.07,1.64-18.14,3-27.32,3.93-10.52,1-21.08-.47-31.61-.45-21.83,0-43.62,1.65-65.44,1.86a2.12,2.12,0,0,0-.55-.89c1.94,1.92,6-.76,8.23-1.5,3.78-1.24,13.27-3.51,17.81-3,12.92,1.25,26.49.59,39.44,0,10.85-.49,23.7,1.45,34.27-1.4,4.61-1.24,8.33-.86,13,0C189.58,38.22,196,38.19,199.51,39.29Z"/><path class="cls-8" d="M184.91,46.22c-1.29,4-.19,9.69-3.06,12.87a1.68,1.68,0,0,0-.24.06c-.06-3.92-.11-7.84,0-11.77a2.34,2.34,0,0,0-.13-.67C182.61,46.57,183.75,46.4,184.91,46.22Z"/><path class="cls-9" d="M181.78,67.88c3.67,3.42,5.2,14,.35,14h0C182,77.23,181.89,72.56,181.78,67.88Z"/><path class="cls-10" d="M177.7,29c.26,1.13.48,2.31.77,3.43-4.21.2-8.08,1.77-12.55,1.88-8.72.26-17.46.36-26.19.66-12.88.45-26-.67-38.81.21a2,2,0,0,0-.57-1c-3.41-3.26,12.27-3.41,12.69-3.41,7.62,0,15.25-1.12,22.88-1.47C149.83,28.61,163.79,29.37,177.7,29Z"/><path class="cls-7" d="M178.29,22.75a2,2,0,0,0-.93,1.95c-11.26.3-22.56-.1-33.83,0-11.5.15-22.91,1.67-34.39,1.71a41.73,41.73,0,0,0-7.34.65c0-11.83,2.93-22.29,17-22.9,6.59-.26,12,3.38,18.26,3.63s11.28-3.24,17.45-4.23C167.67,1.47,177.52,10.56,178.29,22.75Z"/><path class="cls-11" d="M177.4,47.17a2.69,2.69,0,0,0-.12.54c-.46,29.46,10.68,79.31-30.93,85-19.27,2.61-33.48-13.14-38.27-30s-7.33-36.53-7.72-53.87a2.26,2.26,0,0,0-.1-.45c13.56-.46,27.1-1,40.66-1.27,10.56-.2,21,1.06,31.59.46C174.14,47.47,175.77,47.34,177.4,47.17ZM144.51,118.1c3.64-1.18,8.15-6.35,5.92-10.23-1.38-2.39-4.92,0-3.54,2.4.1.22-1.34,1.89-1.57,2.14a6.26,6.26,0,0,1-2.73,1.8c-1.38.44-4.88,0-5.49-1.55-1-2.55-5.09-1.16-4.06,1.41C134.73,118.28,140.6,119.36,144.51,118.1Z"/><path class="cls-6" d="M171.32,138.4a14.21,14.21,0,0,0,2.29,1c-4.08,7.48-8.71,14.5-11.18,22.64-3.86-2.83-8.07-5.94-12.52-7.65a12.37,12.37,0,0,0,2.38-1.3c4.94-3.42,9.74-7,14.43-10.81A35,35,0,0,0,171.32,138.4Z"/><path class="cls-9" d="M164.42,130.57a17.22,17.22,0,0,0,3.63,5.45c-2,3.73-13,9.79-15.62,11.72-3.11,2.26-5.68,5.06-10.05,3.4a83.06,83.06,0,0,1-16.43-8,12.22,12.22,0,0,0,3.84-8.73,44,44,0,0,0,13.92,2.73A33.5,33.5,0,0,0,164.42,130.57Z"/><path d="M150.43,107.87c2.23,3.88-2.28,9-5.92,10.23-3.91,1.26-9.78.18-11.47-4-1-2.57,3-4,4.06-1.41.61,1.52,4.11,2,5.49,1.55a6.26,6.26,0,0,0,2.73-1.8c.23-.25,1.67-1.92,1.57-2.14C145.51,107.9,149.05,105.48,150.43,107.87Z"/><path d="M150.1,167v1a2.15,2.15,0,1,1-4.29.31v-.94a2.15,2.15,0,0,1,4.29-.34Z"/><path class="cls-6" d="M141.47,155.34c-.23.22-.45.45-.69.66-4,3.71-8.63,6.32-12.61,9.92-3.12-6.13-7-11.7-10.24-17.67a30.35,30.35,0,0,0,4.51-2.31C127.79,149.74,134.72,154.29,141.47,155.34Z"/><path class="cls-9" d="M100.38,83.84c.25,1.66.51,3.28.76,4.92-3-1.84-5.58-5.38-5-9a14.92,14.92,0,0,1,1-3.19,14,14,0,0,1,.6-1.3,4.29,4.29,0,0,1,.35-.64,1.67,1.67,0,0,0,.85.21C99.38,77.83,99.9,80.82,100.38,83.84Z"/><path class="cls-8" d="M96.07,49.13a146.73,146.73,0,0,0,1.3,15.45C93.09,61.06,88.87,53.35,92,49c.08-.12.1-.25.17-.36l4.07-.1A2.35,2.35,0,0,0,96.07,49.13Z"/><path d="M102.73,128.54c.54,5.38.87,10.51-1.86,15.59-1.69,3.15-4.12,6.5-4.89,10a52.79,52.79,0,0,0-1.08,11c3.65,2.36,5,7.56,5,11.67a1.39,1.39,0,0,1-.18,1.16,1.48,1.48,0,0,1-1.28.89,4.77,4.77,0,0,1-1.34,2.18c1.54,1.89.23,4.83-1.49,6.56-3.76,3.81-8.11,5.14-13.22,6.45-6.12,1.56-11.06,5.59-17.51,3.32a1.36,1.36,0,0,1-.84.16.86.86,0,0,1-.41-.16l-.19-.14s0,0,0,0h0v0a3.46,3.46,0,0,1-.44-.34,6,6,0,0,1-.72-.7,3.6,3.6,0,0,1-.62-1,6.33,6.33,0,0,1-1.87-4.83,1.09,1.09,0,0,1,.18-.55l-1.36-.13v-1.56c5.36,0,11.66-3.64,16.38-1.33a.61.61,0,0,1,0,1c-3.43,1.93-9.18,2.28-13,2.07h-.11c.12,10.95,16.23,2.47,21.49,1a21.82,21.82,0,0,0,7.85-3.39,7.73,7.73,0,0,0,3.22-4.74,7.55,7.55,0,0,1-2,.47.62.62,0,0,1-.45-1.06c1.48-1.3,3.62-2.25,4.65-3.95a.84.84,0,0,1-.15-.26,1.34,1.34,0,0,1-.17-1.12c-.1-4.09-.47-7.56-3.36-9.57a2,2,0,0,1-1.51-.82,11.64,11.64,0,0,0-2.19-.63c-4.65-.92-9.39-1.75-14.12-.82-.54.09-.94-.63-.41-.93,4.26-2.42,11.48-1.66,16.59-.31.28-5.88,1.35-11.6,4.43-16.74,2.36-3.93,4.81-7.49,5-12.29.07-2.1,0-4.16.14-6.25Z"/><path class="cls-2" d="M100.84,128.17c0,.1,0,.2,0,.3-.1,2.09-.07,4.15-.14,6.25-.18,4.8-2.63,8.36-5,12.29-3.08,5.14-4.15,10.86-4.43,16.74-5.11-1.35-12.33-2.11-16.59.31-.53.3-.13,1,.41.93,4.73-.93,9.47-.1,14.12.82a11.64,11.64,0,0,1,2.19.63,2,2,0,0,0,1.51.82c2.89,2,3.26,5.48,3.36,9.57a1.34,1.34,0,0,0,.17,1.12.84.84,0,0,0,.15.26c-1,1.7-3.17,2.65-4.65,3.95a.62.62,0,0,0,.45,1.06,7.55,7.55,0,0,0,2-.47,7.73,7.73,0,0,1-3.22,4.74,21.82,21.82,0,0,1-7.85,3.39c-5.26,1.46-21.37,9.94-21.49-1h.11c3.84.21,9.59-.14,13-2.07a.61.61,0,0,0,0-1c-4.72-2.31-11,1.38-16.38,1.33h-.2a.77.77,0,0,0-.74-.06h0a8.16,8.16,0,0,1-2.43-.64,1.53,1.53,0,0,0,.11-.47,5.7,5.7,0,0,0-.12-1.25.94.94,0,0,0-1.35-.6c-5.18-4.79-3-15.55.82-20.2a.57.57,0,0,0-.26-.93,2.82,2.82,0,0,0-2.48.59c-.51-3.21-2.56-12.19-2.68-12.62-1.23-4-3.81-7.2-6-10.59a33.71,33.71,0,0,1-2-3.5,18.43,18.43,0,0,1-.49-6.12,13.58,13.58,0,0,0,2.51,2.87c2.78,2.42,6,2,8.15-1a.94.94,0,0,0,.17-.5c1,1.09,3.14-.35,2.32-1.93-1.89-3.59-2.66-7.86-6.51-10a9.59,9.59,0,0,0-4.8-.87c1.22-1.32,2.8-2.48,3.92-3.71A8.79,8.79,0,0,0,48,114.1c1,.6,1.86-.82,1.17-1.62a1.13,1.13,0,0,1-.26-.6c.08,0,.14-.09.22-.14a.71.71,0,0,0,0-1.12c1.18-3.46,7.07-10,10.22-13.38a7.75,7.75,0,0,0,.43.87,1.28,1.28,0,0,0,2,.21,15.62,15.62,0,0,0,3.47-5.19c1.27.85,3.2-.18,4.47-2a17.56,17.56,0,0,0,2.62,1.37,1.28,1.28,0,0,0,1.82-.77c.16-.26.33-.5.49-.75a1.24,1.24,0,0,0,1.21-1.26c-.09-1.11-.21-2.16-.25-3.23,4.08,1.78,7.15,6.94,9.47,10.28a22.24,22.24,0,0,1,1.2,2,.92.92,0,0,0,.51.94,54.28,54.28,0,0,1,2.79,7c.5,1.44.79,3.65,2.3,4.4a1.57,1.57,0,0,0,2.36-1.15.91.91,0,0,0,.84.8c.33,0,.64,0,.94,0,1.72.93,3.15,2,2.9,4a1.69,1.69,0,0,0,0,.78c-.72.39-1.43.78-2.13,1.21-2.12,1.31-4.61,3.29-4.07,6.06a1.05,1.05,0,0,0,1.78.39,9.36,9.36,0,0,0-.24,2.7c.06.88,1.29,1.62,1.94.77.07-.09.12-.2.19-.3a1.09,1.09,0,0,0,1.65-.28c.56-.93,1-1.93,1.55-2.88a9.16,9.16,0,0,1,.89-1.37c-.49,3.6-3.07,8.18-7,7.23-.46-.12-.92.55-.48.86,1.14.88,2.13,1.47,3.63,1.14a6.94,6.94,0,0,0,3.69-2.35C100.52,128.58,100.68,128.37,100.84,128.17Zm-9.27,46.7c.9-1-.12-2.47-1.24-2.53a6.87,6.87,0,0,0-.69-2.18c-.32-.63-1.11-.32-1.32.19-.41,1.06-.11,2.41-1.08,3.19a20.66,20.66,0,0,1-2.57,1.52c-1.7,1-3.07,2.16-3.24,4.21a1.49,1.49,0,0,0,.57,1.18,2.44,2.44,0,0,0,0,.47,2.84,2.84,0,0,0,.26,1c1,2,4.2,2,6,1.28.66-.29,2.24-1.41,1.22-2.21-.79-.63-2.19,0-3.09.13-.46.06-1.79.16-2.11-.38C87.66,180.47,89.71,177.77,91.57,174.87ZM79,150.25c1.46-2.92.92-6.56.3-9.6-.79-3.77-1-7.8-2-11.49-.84-3-5-5.17-6.9-7.51A10.18,10.18,0,0,0,69,119.11a.89.89,0,0,0-1.64.48c0,.22,0,.43-.06.67a.52.52,0,0,0,.54.55,1.12,1.12,0,0,1,.1.27,1.35,1.35,0,0,0-.36,2,12.12,12.12,0,0,0,1.05,1.29A13.61,13.61,0,0,1,65.86,133c-1.84,2.47-3.4,4.81-3,8a10.38,10.38,0,0,0,1.11,3c1.23,2.71.63,4.95.8,7.73.23,3.74,3.75,7.11,5.58,10.13a1.51,1.51,0,0,0,2.79-.8C73.35,156.47,77.08,154.14,79,150.25ZM66,183a1.45,1.45,0,0,0,1-1.39c0-2.54-1.79-3.92-4-4.77-2.43-.94-4.66-1.37-6-3.75a1,1,0,0,0-1.75.51c0,1.86,1.39,3.11,2.92,4a1.59,1.59,0,0,0,.32,2.87C61.15,181.31,62.87,183.66,66,183Z"/><path d="M96.31,85.62c2.43,4.28,5.52,10.32,3.2,15.25-.89,1.92-2.91,5.17-5.26,6.4.27.08.54.18.81.28l-.84,2.38a1.57,1.57,0,0,1-2.36,1.15c-1.51-.75-1.8-3-2.3-4.4a54.28,54.28,0,0,0-2.79-7,.92.92,0,0,1-.51-.94,22.24,22.24,0,0,0-1.2-2c-2.32-3.34-5.39-8.5-9.47-10.28,0,1.07.16,2.12.25,3.23A1.24,1.24,0,0,1,74.63,91c-.16.25-.33.49-.49.75a1.28,1.28,0,0,1-1.82.77,17.56,17.56,0,0,1-2.62-1.37c-1.27,1.82-3.2,2.85-4.47,2a15.62,15.62,0,0,1-3.47,5.19,1.28,1.28,0,0,1-2-.21,7.75,7.75,0,0,1-.43-.87c-3.15,3.43-9,9.92-10.22,13.38a.71.71,0,0,1,0,1.12c-.08.05-.14.1-.22.14a1.13,1.13,0,0,0,.26.6c.69.8-.16,2.22-1.17,1.62a8.79,8.79,0,0,1-1.62,2.55c-1.12,1.23-2.7,2.39-3.92,3.71l-.21,1.87-.46,0,.27.13a.63.63,0,0,1-.14,1.14,4,4,0,0,1-2.05.29l-1.78.22c0-.19-.06-.37-.08-.55a15.16,15.16,0,0,1-2.24-1,.53.53,0,0,1-.17-.83,6.82,6.82,0,0,1-1.1-1.41,1.32,1.32,0,0,1,1.14-1.94,1.13,1.13,0,0,1,.84.37A12.86,12.86,0,0,0,39,120.86c1.06-1.76,2.8-3,4.34-4.33a16.08,16.08,0,0,0,2.46-2.42,3.86,3.86,0,0,0,.53-1l-.58-2.07a8,8,0,0,0,1.08-.07,9.49,9.49,0,0,1,.9-2.62,1.42,1.42,0,0,1-.93-.06c-7.59-3.12-8.49-12.26-5.89-19a1.57,1.57,0,0,1,2.26-1,15,15,0,0,1,4.29,5.09c1.92,3.12,3.92,4.18,7.16,5.26,2.07-2.38,3.92-4.33,4.66-5.19a1.27,1.27,0,0,1,2.16.86c0,.1,0,.19.06.3,1-1.54,1.67-3.33,2.61-4.93a1.28,1.28,0,0,1,2.37.61,2.19,2.19,0,0,0,1.65-1.61,1.25,1.25,0,0,1,1.71-.47c.82.48,1.6,1,2.4,1.39.09-.2.16-.38.26-.58a1.28,1.28,0,0,1,.71-.57A19.5,19.5,0,0,1,73,84.73a1.35,1.35,0,0,1,1.64-1.31c4.42.84,7.59,5.11,10.14,8.47,1,1.34,2.09,2.7,3,4.12,2.32-3.05,5.81-5.36,5.81-9.6A1.48,1.48,0,0,1,96.31,85.62Zm0,14.56c1.68-3.2.74-6.64-.78-9.75-1.36,3-4,5.6-6.38,8q.19.38.36.72c.47,1,1.22,3.55,2,5.68C93.09,103.29,95.24,102.33,96.36,100.18Zm-47.68,6.44a48.47,48.47,0,0,1,4.24-5.86,8.12,8.12,0,0,1-5.65-2.58c-1.56-1.74-2.63-4-4.19-5.78a11.22,11.22,0,0,0-.25,7.19c1.09,3,3.29,4.52,5.53,6.63A1.6,1.6,0,0,1,48.68,106.62Z"/><path class="cls-3" d="M95.58,90.43c1.52,3.11,2.46,6.55.78,9.75-1.12,2.15-3.27,3.11-4.77,4.64-.81-2.13-1.56-4.65-2-5.68q-.16-.35-.36-.72C91.6,96,94.22,93.48,95.58,90.43Z"/><path d="M90.33,172.34c1.12.06,2.14,1.52,1.24,2.53-1.86,2.9-3.91,5.6-7.27,5.91l-2.29.14a2.44,2.44,0,0,1,0-.47,1.49,1.49,0,0,1-.57-1.18c.17-2.05,1.54-3.24,3.24-4.21a20.66,20.66,0,0,0,2.57-1.52c1-.78.67-2.13,1.08-3.19.21-.51,1-.82,1.32-.19A6.87,6.87,0,0,1,90.33,172.34Z"/><path d="M89.5,181c1,.8-.56,1.92-1.22,2.21-1.81.76-5,.69-6-1.28a2.84,2.84,0,0,1-.26-1l2.29-.14c.32.54,1.65.44,2.11.38C87.31,181.06,88.71,180.4,89.5,181Z"/><path d="M79.32,140.65c.62,3,1.16,6.68-.3,9.6-1.94,3.89-5.67,6.22-5.93,10.86a1.51,1.51,0,0,1-2.79.8c-1.83-3-5.35-6.39-5.58-10.13-.17-2.78.43-5-.8-7.73a10.38,10.38,0,0,1-1.11-3c-.35-3.17,1.21-5.51,3-8a13.61,13.61,0,0,0,2.76-8.67,12.12,12.12,0,0,1-1.05-1.29,1.35,1.35,0,0,1,.36-2,1.12,1.12,0,0,0-.1-.27.52.52,0,0,1-.54-.55c0-.24,0-.45.06-.67a.89.89,0,0,1,1.64-.48,10.18,10.18,0,0,1,1.42,2.54c1.9,2.34,6.06,4.5,6.9,7.51C78.31,132.85,78.53,136.88,79.32,140.65Zm-7.19,13.92c3.12-4.17,5.75-7.48,4.18-13a66.1,66.1,0,0,1-1.61-9.48c-.28-2-1.91-3.67-3.63-5.3a19.9,19.9,0,0,1-3.38,8.87c-1.93,2.88-2.09,4.8-.64,8a7.11,7.11,0,0,1,.77,3.57c-.28,4.18,1.11,6.91,3,9.87A9,9,0,0,1,72.13,154.57Z"/><path class="cls-4" d="M76.31,141.53c1.57,5.56-1.06,8.87-4.18,13a9,9,0,0,0-1.35,2.5c-1.85-3-3.24-5.69-3-9.87a7.11,7.11,0,0,0-.77-3.57c-1.45-3.21-1.29-5.13.64-8a19.9,19.9,0,0,0,3.38-8.87c1.72,1.63,3.35,3.33,3.63,5.3A66.1,66.1,0,0,0,76.31,141.53Z"/><path d="M67,181.57A1.45,1.45,0,0,1,66,183c-3.09.7-4.81-1.65-7.5-2.56a1.59,1.59,0,0,1-.32-2.87c-1.53-.86-2.94-2.11-2.92-4a1,1,0,0,1,1.75-.51c1.38,2.38,3.61,2.81,6,3.75C65.21,177.65,67,179,67,181.57Z"/><path d="M58.51,188.09v1.56a1,1,0,0,1-1.14.17c-.53-.24-1.15-.32-1.69-.51s-1-.36-1.44-.56a.43.43,0,0,1-.27-.44,1.32,1.32,0,0,1-.83-.15c-4.58-2.52-5.33-10-4.84-14.66a23.7,23.7,0,0,1,1.43-5.82,5.17,5.17,0,0,1-1-3.23,51.86,51.86,0,0,0-1.26-10.08,48.12,48.12,0,0,0-5.28-11.78c-.22-.35-.4-.69-.59-1l1.54-.22c2.21,3.39,4.79,6.6,6,10.59.12.43,2.17,9.41,2.68,12.62A2.82,2.82,0,0,1,54.3,164a.57.57,0,0,1,.26.93c-3.83,4.65-6,15.41-.82,20.2a.94.94,0,0,1,1.35.6,5.7,5.7,0,0,1,.12,1.25,1.53,1.53,0,0,1-.11.47,8.16,8.16,0,0,0,2.43.64h0a.77.77,0,0,1,.74.06Z"/><path d="M53.77,131.19c.82,1.58-1.28,3-2.32,1.93a.94.94,0,0,1-.17.5c-2.1,3-5.37,3.38-8.15,1a13.58,13.58,0,0,1-2.51-2.87,18.43,18.43,0,0,0,.49,6.12,33.71,33.71,0,0,0,2,3.5l-1.54.22a.55.55,0,0,1-1,.09c-1.84-2.86-2.87-7.73-1.36-11-6.65,4.56-21.45,1.73-25.55-5a1.53,1.53,0,0,1,.29-1.86c-3.39-2.4-7.43-5-8.68-8.87-.89-2.8.23-4.83,0-7.6C5,103.53,2.2,101.21.22,98.23A1.53,1.53,0,0,1,1.09,96a65.54,65.54,0,0,1,14.58-2.06A1.53,1.53,0,0,1,17,91.26c5.06.86,11.94,3.4,15.57,7.15,4.12,4.29,6.85,12.66,13.2,12.66l.58,2.07c-3.78,1-7.64-1.08-10.09-4.69-2.14-3.15-4.33-7.31-7.74-9.24a53.33,53.33,0,0,0-8-3.54,1.6,1.6,0,0,1-1.25.84c-1.81.15-3.61.28-5.39.44A70.63,70.63,0,0,0,4,98.38c2.55,3.8,4.75,6.69,3.88,11.82-1.08,6.4,5.89,9.69,10.1,13a1.42,1.42,0,0,1-.25,2.23l-.29.13c4.59,4.33,15.78,6.06,20.59,2.45a1.2,1.2,0,0,1,1.05-.25,16.61,16.61,0,0,1-.94-3.78l1.78-.22.54,2.09v0l.18.81c1,3.26,5.15,9.38,8,6.15a.94.94,0,0,1,.63-1.17l.48-.16a1.34,1.34,0,0,1,1.06.14c-.85-2.1-1.33-4.43-2.55-6.33a7.6,7.6,0,0,0-5.93-3.16l.21-1.87a9.59,9.59,0,0,1,4.8.87C51.11,123.33,51.88,127.6,53.77,131.19Z"/><path class="cls-5" d="M50.73,131.72a1.34,1.34,0,0,0-1.06-.14l-.48.16a.94.94,0,0,0-.63,1.17c-2.81,3.23-7-2.89-8-6.15l-.18-.81v0l-.54-2.09a4,4,0,0,0,2.05-.29.63.63,0,0,0,.14-1.14l-.27-.13.46,0a7.6,7.6,0,0,1,5.93,3.16C49.4,127.29,49.88,129.62,50.73,131.72Zm-1.68-2.18c.2-1.57-1.39-2.24-2.39-3.18a1.34,1.34,0,0,0-1.57-.14c-.06-.45-.07-.92-.18-1.42a.52.52,0,0,0-.62-.35c-1.56.27-1.28,2.44-1,3.51a8.84,8.84,0,0,0,2.58,3.92,1.28,1.28,0,0,0,2.14-.93,5.4,5.4,0,0,0-.13-.72,1.85,1.85,0,0,0,.47,0A1,1,0,0,0,49.05,129.54Z"/><path class="cls-3" d="M52.92,100.76a48.47,48.47,0,0,0-4.24,5.86,1.6,1.6,0,0,0-.32-.4c-2.24-2.11-4.44-3.6-5.53-6.63a11.22,11.22,0,0,1,.25-7.19c1.56,1.75,2.63,4,4.19,5.78A8.12,8.12,0,0,0,52.92,100.76Z"/><path d="M46.66,126.36c1,.94,2.59,1.61,2.39,3.18a1,1,0,0,1-.66.68,1.85,1.85,0,0,1-.47,0,5.4,5.4,0,0,1,.13.72,1.28,1.28,0,0,1-2.14.93A8.84,8.84,0,0,1,43.33,128c-.32-1.07-.6-3.24,1-3.51a.52.52,0,0,1,.62.35c.11.5.12,1,.18,1.42A1.34,1.34,0,0,1,46.66,126.36Z"/><path class="cls-1" d="M46.34,113.14a3.86,3.86,0,0,1-.53,1,16.08,16.08,0,0,1-2.46,2.42c-1.54,1.32-3.28,2.57-4.34,4.33a12.86,12.86,0,0,1-2.53-2.24,1.13,1.13,0,0,0-.84-.37l0-.5a7.5,7.5,0,0,0,1.42,0,1.19,1.19,0,0,0,0-2.37c-5.38-.18-7.32-6.2-10.53-9.51S19.2,101.4,15,99.93a1.4,1.4,0,0,0-.84-.16L13.92,97c1.78-.16,3.58-.29,5.39-.44a1.6,1.6,0,0,0,1.25-.84,53.33,53.33,0,0,1,8,3.54c3.41,1.93,5.6,6.09,7.74,9.24C38.7,112.06,42.56,114.19,46.34,113.14Z"/><path class="cls-1" d="M39,127.81a1.2,1.2,0,0,0-1.05.25c-4.81,3.61-16,1.88-20.59-2.45l.29-.13a1.42,1.42,0,0,0,.25-2.23c-4.21-3.36-11.18-6.65-10.1-13,.87-5.13-1.33-8-3.88-11.82a70.63,70.63,0,0,1,10-1.43l.25,2.82c-1.38.18-2.44,2.43-.74,3.19,2.3,1,4.76,1.6,7.1,2.54,3.22,1.29,5,4.24,7,6.82s4.71,5.16,8.08,5.43l0,.5a1.32,1.32,0,0,0-1.14,1.94,6.82,6.82,0,0,0,1.1,1.41.53.53,0,0,0,.17.83,15.16,15.16,0,0,0,2.24,1c0,.18,0,.36.08.55A16.61,16.61,0,0,0,39,127.81Z"/><path d="M37,115.37a1.19,1.19,0,0,1,0,2.37,7.5,7.5,0,0,1-1.42,0c-3.37-.27-6-2.81-8.08-5.43s-3.83-5.53-7-6.82c-2.34-.94-4.8-1.51-7.1-2.54-1.7-.76-.64-3,.74-3.19a1.4,1.4,0,0,1,.84.16c4.19,1.47,8.33,2.67,11.5,5.93S31.66,115.19,37,115.37Z"/></g></g></svg>