<svg xmlns="http://www.w3.org/2000/svg" viewBox="0 0 198.8 190.54"><defs><style>.cls-1{fill:#f4caaa;}.cls-2{fill:#2d6a9d;}.cls-3{fill:#49a046;}.cls-4{fill:none;stroke:#000;stroke-miterlimit:10;}</style></defs><g id="Layer_2" data-name="Layer 2"><g id="Layer_1-2" data-name="Layer 1"><polygon class="cls-1" points="16.4 117.28 14.4 109.28 12.4 104.28 12.4 94.28 12.4 87.28 16.4 83.28 20.4 83.28 25.4 87.28 24.4 94.28 21.4 99.28 19.4 104.28 20.4 108.28 21.4 112.28 21.4 114.28 16.4 117.28"/><path d="M198.21,88.68c1.66,21.13.81,38.16-15.89,53.25-7.64,6.92-22.66,9.87-27.6,18.94-3.49,6.4-4.93,13.48-9.94,19C135,190.62,109.33,191,97.53,184.43a2.25,2.25,0,0,1,1-4.18c.88-10.22-4.63-19.95-2.83-30.32a26.5,26.5,0,0,1,8.67-15.61c6.5-6,14.76-9.1,22.93-12,5.32-1.89,11.79-3.81,15.66-8.21,4.12-4.66,4.38-9.19,6.25-14.65,1.59-4.68,7.25-3.5,10.54-1.77a7.73,7.73,0,0,1,3.21,3.5c1.6-3.39,3.31-6.73,4.88-10.19,2-4.36,3.16-9.52,5.77-13.57,1.46-2.3,4.76-6,7.33-2.64a12.4,12.4,0,0,1,1.59,2.84c2.58-2.65,6-4.49,9.59-2.93C197.52,77.07,197.81,83.52,198.21,88.68ZM193.3,118a61.55,61.55,0,0,0,1-24.63c-.27-1.5-.33-3.05-.45-4.57a48,48,0,0,0-.79-6.1q-4.53.7-9.07,1.45c.54,6.82-1,14.74-2.42,19.78a97.44,97.44,0,0,1-15.23,31.52c-1.16,1.6-3.82.36-3.82-1.42v-2.21a2.18,2.18,0,0,1,2.53-2.17c9.2-13.62,16.08-30.74,13.74-47.29-.86-6.1-1.38-3-2.71.09-.95,2.23-1.8,4.5-2.6,6.8-2.25,6.56-6.07,12.41-8.72,18.83a38.59,38.59,0,0,1,.12,4.06c-.18,12.64-13.1,26.24-24.88,29.42-2.73.76-4-3.47-1.26-4.22,6.44-1.74,12.41-7.17,16.41-12.4,2.48-3.24,4.7-6.69,5.13-10.88.07-.45.11-.9.15-1.37a1.79,1.79,0,0,1-1.17-2.37c.31-.93.69-1.82,1-2.73-.09-.65-.21-1.29-.36-1.93l-7-3.49c-1.85,10.24-6.62,16.52-16,21.12-10.84,5.31-24.53,6.93-32.42,17.15-9.66,12.51-.28,26-1.53,39.72a2.21,2.21,0,0,1-.77,1.54c12.65,5,37.19,3,43-10.08,3.48-7.76,5.61-16.66,13.89-20.81C173.22,143.76,189.29,134.79,193.3,118Z"/><path class="cls-1" d="M194.26,93.4a61.55,61.55,0,0,1-1,24.63c-4,16.76-20.08,25.73-34.18,32.81-8.28,4.15-10.41,13-13.89,20.81-5.86,13.07-30.4,15.09-43,10.08a2.21,2.21,0,0,0,.77-1.54c1.25-13.7-8.13-27.21,1.53-39.72,7.89-10.22,21.58-11.84,32.42-17.15,9.41-4.6,14.18-10.88,16-21.12l7,3.49c.15.64.27,1.28.36,1.93-.35.91-.73,1.8-1,2.73a1.79,1.79,0,0,0,1.17,2.37c0,.47-.08.92-.15,1.37-.43,4.19-2.65,7.64-5.13,10.88-4,5.23-10,10.66-16.41,12.4-2.76.75-1.47,5,1.26,4.22,11.78-3.18,24.7-16.78,24.88-29.42a38.59,38.59,0,0,0-.12-4.06c2.65-6.42,6.47-12.27,8.72-18.83.8-2.3,1.65-4.57,2.6-6.8,1.33-3.14,1.85-6.19,2.71-.09,2.34,16.55-4.54,33.67-13.74,47.29a2.18,2.18,0,0,0-2.53,2.17v2.21c0,1.78,2.66,3,3.82,1.42A97.44,97.44,0,0,0,181.53,104c1.37-5,3-13,2.42-19.78q4.55-.75,9.07-1.45a48,48,0,0,1,.79,6.1C193.93,90.35,194,91.9,194.26,93.4Z"/><path d="M83.56,139.51c10.76,10.31,10.7,33.66,6.12,46.76a2.44,2.44,0,0,1-3.42,1.29,2,2,0,0,1-2,2.63c-7.73,0-17.62,1.67-24.68-2.38-4.58-2.63-4.69-9.79-8.8-13.15-11.92-9.77-29-10.54-37.07-25-9.2-16.46-23.87-55.45-3.42-69.32a2.1,2.1,0,0,1,3.25,1.58C15.84,80,19.15,79,21.83,80.5c4.69,2.65,6,7.65,6.16,12.68,4.07.33,7,5.62,8.3,8.68,4.92,11.4,12.77,22.54,24.46,27.82C67.82,132.87,77.68,133.87,83.56,139.51Zm1.82,45.78c4-11.45,5.06-38.31-8-44.67-10.8-5.26-22.32-6.71-31.1-15.8-4.21-4.36-8.81-9.48-11.34-15-1.23-2.68-2.16-5.8-3.72-8.26q-12.16-.42-8.09,7.74c.67,1.46,1.34,2.9,2,4.35,7.05,11.93,17.44,21.72,28.61,29.78,2.3,1.66-.73,4.86-3,3.23-11-8-26.42-20.37-31.39-34.69a27.84,27.84,0,0,1-1.61-9.14,8.79,8.79,0,0,1,5.79-8.69c-.28-4-1.79-13.22-6.7-9.24C12.53,88.38,13.2,95.57,14,100.4a73.9,73.9,0,0,0,3.12,12.28A118.72,118.72,0,0,0,28,135.16a2,2,0,0,1,2.26,2.06v2.19a2.22,2.22,0,0,1-4.08,1.24C19.69,130.32,13.35,119,10.77,106.94c-1.5-7-3-15,.29-21.68-15.37,13.43-1.13,52,8.35,65.08,7.92,11,22.48,11.31,32.4,19.44,4.12,3.37,6,6.93,8.35,11.6,3.67,7.25,17.26,4.39,24,4.39a2.15,2.15,0,0,1,1.12.34A2.24,2.24,0,0,1,85.38,185.29Z"/><path class="cls-1" d="M77.39,140.62c13,6.36,12,33.22,8,44.67a2.24,2.24,0,0,0-.11.82,2.15,2.15,0,0,0-1.12-.34c-6.73,0-20.32,2.86-24-4.39-2.36-4.67-4.23-8.23-8.35-11.6-9.92-8.13-24.48-8.48-32.4-19.44C9.93,137.25-4.31,98.69,11.06,85.26,7.73,91.9,9.27,100,10.77,106.94c2.58,12,8.92,23.38,15.37,33.71a2.22,2.22,0,0,0,4.08-1.24v-2.19A2,2,0,0,0,28,135.16a118.72,118.72,0,0,1-10.85-22.48l2.26-.75c5,14.32,20.38,26.74,31.39,34.69,2.27,1.63,5.3-1.57,3-3.23-11.17-8.06-21.56-17.85-28.61-29.78-.67-1.45-1.34-2.89-2-4.35q-4.08-8.17,8.09-7.74c1.56,2.46,2.49,5.58,3.72,8.26,2.53,5.56,7.13,10.68,11.34,15C55.07,133.91,66.59,135.36,77.39,140.62Z"/><path class="cls-2" d="M150.38,58.47c.48,14.21-5.35,25.59-13.61,36.07-1.09,1-2.17,2-3.28,2.93a1,1,0,0,0-1.14.93v0a53.34,53.34,0,0,1-11.71,7.77c-8.16,3.82-17.9,3.27-26.62,2.5a62.53,62.53,0,0,1-16.33-3.64c-.29-4.13-2.58-7-3.89-11.13-2.16-6.76-3.21-17.27,3.25-21.69,4.39-3,2.38-7.4-1.11-10.51-2.26-2-10.2-5.64-16.24-6.31L60,52.66a.88.88,0,0,0,.88-.81c.26-2.32.38-6,1.37-8.2a4.58,4.58,0,0,0,.39-2.82c-.56-2.91-3.9-3.27-4.08-6.11a1.09,1.09,0,0,0-1-1,6.49,6.49,0,0,1,.27-1.73c.21-.69.72-1.37.86-2.07.77-1.29,1.56-2.54,2.39-3.74A53,53,0,0,1,71,15.2c-.09.17-.17.34-.25.52a11.52,11.52,0,0,0-1.05,3.89.85.85,0,0,0,.65.83,8.57,8.57,0,0,0,3,.08c2.95-.4,5.63-2.21,7.95-4.15s4.3-3.91,6.38-5.93C89.37,8.82,91.82,7.56,93,5.6a1.1,1.1,0,0,0,.17-.52,45.66,45.66,0,0,1,22.4,2c-3.14,2.35-4.93,6.6-8.18,9-3,2.27-8.94,2.77-9.29,7.43a.64.64,0,0,0,.41.65,3.47,3.47,0,0,0-.2.5.59.59,0,0,0,.4.74l-1,2.42c-1.13,0-2.21.63-3.19,2.29a1.11,1.11,0,0,0,.06,1.32c-3.51,6.33-11,11.83-8.66,19.87,2.23,7.77,4.83,8.44,12.32,10.46,5.23,1.41,9.75-1.74,14.68-3.11,7.23-2,3.94,14.24,3.42,17.21a73.45,73.45,0,0,0-1.49,15.5,1.23,1.23,0,0,0,.91,1.16c7.28,1.51,10.49-4.27,12.77-10.28A144.05,144.05,0,0,1,134.66,69c1.48-3,2.27-6.1,1.15-9.2,1.18.18,1.87.26,3.33.38.61,0,1-.55,1-1.07.74-7.64,4.69-10.92-1-17.1-.76-.84-1.6-1.8-2.5-2.8l.29-.26c1.66,1.87,4,2.87,5.41,5,1.14,1.71,2.2,3.44,3.49,5,1.07,1.33,2.77,1.69,3.6.75A70.71,70.71,0,0,1,150.38,58.47ZM144.86,67a1.13,1.13,0,0,0-1.15-1.1c-1.71-.16-3.88-.36-5.5.27a.89.89,0,0,0,0,1.7,6.14,6.14,0,0,0,1.31.34,20.69,20.69,0,0,0-2.13,9.37,1.06,1.06,0,0,0,1.06,1C143.72,79.18,144.79,70.6,144.86,67Z"/><path class="cls-3" d="M149,47a.91.91,0,0,0-.82.48c-.49.85-.05.48-.67-.18a17.4,17.4,0,0,1-1.78-2.47,37.54,37.54,0,0,0-2.5-3.62c-1.63-1.9-7.74-4.41-2.92-7.44a4.71,4.71,0,0,0,2.56-3.32c0-.05,0-.11,0-.16A60.48,60.48,0,0,1,149,47Z"/><path d="M143.71,65.9a1.13,1.13,0,0,1,1.15,1.1c-.07,3.6-1.14,12.18-6.38,11.6a1.06,1.06,0,0,1-1.06-1,20.69,20.69,0,0,1,2.13-9.37,6.14,6.14,0,0,1-1.31-.34.89.89,0,0,1,0-1.7C139.83,65.54,142,65.74,143.71,65.9Zm-4.17,10.45c2.25-.93,2.88-5.44,3-8.11-.57,0-1.17.07-1.76.06A31.36,31.36,0,0,0,139.54,76.35Z"/><path class="cls-3" d="M142.56,68.24c-.14,2.67-.77,7.18-3,8.11a31.36,31.36,0,0,1,1.26-8C141.39,68.31,142,68.28,142.56,68.24Z"/><path class="cls-3" d="M137.53,43.73c3,3,3.05,5.7,1.66,9.67-1.13,3.25-.54,4.58-4.19,5.18a1,1,0,0,0-.35-.06,1.36,1.36,0,0,0-1.2,1.9C135.84,65.69,130,71,128.3,75.61S125.48,85.37,122,89c-6.2,6.56-4.36-6.35-4.06-8.33.53-3.5,1.24-7,1.68-10.47.49-3.95.72-8.58-1.36-12.14-3.08-5.23-12.68,1.31-16.56,1.9-2.24.34-5.18-1-7.33-1.62-4.21-1.16-5.86-5.26-6.36-9.25-.83-6.68,6.18-11.84,8.8-17.75,1.48-2.22,7.91,4.84,10.37,5.26,2.29.4,4.95-1.17,7-2,2.6-1,4.73.21,7,.48a3.31,3.31,0,0,1,1.08.7.64.64,0,0,0,1-.15,1.1,1.1,0,0,0,.17-.72C129.06,33.3,133.84,40,137.53,43.73Z"/><path class="cls-2" d="M135.84,28q3.34-4.24,3.27,3.81a9.77,9.77,0,0,0-1.55,1.08,4.32,4.32,0,0,0-1.4,2,4.17,4.17,0,0,0,.83,4.09l-.29.26a37.19,37.19,0,0,0-5.94-5.55A11.26,11.26,0,0,0,135.84,28Z"/><path d="M133.55,13c24.08,21.32,28.4,63,3.91,85.55-11.82,12.2-26.57,16.11-43.74,13.9-16-2-31.58-8-40.95-21.71C38.7,70.16,45.14,39.71,60,21.29,78.33-1.59,110.46-7.4,133.55,13Zm3.22,81.51c8.26-10.48,14.09-21.86,13.61-36.07a70.71,70.71,0,0,0-.89-8.8c-.83.94-2.53.58-3.6-.75-1.29-1.59-2.35-3.32-3.49-5-1.4-2.08-3.75-3.08-5.41-5a4.17,4.17,0,0,1-.83-4.09,4.32,4.32,0,0,1,1.4-2,9.77,9.77,0,0,1,1.55-1.08q.07-8.06-3.27-3.81a11.26,11.26,0,0,1-5.08,5.66,37.19,37.19,0,0,1,5.94,5.55c.9,1,1.74,2,2.5,2.8,5.66,6.18,1.71,9.46,1,17.1,0,.52-.42,1.12-1,1.07-1.46-.12-2.15-.2-3.33-.38,1.12,3.1.33,6.22-1.15,9.2a144.05,144.05,0,0,0-6.13,13.3c-2.28,6-5.49,11.79-12.77,10.28a1.23,1.23,0,0,1-.91-1.16,73.45,73.45,0,0,1,1.49-15.5c.52-3,3.81-19.23-3.42-17.21-4.93,1.37-9.45,4.52-14.68,3.11-7.49-2-10.09-2.69-12.32-10.46-2.32-8,5.15-13.54,8.66-19.87a1.11,1.11,0,0,1-.06-1.32c1-1.66,2.06-2.29,3.19-2.29,2.05,0,4.23,2.09,6.12,3.81,4.36,4,8.55.33,13.53-.18l.32,0c2,0,3.27,2,5.72.62a3.6,3.6,0,0,1,1.81-.66,9,9,0,0,1,3.41.94c2.57-.71,3.71-3,5.33-5.46a6.12,6.12,0,0,1,4-2.79,3.17,3.17,0,0,1,.89-.14,47.36,47.36,0,0,0-9.58-9.6,51.71,51.71,0,0,0-10.83-6.21c-4,2.32-5.23,6.85-9.38,9.19-1.81,1-3.71,1.76-5.53,2.7l-.09.05a5.52,5.52,0,0,1,5.13.42,9.16,9.16,0,0,1,3.07,4c1.25,2.9,2.6,4.27,5.33,4.54a.66.66,0,0,1,.57-.19l1.41.27a1,1,0,0,1-.22,2c-.35,0-.69,0-1,0-3.12-.09-5.54-1.09-7-4.17-.72-1.57-1.16-3.55-2.61-4.65-1.94-1.48-4.9-.77-6.89.8l.36.06a.38.38,0,0,1,0,.75l-1.45.24a6,6,0,0,0-.64,1,.63.63,0,0,1-1.16-.45,3.47,3.47,0,0,1,.2-.5.64.64,0,0,1-.41-.65c.35-4.66,6.26-5.16,9.29-7.43,3.25-2.44,5-6.69,8.18-9a45.66,45.66,0,0,0-22.4-2A1.1,1.1,0,0,1,93,5.6c-1.2,2-3.65,3.22-5.32,4.84-2.08,2-4.16,4.05-6.38,5.93s-5,3.75-7.95,4.15l-.18-1.66a6.34,6.34,0,0,0,1.3-.37,23.14,23.14,0,0,0,7.14-4.86c1.84-1.71,3.59-3.51,5.41-5.25a37.74,37.74,0,0,0,3.14-2.65l0,0a46.38,46.38,0,0,0-14.25,6,.65.65,0,0,1-.31.59,12.08,12.08,0,0,0-3.06,3.84l-1.73-.4c.08-.18.16-.35.25-.52a53,53,0,0,0-10,10.93c-.83,1.2-1.62,2.45-2.39,3.74-.14.7-.65,1.38-.86,2.07a6.49,6.49,0,0,0-.27,1.73,1.09,1.09,0,0,1,1,1c.18,2.84,3.52,3.2,4.08,6.11a4.58,4.58,0,0,1-.39,2.82c-1,2.17-1.11,5.88-1.37,8.2a.88.88,0,0,1-.88.81.74.74,0,0,1-.76-.78c0-.06,0-.12,0-.19a3.94,3.94,0,0,1-1.81.46.94.94,0,0,1-1-.92c.07-1.66.65-3.77.06-5.37-.54-1.43-1.71-1.26-3-1.29a2.3,2.3,0,0,1-1.48-.48C47.28,58.41,47,74.44,55,87.33a41.74,41.74,0,0,0,13.24,13.08c-3.74-5.29-6.27-11.85-9.81-17-2.34-3.38-4.68-6.87-5.46-11a17.63,17.63,0,0,1,.41-5l2.07.31c-.7,4.58.89,8.58,3.62,12.5,3,4.35,6.36,9,8.58,13.83,1.72,3.75,3.73,7.19,6.86,9.71.21.1.43.17.64.26-.67-3.39-2.88-5.94-3.61-9.45-.66-3.22-1.09-6.5-1.45-9.77-.55-5,.22-10.72,4.77-13.74,6.66-4.43-2.81-10.08-7.09-11.9-4.57-2-11.86-4.35-13.44,1.16l-1.88.23c-.67-4.54,2.76-5.64,7.22-5.15,6,.67,14,4.29,16.24,6.31,3.49,3.11,5.5,7.51,1.11,10.51-6.46,4.42-5.41,14.93-3.25,21.69,1.31,4.09,3.6,7,3.89,11.13A62.53,62.53,0,0,0,94,108.7c8.72.77,18.46,1.32,26.62-2.5a53.34,53.34,0,0,0,11.71-7.77v0a1,1,0,0,1,1.14-.93C134.6,96.51,135.68,95.54,136.77,94.54Zm11.38-47.1A.91.91,0,0,1,149,47a60.48,60.48,0,0,0-6.11-16.71c0,.05,0,.11,0,.16a4.71,4.71,0,0,1-2.56,3.32c-4.82,3,1.29,5.54,2.92,7.44a37.54,37.54,0,0,1,2.5,3.62,17.4,17.4,0,0,0,1.78,2.47C148.1,47.92,147.66,48.29,148.15,47.44Zm-9,6c1.39-4,1.3-6.69-1.66-9.67C133.84,40,129.06,33.3,123.37,35a1.1,1.1,0,0,1-.17.72.64.64,0,0,1-1,.15,3.31,3.31,0,0,0-1.08-.7c-2.25-.27-4.38-1.52-7-.48-2,.79-4.68,2.36-7,2-2.46-.42-8.89-7.48-10.37-5.26-2.62,5.91-9.63,11.07-8.8,17.75.5,4,2.15,8.09,6.36,9.25,2.15.6,5.09,2,7.33,1.62,3.88-.59,13.48-7.13,16.56-1.9,2.08,3.56,1.85,8.19,1.36,12.14-.44,3.51-1.15,7-1.68,10.47-.3,2-2.14,14.89,4.06,8.33,3.48-3.67,4.58-8.82,6.3-13.43s7.54-9.92,5.15-15.19a1.36,1.36,0,0,1,1.2-1.9,1,1,0,0,1,.35.06C138.65,58,138.06,56.65,139.19,53.4Zm-79.5-8.76c.05-1.67,2.23-3.7-.16-5a5.59,5.59,0,0,1-3-3.28.89.89,0,0,1-.74-.65c0-.12-.05-.25-.08-.37-1,2-1.88,4-2.67,6.06a.67.67,0,0,1,.34,1c-.38.73-.62.72.13.7A14,14,0,0,1,55,43a3.15,3.15,0,0,1,2.15.8c1.48,1.79,1.34,3.92,1.24,6.09a8.89,8.89,0,0,0,1-1.45C59.52,47.19,59.65,45.92,59.69,44.64Z"/><path class="cls-3" d="M138.84,24a3.17,3.17,0,0,0-.89.14,6.12,6.12,0,0,0-4,2.79c-1.62,2.51-2.76,4.75-5.33,5.46a9,9,0,0,0-3.41-.94,3.6,3.6,0,0,0-1.81.66c-2.45,1.39-3.68-.62-5.72-.62v-.35c.34,0,.68,0,1,0a1,1,0,0,0,.22-2l-1.41-.27a.66.66,0,0,0-.57.19c-2.73-.27-4.08-1.64-5.33-4.54a9.16,9.16,0,0,0-3.07-4,5.52,5.52,0,0,0-5.13-.42l.09-.05c1.82-.94,3.72-1.69,5.53-2.7,4.15-2.34,5.34-6.87,9.38-9.19a51.71,51.71,0,0,1,10.83,6.21A47.36,47.36,0,0,1,138.84,24Z"/><path class="cls-3" d="M117.69,31.13v.35l-.32,0c-5,.51-9.17,4.13-13.53.18-1.89-1.72-4.07-3.81-6.12-3.81l1-2.42a.6.6,0,0,0,.76-.29,6,6,0,0,1,.64-1l1.45-.24a.38.38,0,0,0,0-.75l-.36-.06c2-1.57,5-2.28,6.89-.8,1.45,1.1,1.89,3.08,2.61,4.65C112.15,30,114.57,31,117.69,31.13Z"/><path class="cls-3" d="M90.14,5.69l0,0A37.74,37.74,0,0,1,87,8.38c-1.82,1.74-3.57,3.54-5.41,5.25a23.14,23.14,0,0,1-7.14,4.86,6.34,6.34,0,0,1-1.3.37c-1.64.22-1.46-1.16-.67-2.74a12.08,12.08,0,0,1,3.06-3.84.65.65,0,0,0,.31-.59A46.38,46.38,0,0,1,90.14,5.69Z"/><path class="cls-3" d="M67.8,59.18c4.28,1.82,13.75,7.47,7.09,11.9-4.55,3-5.32,8.77-4.77,13.74.36,3.27.79,6.55,1.45,9.77.73,3.51,2.94,6.06,3.61,9.45-.21-.09-.43-.16-.64-.26-3.13-2.52-5.14-6-6.86-9.71-2.22-4.84-5.54-9.48-8.58-13.83-2.73-3.92-4.32-7.92-3.62-12.5A15.83,15.83,0,0,1,56,65.51c.7-2.33,0-3.62-1.63-5.17C55.94,54.83,63.23,57.22,67.8,59.18Z"/><path d="M73.19,18.86l.18,1.66a8.57,8.57,0,0,1-3-.08.85.85,0,0,1-.65-.83,11.52,11.52,0,0,1,1.05-3.89l1.73.4C71.73,17.7,71.55,19.08,73.19,18.86Z"/><path class="cls-2" d="M58.46,83.44c3.54,5.12,6.07,11.68,9.81,17A41.74,41.74,0,0,1,55,87.33C47,74.44,47.28,58.41,52.1,44.09a2.3,2.3,0,0,0,1.48.48c1.27,0,2.44-.14,3,1.29.59,1.6,0,3.71-.06,5.37a.94.94,0,0,0,1,.92,3.94,3.94,0,0,0,1.81-.46c0,.07,0,.13,0,.19a.74.74,0,0,0,.76.78l-.31,2.76c-4.46-.49-7.89.61-7.22,5.15v0a1.06,1.06,0,0,0,.2,1.33s.09.11.14.16.08.31.13.48a.51.51,0,0,0,.38.35,9.79,9.79,0,0,1,.08,4.51,17.63,17.63,0,0,0-.41,5C53.78,76.57,56.12,80.06,58.46,83.44Z"/><path class="cls-3" d="M59.53,39.61c2.39,1.33.21,3.36.16,5,0,1.28-.17,2.55-.29,3.82a8.89,8.89,0,0,1-1,1.45c.1-2.17.24-4.3-1.24-6.09A3.15,3.15,0,0,0,55,43a14,14,0,0,0-1.45,0c-.75,0-.51,0-.13-.7a.67.67,0,0,0-.34-1c.79-2.08,1.7-4.1,2.67-6.06,0,.12,0,.25.08.37a.89.89,0,0,0,.74.65A5.59,5.59,0,0,0,59.53,39.61Z"/><path d="M54.36,60.34C56,61.89,56.69,63.18,56,65.51a15.83,15.83,0,0,0-.51,2.23l-2.07-.31a9.79,9.79,0,0,0-.08-4.51.51.51,0,0,1-.38-.35c-.05-.17-.09-.32-.13-.48s-.09-.12-.14-.16a1.06,1.06,0,0,1-.2-1.33v0Z"/><path class="cls-4" d="M143.71,65.9c-1.71-.16-3.88-.36-5.5.27a.89.89,0,0,0,0,1.7,6.14,6.14,0,0,0,1.31.34,20.69,20.69,0,0,0-2.13,9.37,1.06,1.06,0,0,0,1.06,1c5.24.58,6.31-8,6.38-11.6A1.13,1.13,0,0,0,143.71,65.9Z"/><path class="cls-4" d="M139.54,76.35a31.36,31.36,0,0,1,1.26-8c.59,0,1.19,0,1.76-.06C142.42,70.91,141.79,75.42,139.54,76.35Z"/><path class="cls-4" d="M133.55,13C110.46-7.4,78.33-1.59,60,21.29,45.14,39.71,38.7,70.16,52.77,90.77c9.37,13.71,25,19.66,40.95,21.71,17.17,2.21,31.92-1.7,43.74-13.9C162,76,157.63,34.35,133.55,13Z"/><path class="cls-4" d="M140.28,33.73a4.71,4.71,0,0,0,2.56-3.32c0-.05,0-.11,0-.16A60.48,60.48,0,0,1,149,47a.91.91,0,0,0-.82.48c-.49.85-.05.48-.67-.18a17.4,17.4,0,0,1-1.78-2.47,37.54,37.54,0,0,0-2.5-3.62C141.57,39.27,135.46,36.76,140.28,33.73Z"/><path class="cls-4" d="M72.52,16.12a12.08,12.08,0,0,1,3.06-3.84.65.65,0,0,0,.31-.59,46.38,46.38,0,0,1,14.25-6l0,0A37.74,37.74,0,0,1,87,8.38c-1.82,1.74-3.57,3.54-5.41,5.25a23.14,23.14,0,0,1-7.14,4.86,6.34,6.34,0,0,1-1.3.37C71.55,19.08,71.73,17.7,72.52,16.12Z"/><path class="cls-4" d="M53.09,41.37c.79-2.08,1.7-4.1,2.67-6.06,0,.12,0,.25.08.37a.89.89,0,0,0,.74.65,5.59,5.59,0,0,0,3,3.28c2.39,1.33.21,3.36.16,5,0,1.28-.17,2.55-.29,3.82a8.89,8.89,0,0,1-1,1.45c.1-2.17.24-4.3-1.24-6.09A3.15,3.15,0,0,0,55,43a14,14,0,0,0-1.45,0c-.75,0-.51,0-.13-.7A.67.67,0,0,0,53.09,41.37Z"/><path class="cls-4" d="M54.36,60.34c1.58-5.51,8.87-3.12,13.44-1.16,4.28,1.82,13.75,7.47,7.09,11.9-4.55,3-5.32,8.77-4.77,13.74.36,3.27.79,6.55,1.45,9.77.73,3.51,2.94,6.06,3.61,9.45-.21-.09-.43-.16-.64-.26-3.13-2.52-5.14-6-6.86-9.71-2.22-4.84-5.54-9.48-8.58-13.83-2.73-3.92-4.32-7.92-3.62-12.5A15.83,15.83,0,0,1,56,65.51C56.69,63.18,56,61.89,54.36,60.34Z"/><path class="cls-4" d="M137,38.94c1.66,1.87,4,2.87,5.41,5,1.14,1.71,2.2,3.44,3.49,5,1.07,1.33,2.77,1.69,3.6.75a70.71,70.71,0,0,1,.89,8.8c.48,14.21-5.35,25.59-13.61,36.07-1.09,1-2.17,2-3.28,2.93a1,1,0,0,0-1.14.93v0a53.34,53.34,0,0,1-11.71,7.77c-8.16,3.82-17.9,3.27-26.62,2.5a62.53,62.53,0,0,1-16.33-3.64c-.29-4.13-2.58-7-3.89-11.13-2.16-6.76-3.21-17.27,3.25-21.69,4.39-3,2.38-7.4-1.11-10.51-2.26-2-10.2-5.64-16.24-6.31-4.46-.49-7.89.61-7.22,5.15v0a1.06,1.06,0,0,0,.2,1.33s.09.11.14.16.08.31.13.48a.51.51,0,0,0,.38.35,9.79,9.79,0,0,1,.08,4.51,17.63,17.63,0,0,0-.41,5c.78,4.1,3.12,7.59,5.46,11,3.54,5.12,6.07,11.68,9.81,17A41.74,41.74,0,0,1,55,87.33C47,74.44,47.28,58.41,52.1,44.09a2.3,2.3,0,0,0,1.48.48c1.27,0,2.44-.14,3,1.29.59,1.6,0,3.71-.06,5.37a.94.94,0,0,0,1,.92,3.94,3.94,0,0,0,1.81-.46c0,.07,0,.13,0,.19a.74.74,0,0,0,.76.78.88.88,0,0,0,.88-.81c.26-2.32.38-6,1.37-8.2a4.58,4.58,0,0,0,.39-2.82c-.56-2.91-3.9-3.27-4.08-6.11a1.09,1.09,0,0,0-1-1,6.49,6.49,0,0,1,.27-1.73c.21-.69.72-1.37.86-2.07.77-1.29,1.56-2.54,2.39-3.74A53,53,0,0,1,71,15.2c-.09.17-.17.34-.25.52a11.52,11.52,0,0,0-1.05,3.89.85.85,0,0,0,.65.83,8.57,8.57,0,0,0,3,.08c2.95-.4,5.63-2.21,7.95-4.15s4.3-3.91,6.38-5.93C89.37,8.82,91.82,7.56,93,5.6a1.1,1.1,0,0,0,.17-.52,45.66,45.66,0,0,1,22.4,2c-3.14,2.35-4.93,6.6-8.18,9-3,2.27-8.94,2.77-9.29,7.43a.64.64,0,0,0,.41.65,3.47,3.47,0,0,0-.2.5.63.63,0,0,0,1.16.45,6,6,0,0,1,.64-1l1.45-.24a.38.38,0,0,0,0-.75l-.36-.06c2-1.57,5-2.28,6.89-.8,1.45,1.1,1.89,3.08,2.61,4.65,1.44,3.08,3.86,4.08,7,4.17.34,0,.68,0,1,0a1,1,0,0,0,.22-2l-1.41-.27a.66.66,0,0,0-.57.19c-2.73-.27-4.08-1.64-5.33-4.54a9.16,9.16,0,0,0-3.07-4,5.52,5.52,0,0,0-5.13-.42l.09-.05c1.82-.94,3.72-1.69,5.53-2.7,4.15-2.34,5.34-6.87,9.38-9.19a51.71,51.71,0,0,1,10.83,6.21,47.36,47.36,0,0,1,9.58,9.6,3.17,3.17,0,0,0-.89.14,6.12,6.12,0,0,0-4,2.79c-1.62,2.51-2.76,4.75-5.33,5.46a9,9,0,0,0-3.41-.94,3.6,3.6,0,0,0-1.81.66c-2.45,1.39-3.68-.62-5.72-.62l-.32,0c-5,.51-9.17,4.13-13.53.18-1.89-1.72-4.07-3.81-6.12-3.81-1.13,0-2.21.63-3.19,2.29a1.11,1.11,0,0,0,.06,1.32c-3.51,6.33-11,11.83-8.66,19.87,2.23,7.77,4.83,8.44,12.32,10.46,5.23,1.41,9.75-1.74,14.68-3.11,7.23-2,3.94,14.24,3.42,17.21a73.45,73.45,0,0,0-1.49,15.5,1.23,1.23,0,0,0,.91,1.16c7.28,1.51,10.49-4.27,12.77-10.28A144.05,144.05,0,0,1,134.66,69c1.48-3,2.27-6.1,1.15-9.2,1.18.18,1.87.26,3.33.38.61,0,1-.55,1-1.07.74-7.64,4.69-10.92-1-17.1-.76-.84-1.6-1.8-2.5-2.8a37.19,37.19,0,0,0-5.94-5.55A11.26,11.26,0,0,0,135.84,28q3.34-4.24,3.27,3.81a9.77,9.77,0,0,0-1.55,1.08,4.32,4.32,0,0,0-1.4,2A4.17,4.17,0,0,0,137,38.94Z"/><path class="cls-4" d="M133.45,60.42C135.84,65.69,130,71,128.3,75.61S125.48,85.37,122,89c-6.2,6.56-4.36-6.35-4.06-8.33.53-3.5,1.24-7,1.68-10.47.49-3.95.72-8.58-1.36-12.14-3.08-5.23-12.68,1.31-16.56,1.9-2.24.34-5.18-1-7.33-1.62-4.21-1.16-5.86-5.26-6.36-9.25-.83-6.68,6.18-11.84,8.8-17.75,1.48-2.22,7.91,4.84,10.37,5.26,2.29.4,4.95-1.17,7-2,2.6-1,4.73.21,7,.48a3.31,3.31,0,0,1,1.08.7.64.64,0,0,0,1-.15,1.1,1.1,0,0,0,.17-.72c5.69-1.69,10.47,5,14.16,8.74,3,3,3.05,5.7,1.66,9.67-1.13,3.25-.54,4.58-4.19,5.18a1,1,0,0,0-.35-.06A1.36,1.36,0,0,0,133.45,60.42Z"/></g></g></svg>