<svg xmlns="http://www.w3.org/2000/svg" width="22.644" height="22.903" viewBox="0 0 22.644 22.903">
  <g id="Group_34" data-name="Group 34" transform="translate(0.5 0.5)">
    <path id="Path_8" data-name="Path 8" d="M-1510.7-635.481c-1.082-2.739.31-3.34,2.751-6.053.063.689-.69,4.826,1.4,4.845a2.062,2.062,0,0,0,1.72-1.309c.291-.93-.443-1.638-.816-2.549-.417-1-.7-1.948.3-2.764.639-.519,1.3-.892,1.822-1.284.917-.683,1.436-1.4.727-3a2.819,2.819,0,0,1,1.625,1.67c.652,1.657-2.846,4.073-1.126,5.161.31.2.734.2,1.366-.316a4.638,4.638,0,0,0,1.518-3,3.717,3.717,0,0,1,.4,3.713c-.5,1.107-1.7,1.448-1.29,2.739l.038.114a1.511,1.511,0,0,0,2.289.708c.854-.835-.1-2.72,2.758-3.308a6.186,6.186,0,0,0-.36,4.491" transform="translate(1513.835 647.6)" fill="none" stroke="#fff" stroke-linecap="round" stroke-linejoin="round" stroke-width="1"/>
    <path id="Path_9" data-name="Path 9" d="M-1538.855-428.8h3.991a1.713,1.713,0,0,1,1.708,1.708v4.649a1.713,1.713,0,0,1-1.708,1.708h-18.229a1.713,1.713,0,0,1-1.708-1.708v-4.649a1.713,1.713,0,0,1,1.708-1.708h12.03" transform="translate(1554.8 442.639)" fill="none" stroke="#fff" stroke-linecap="round" stroke-linejoin="round" stroke-width="1"/>
    <line id="Line_3" data-name="Line 3" y2="4.023" transform="translate(3.143 15.895)" fill="none" stroke="#fff" stroke-linecap="round" stroke-linejoin="round" stroke-width="1"/>
    <line id="Line_4" data-name="Line 4" y1="1.866" x2="1.822" transform="translate(3.877 15.825)" fill="none" stroke="#fff" stroke-linecap="round" stroke-linejoin="round" stroke-width="1"/>
    <line id="Line_5" data-name="Line 5" x2="1.891" y2="2.239" transform="translate(3.877 17.691)" fill="none" stroke="#fff" stroke-linecap="round" stroke-linejoin="round" stroke-width="1"/>
    <line id="Line_6" data-name="Line 6" x2="2.403" transform="translate(11.891 19.101)" fill="none" stroke="#fff" stroke-linecap="round" stroke-linejoin="round" stroke-width="1"/>
    <line id="Line_7" data-name="Line 7" y2="4.029" transform="translate(16.293 15.857)" fill="none" stroke="#fff" stroke-linecap="round" stroke-linejoin="round" stroke-width="1"/>
    <line id="Line_8" data-name="Line 8" x2="2.201" transform="translate(16.293 19.879)" fill="none" stroke="#fff" stroke-linecap="round" stroke-linejoin="round" stroke-width="1"/>
    <path id="Path_10" data-name="Path 10" d="M-1439.356-396.751l-.835-.076c-2.448-.215-2.321,3.675-.468,4.023a7.311,7.311,0,0,0,1.4-.025" transform="translate(1449.172 412.696)" fill="none" stroke="#fff" stroke-linecap="round" stroke-linejoin="round" stroke-width="1"/>
    <path id="Path_11" data-name="Path 11" d="M-1367.1-392.871l-1.075-4.029-.607.006-.038-.006-1.075,4.029" transform="translate(1381.595 412.756)" fill="none" stroke="#fff" stroke-linecap="round" stroke-linejoin="round" stroke-width="1"/>
  </g>
</svg>
