<svg xmlns="http://www.w3.org/2000/svg" width="41.694" height="41.17" viewBox="0 0 41.694 41.17">
  <g id="Group_133" data-name="Group 133" transform="translate(0.5 0.5)">
    <path id="Path_434" data-name="Path 434" d="M574.288-623.8c.575.317,1.139.658,1.68,1.022a16.94,16.94,0,0,1,1.562,1.174c.494.423.987.857,1.445,1.315a19.172,19.172,0,0,1,1.315,1.445c.411.505.81,1.022,1.175,1.562s.7,1.1,1.022,1.679.6,1.174.857,1.773.481,1.233.681,1.867.364,1.292.5,1.95a18.981,18.981,0,0,1,.305,2.02,20.159,20.159,0,0,1,.106,2.079,20.163,20.163,0,0,1-.106,2.079c-.07.681-.176,1.362-.305,2.02s-.305,1.315-.5,1.949-.423,1.257-.681,1.867a19,19,0,0,1-.857,1.773c-.317.576-.658,1.139-1.022,1.68a16.968,16.968,0,0,1-1.175,1.562,19.194,19.194,0,0,1-1.315,1.445,19.138,19.138,0,0,1-1.445,1.315c-.505.411-1.022.81-1.562,1.174s-1.1.7-1.68,1.022-1.174.6-1.773.857-1.233.482-1.867.681-1.292.364-1.95.505c-.329.07-.669.129-1,.176" transform="translate(-544.247 625.902)" fill="none" stroke="#fff" stroke-linecap="round" stroke-linejoin="round" stroke-width="1"/>
    <path id="Path_435" data-name="Path 435" d="M385.241-585.707c-.341-.047-.669-.106-1-.176-.658-.141-1.315-.305-1.95-.505s-1.257-.423-1.867-.681a18.94,18.94,0,0,1-1.773-.857c-.575-.317-1.139-.658-1.679-1.022a16.967,16.967,0,0,1-1.562-1.174,19.254,19.254,0,0,1-1.445-1.316,19.163,19.163,0,0,1-1.315-1.445c-.411-.5-.81-1.022-1.174-1.562s-.7-1.1-1.022-1.679-.6-1.175-.857-1.773-.481-1.233-.681-1.867-.364-1.292-.5-1.95a19.034,19.034,0,0,1-.305-2.02,20.216,20.216,0,0,1-.106-2.078,20.217,20.217,0,0,1,.106-2.079c.071-.681.176-1.363.305-2.02s.305-1.315.5-1.95.423-1.257.681-1.867a18.949,18.949,0,0,1,.857-1.773c.317-.576.658-1.139,1.022-1.679a16.948,16.948,0,0,1,1.174-1.562,19.155,19.155,0,0,1,1.315-1.445,19.222,19.222,0,0,1,1.445-1.315c.505-.411,1.022-.81,1.562-1.174s1.1-.705,1.679-1.022" transform="translate(-368 625.814)" fill="none" stroke="#fff" stroke-linecap="round" stroke-linejoin="round" stroke-width="1"/>
    <path id="Path_436" data-name="Path 436" d="M624.209-441.2a16.262,16.262,0,0,1-.881,3.171,16.973,16.973,0,0,1-1.456,2.924,17.031,17.031,0,0,1-1.985,2.6,17.523,17.523,0,0,1-2.466,2.185c-.388.282-.8.552-1.221.81" transform="translate(-587.051 464.747)" fill="none" stroke="#fff" stroke-linecap="round" stroke-linejoin="round" stroke-width="1"/>
    <path id="Path_437" data-name="Path 437" d="M493.36-626.632a4.989,4.989,0,0,0,2.431-4.1,4.989,4.989,0,0,0-2.431-4.1,4.989,4.989,0,0,0-2.431,4.1,4.961,4.961,0,0,0,2.431,4.1Zm.364,5.109a5.276,5.276,0,0,0,4.71-1.233,4.9,4.9,0,0,0,1.268-4.568,5.857,5.857,0,0,0-2.56.059m-3.418,12.3a5.276,5.276,0,0,0,4.71-1.233,4.9,4.9,0,0,0,1.268-4.568m-5.978,12.355a5.276,5.276,0,0,0,4.71-1.233,4.9,4.9,0,0,0,1.268-4.569m-6.506-7.3a5.275,5.275,0,0,1-4.709-1.233,4.9,4.9,0,0,1-1.268-4.568,6.212,6.212,0,0,1,2.6.059m3.382,12.3a5.276,5.276,0,0,1-4.709-1.233,4.9,4.9,0,0,1-1.268-4.568m5.978,12.355a5.275,5.275,0,0,1-4.709-1.233,4.9,4.9,0,0,1-1.268-4.569m6.166-9.759.024,2.279m.035,3.136.035,3.441m.024,3.042-.024,10.37M487.1-641.559l.117,14.234m3.053-14.375v6.036m3.183-6.036v4.075m3.183-4.075v6.036m3.183-5.9v14.234" transform="translate(-473.113 641.7)" fill="none" stroke="#fff" stroke-linecap="round" stroke-linejoin="round" stroke-width="1"/>
  </g>
</svg>
