<svg xmlns="http://www.w3.org/2000/svg" width="18.25" height="18.308" viewBox="0 0 18.25 18.308">
  <g id="Group_71" data-name="Group 71" transform="translate(0.5 0.5)">
    <path id="Path_827" data-name="Path 827" d="M1659.37-620.479a6.682,6.682,0,0,1-6.683,6.683,6.686,6.686,0,0,1-6.688-6.683c0-3.494,4.46-7.806,6.683-10.621.493.626,2.109,2.627,2.75,3.371" transform="translate(-1646 631.105)" fill="none" stroke="#fff" stroke-linecap="round" stroke-linejoin="round" stroke-width="1"/>
    <path id="Path_828" data-name="Path 828" d="M1828.665-391.5a5.335,5.335,0,0,1-.3.976,5.238,5.238,0,0,1-.478.882,5.257,5.257,0,0,1-.636.769,5.262,5.262,0,0,1-.769.636,5.248,5.248,0,0,1-.882.478" transform="translate(-1816.749 403.313)" fill="none" stroke="#fff" stroke-linecap="round" stroke-linejoin="round" stroke-width="1"/>
    <path id="Path_829" data-name="Path 829" d="M1852.632-625.3a3.76,3.76,0,0,1-3.716,3.716,3.712,3.712,0,0,1-3.716-3.716c0-1.942,2.479-4.337,3.716-5.9,1.065,1.345,3.785,3.79,3.716,5.9Z" transform="translate(-1835.383 631.2)" fill="none" stroke="#fff" stroke-linecap="round" stroke-linejoin="round" stroke-width="1"/>
    <path id="Path_830" data-name="Path 830" d="M1938.359-515.4a2.83,2.83,0,0,1-.059.582,2.87,2.87,0,0,1-.167.542,2.929,2.929,0,0,1-.266.488,3.215,3.215,0,0,1-.35.429,2.69,2.69,0,0,1-.429.35,2.9,2.9,0,0,1-.488.266" transform="translate(-1922.278 521.107)" fill="none" stroke="#fff" stroke-linecap="round" stroke-linejoin="round" stroke-width="1"/>
  </g>
</svg>
