<svg xmlns="http://www.w3.org/2000/svg" width="41" height="41" viewBox="0 0 41 41">
  <g id="Group_132" data-name="Group 132" transform="translate(0.5 0.5)">
    <path id="Path_71" data-name="Path 71" d="M1041.441.61l-6.359-3.289m4.778,10.2c.842-.831.577-2.977-.681-4.674l-4.1-5.528a7.154,7.154,0,0,1-1.512-3.947l-2.654,2.643c-.842.831-.5,2.9.762,4.593l1.12,1.512m-8.263.231c.843-.831,2.978-.554,4.905.485l6.266,3.381a8.7,8.7,0,0,0,4.362,1.108l-2.654,2.643c-.842.831-3.07.508-5.02-.369l-5.886-2.654m4.524,9.359c.843-.831.369-2.781-.888-4.478l-4.1-5.528a7.154,7.154,0,0,1-1.512-3.947L1021.88,5c-.842.831-.5,2.9.762,4.593l1.131,1.523m-8.275.219c.842-.831,2.977-.554,4.9.485l6.267,3.381a8.7,8.7,0,0,0,4.362,1.108l-2.655,2.643c-.842.831-3.069.508-5.02-.369l-5.885-2.654m4.512,9.359c.842-.831.369-2.781-.889-4.478l-4.1-5.528a7.154,7.154,0,0,1-1.512-3.947l-2.654,2.643c-.842.831-.5,2.9.762,4.593l1.685,2.262M1027.2-11a20,20,0,1,1-20,20,20,20,0,0,1,20-20Zm16.492,23.116a16.675,16.675,0,0,1-4.27,8.529A17.078,17.078,0,0,1,1037,22.78a16.859,16.859,0,0,1-2.839,1.65" transform="translate(-1007.2 11)" fill="none" stroke="#fff" stroke-linecap="round" stroke-linejoin="round" stroke-width="1"/>
  </g>
</svg>
