<svg xmlns="http://www.w3.org/2000/svg" width="73.242" height="73.481" viewBox="0 0 73.242 73.481">
  <g id="Group_130" data-name="Group 130" transform="translate(1 1)">
    <path id="Path_827" data-name="Path 827" d="M1701.218-587.238a27.6,27.6,0,0,1-27.6,27.6,27.613,27.613,0,0,1-27.619-27.6c0-14.431,18.42-32.24,27.6-43.862,2.036,2.585,8.711,10.849,11.357,13.922" transform="translate(-1646 631.12)" fill="none" stroke="#fff" stroke-linecap="round" stroke-linejoin="round" stroke-width="2"/>
    <path id="Path_828" data-name="Path 828" d="M1838.26-391.5a22.082,22.082,0,0,1-1.242,4.03,21.679,21.679,0,0,1-1.974,3.643,21.722,21.722,0,0,1-2.625,3.175,21.755,21.755,0,0,1-3.175,2.626,21.659,21.659,0,0,1-3.643,1.974" transform="translate(-1789.045 440.287)" fill="none" stroke="#fff" stroke-linecap="round" stroke-linejoin="round" stroke-width="2"/>
    <path id="Path_829" data-name="Path 829" d="M1875.893-606.817c-.286,8.467-6.859,15.347-15.346,15.347a15.332,15.332,0,0,1-15.347-15.347c0-8.019,10.238-17.911,15.347-24.383,4.4,5.556,15.632,15.652,15.346,24.383Z" transform="translate(-1804.656 631.2)" fill="none" stroke="#fff" stroke-linecap="round" stroke-linejoin="round" stroke-width="2"/>
    <path id="Path_830" data-name="Path 830" d="M1943.865-515.4a11.71,11.71,0,0,1-.244,2.4,11.936,11.936,0,0,1-.692,2.239,12.118,12.118,0,0,1-1.1,2.015,13.407,13.407,0,0,1-1.446,1.771,11.167,11.167,0,0,1-1.77,1.445,12.06,12.06,0,0,1-2.015,1.1" transform="translate(-1877.453 538.969)" fill="none" stroke="#fff" stroke-linecap="round" stroke-linejoin="round" stroke-width="2"/>
  </g>
</svg>
