<svg xmlns="http://www.w3.org/2000/svg" width="40.536" height="41.01" viewBox="0 0 40.536 41.01">
  <g id="Group_131" data-name="Group 131" transform="translate(0.5 0.5)">
    <path id="Path_8" data-name="Path 8" d="M-1510.391-625.463c-1.975-5,.566-6.1,5.026-11.057.115,1.259-1.259,8.815,2.553,8.85a3.768,3.768,0,0,0,3.143-2.391c.531-1.7-.809-2.992-1.49-4.656-.763-1.826-1.283-3.558.554-5.049,1.167-.947,2.368-1.629,3.328-2.345,1.675-1.248,2.623-2.565,1.329-5.488.947.139,2.368,1.536,2.969,3.05,1.19,3.027-5.2,7.441-2.056,9.428.566.358,1.34.37,2.5-.578,1.271-1.04,2.912-3.824,2.773-5.477,1.317,2.218,1.86,4.321.74,6.782-.913,2.022-3.1,2.646-2.357,5l.069.208c.508,1.733,3.073,2.38,4.182,1.294,1.56-1.525-.185-4.968,5.037-6.043a11.3,11.3,0,0,0-.659,8.2" transform="translate(1516.122 647.6)" fill="none" stroke="#fff" stroke-linecap="round" stroke-linejoin="round" stroke-width="1"/>
    <path id="Path_9" data-name="Path 9" d="M-1525.674-428.8h7.291a3.129,3.129,0,0,1,3.12,3.119v8.492a3.129,3.129,0,0,1-3.12,3.119h-33.3a3.129,3.129,0,0,1-3.119-3.119v-8.492a3.129,3.129,0,0,1,3.119-3.119h21.975" transform="translate(1554.8 454.079)" fill="none" stroke="#fff" stroke-linecap="round" stroke-linejoin="round" stroke-width="1"/>
    <line id="Line_3" data-name="Line 3" y2="7.348" transform="translate(5.742 29.034)" fill="none" stroke="#fff" stroke-linecap="round" stroke-linejoin="round" stroke-width="1"/>
    <line id="Line_4" data-name="Line 4" y1="3.408" x2="3.327" transform="translate(7.082 28.907)" fill="none" stroke="#fff" stroke-linecap="round" stroke-linejoin="round" stroke-width="1"/>
    <line id="Line_5" data-name="Line 5" x2="3.455" y2="4.09" transform="translate(7.082 32.315)" fill="none" stroke="#fff" stroke-linecap="round" stroke-linejoin="round" stroke-width="1"/>
    <line id="Line_6" data-name="Line 6" x2="4.39" transform="translate(21.721 34.892)" fill="none" stroke="#fff" stroke-linecap="round" stroke-linejoin="round" stroke-width="1"/>
    <line id="Line_7" data-name="Line 7" y2="7.36" transform="translate(29.762 28.965)" fill="none" stroke="#fff" stroke-linecap="round" stroke-linejoin="round" stroke-width="1"/>
    <line id="Line_8" data-name="Line 8" x2="4.021" transform="translate(29.762 36.313)" fill="none" stroke="#fff" stroke-linecap="round" stroke-linejoin="round" stroke-width="1"/>
    <path id="Path_10" data-name="Path 10" d="M-1437.137-396.681l-1.525-.139c-4.471-.393-4.24,6.713-.855,7.348a13.349,13.349,0,0,0,2.553-.046" transform="translate(1455.068 425.808)" fill="none" stroke="#fff" stroke-linecap="round" stroke-linejoin="round" stroke-width="1"/>
    <path id="Path_11" data-name="Path 11" d="M-1364.794-389.54l-1.964-7.36-1.109.012-.069-.012-1.964,7.36" transform="translate(1391.263 425.865)" fill="none" stroke="#fff" stroke-linecap="round" stroke-linejoin="round" stroke-width="1"/>
  </g>
</svg>
