<?xml version="1.0" encoding="utf-8"?>
<!-- Generator: Adobe Illustrator 21.1.0, SVG Export Plug-In . SVG Version: 6.00 Build 0)  -->
<svg version="1.1" id="Layer_1" xmlns="http://www.w3.org/2000/svg" xmlns:xlink="http://www.w3.org/1999/xlink" x="0px" y="0px"
	 viewBox="0 0 1349 910" style="enable-background:new 0 0 1349 910;" xml:space="preserve">
<style type="text/css">
	.st0{fill:#00AEEF;}
	.st1{opacity:0.5;}
	.st2{fill:#FDFDFD;}
</style>
<rect class="st0" width="1349" height="910"/>
<g class="st1">
	<g>
		<path class="st2" d="M1061.919,689.842c7.7-17.294-0.106-37.629-17.4-45.329c-17.295-7.7-37.629,0.106-45.329,17.4
			c-7.219,16.214-0.809,35.1,14.272,43.741l-2.8,6.289c-2.237-0.199-4.456,1.016-5.419,3.179l-29.896,67.149
			c-1.212,2.722,0.017,5.922,2.738,7.134l3.214,1.431c2.722,1.212,5.922-0.017,7.134-2.738l29.896-67.149
			c0.963-2.163,0.381-4.625-1.264-6.154l2.8-6.289C1036.376,713.93,1054.7,706.056,1061.919,689.842z M1000.685,662.58
			c7.333-16.47,26.698-23.903,43.168-16.57c16.47,7.333,23.903,26.698,16.571,43.167c-7.333,16.47-26.698,23.903-43.167,16.571
			C1000.786,698.414,993.352,679.05,1000.685,662.58z M1016.832,720.284l-29.896,67.148c-0.845,1.897-3.075,2.753-4.972,1.909
			l-3.214-1.431c-1.897-0.844-2.753-3.075-1.908-4.972l29.896-67.148c0.845-1.897,3.075-2.754,4.972-1.909l3.214,1.431
			C1016.82,716.156,1017.677,718.387,1016.832,720.284z M1016.401,714.271c-0.254-0.171-0.523-0.326-0.812-0.455l-3.214-1.431
			c-0.289-0.129-0.584-0.224-0.881-0.299l2.69-6.041c0.782,0.424,1.58,0.83,2.407,1.198c0.826,0.368,1.662,0.689,2.5,0.987
			L1016.401,714.271z"/>
		<path class="st2" d="M1058.357,688.257c6.826-15.331-0.094-33.356-15.424-40.181c-15.331-6.826-33.356,0.094-40.182,15.425
			c-6.826,15.331,0.094,33.356,15.425,40.182C1033.506,710.507,1051.531,703.588,1058.357,688.257z M1003.499,663.833
			c6.642-14.918,24.183-21.651,39.101-15.01c14.918,6.642,21.651,24.183,15.009,39.101c-6.642,14.918-24.182,21.652-39.101,15.01
			C1003.591,696.292,996.857,678.751,1003.499,663.833z"/>
		<g>
			<g>
				<g>
					<path class="st2" d="M1191.397,662.609c-4.639,1.006-9.16-0.82-11.799-4.765c-0.954-1.426-1.556-2.974-1.811-4.554
						l-11.555,8.141c-0.526,0.37-0.495,0.901-0.458,1.112c0.038,0.211,0.192,0.719,0.813,0.885l4.251,1.135
						c0.484,0.13,0.938,0.322,1.353,0.566c1.75,1.031,2.814,2.992,2.64,5.101l-0.362,4.386c-0.053,0.641,0.37,0.957,0.56,1.064
						c0.186,0.106,0.675,0.314,1.201-0.057l18.381-12.95C1193.585,662.41,1192.489,662.372,1191.397,662.609z"/>
				</g>
			</g>
			<g>
				<g>
					<path class="st2" d="M1213.371,689.206l1.521-14.053c-1.505,0.543-3.151,0.766-4.861,0.623
						c-4.73-0.397-8.518-3.466-9.886-8.011c-0.322-1.07-0.886-2.011-1.615-2.78l-2.42,22.354c-0.069,0.64,0.349,0.967,0.532,1.078
						c0.186,0.115,0.667,0.331,1.202-0.026l3.661-2.442c1.76-1.174,3.991-1.194,5.742-0.163c0.415,0.244,0.803,0.548,1.151,0.909
						l3.053,3.169c0.446,0.463,0.966,0.352,1.169,0.282C1212.823,690.075,1213.302,689.845,1213.371,689.206z"/>
				</g>
			</g>
			<g>
				<g>
					<path class="st2" d="M1206.04,672.079c-1.707-1.006-3.212-2.658-3.958-5.137c-1.346-4.471-6.344-7.415-10.907-6.426
						c-4.416,0.959-7.75-1.333-9.399-3.795c-1.646-2.463-2.49-6.419,0.081-10.136c2.75-3.974,1.969-9.479-1.776-12.534
						c-3.505-2.857-3.792-6.892-2.892-9.716c0.898-2.822,3.463-5.947,7.973-6.254c4.822-0.329,8.64-4.373,8.69-9.203
						c0.053-4.522,3.028-7.263,5.795-8.32c2.769-1.056,6.811-0.993,9.862,2.334c3.269,3.552,8.805,4.024,12.615,1.055
						c3.566-2.779,7.562-2.162,10.115-0.657c2.553,1.504,5.029,4.703,4.326,9.166c-0.753,4.776,2.346,9.397,7.038,10.524
						c4.391,1.051,6.404,4.559,6.821,7.495c0.418,2.934-0.54,6.866-4.47,9.101c-4.202,2.387-5.886,7.684-3.837,12.062
						c1.917,4.093,0.426,7.852-1.609,10.006c-2.035,2.155-5.703,3.857-9.898,2.177c-4.487-1.795-9.681,0.19-11.826,4.521
						c-2.004,4.05-5.874,5.229-8.827,4.983C1208.696,673.218,1207.312,672.828,1206.04,672.079z M1205.355,604.566
						c-1.827-1.076-3.68-0.533-4.292-0.3c-0.75,0.287-3.204,1.472-3.241,4.656c-0.072,6.886-5.515,12.649-12.39,13.121
						c-3.174,0.215-4.216,2.732-4.46,3.497c-0.244,0.768-0.849,3.423,1.618,5.435c5.34,4.355,6.452,12.203,2.532,17.869
						c-1.81,2.617-0.492,5.002-0.044,5.67c0.447,0.665,2.148,2.795,5.257,2.122c3.261-0.706,6.655-0.153,9.557,1.557
						c2.901,1.709,5.03,4.409,5.993,7.604c0.917,3.045,3.605,3.501,4.404,3.57c0.802,0.067,3.528,0.066,4.938-2.787
						c3.057-6.174,10.463-9.004,16.859-6.445c2.954,1.182,4.986-0.635,5.538-1.218c0.551-0.584,2.248-2.716,0.898-5.596l0,0
						c-2.921-6.241-0.516-13.796,5.472-17.2c2.767-1.573,2.614-4.294,2.501-5.09c-0.113-0.796-0.731-3.445-3.814-4.194
						c-6.704-1.607-11.11-8.195-10.036-15.002c0.496-3.142-1.727-4.719-2.419-5.127c-0.692-0.408-3.148-1.588-5.658,0.368
						c-5.433,4.235-13.334,3.578-17.985-1.508C1206.183,605.138,1205.77,604.811,1205.355,604.566z M1201.889,654.803
						c-10.509-6.191-14.021-19.779-7.83-30.287c6.192-10.51,19.78-14.022,30.288-7.831c10.509,6.191,14.021,19.779,7.829,30.289
						C1225.985,657.482,1212.397,660.995,1201.889,654.803z M1222.332,620.106c-8.624-5.081-19.772-2.198-24.853,6.426
						c-5.08,8.622-2.198,19.771,6.425,24.852c8.624,5.081,19.772,2.198,24.852-6.424
						C1233.837,636.336,1230.955,625.187,1222.332,620.106z"/>
				</g>
			</g>
		</g>
	</g>
	<path class="st2" d="M763.049,810.368c-0.406,0.2-0.573,0.69-0.373,1.096l13.867,28.185l-2.203,1.084l-4.17-8.477l-14.619-29.715
		l-17.435-35.438l-5.074-10.313l-0.114-0.232l-0.122-0.248c-0.041-0.083-0.096-0.159-0.162-0.224l-8.38-8.204
		c-0.04-0.039-0.088-0.066-0.134-0.095c-0.024-0.016-0.045-0.037-0.07-0.05c-0.054-0.027-0.111-0.04-0.169-0.055
		c-0.023-0.006-0.045-0.018-0.068-0.022c-0.061-0.01-0.123-0.006-0.185-0.002c-0.021,0.001-0.043-0.004-0.064,0
		c-0.083,0.012-0.165,0.037-0.243,0.075c-0.078,0.039-0.148,0.088-0.208,0.147c-0.025,0.025-0.042,0.056-0.064,0.084
		c-0.03,0.038-0.064,0.073-0.087,0.115c-0.018,0.033-0.025,0.071-0.038,0.106c-0.016,0.043-0.037,0.083-0.045,0.128
		c-0.007,0.035-0.002,0.072-0.004,0.108c-0.003,0.048-0.011,0.095-0.005,0.144l1.386,11.645c0.011,0.092,0.037,0.182,0.078,0.265
		l0.122,0.248l0.114,0.232l37.128,75.466l7.059,14.349c0.865,1.757,2.998,2.483,4.755,1.619l2.089-1.028
		c1.757-0.865,2.484-2.997,1.619-4.755l-2.166-4.403l2.938-1.445c0.406-0.2,0.573-0.69,0.373-1.096l-14.228-28.919
		C763.946,810.336,763.455,810.169,763.049,810.368z M753.719,802.529l-1.01,0.497l-16.712-33.969l1.01-0.497L753.719,802.529z
		 M730.996,756.884l-5.096,2.507l-1.099-8.665L730.996,756.884z M726.408,760.966l5.525-2.718l4.351,8.844l-1.744,0.858
		c-0.406,0.199-0.573,0.69-0.373,1.096l17.435,35.438c0.2,0.406,0.69,0.573,1.096,0.373l1.744-0.858l13.897,28.246l-5.525,2.719
		L726.408,760.966z M775.759,847.328c0.466,0.947,0.074,2.097-0.873,2.563l-2.089,1.028c-0.948,0.466-2.097,0.075-2.563-0.873
		l-6.698-13.614l5.525-2.718L775.759,847.328z"/>
	<g>
		<path class="st2" d="M154.879,796.88c11.343-7.621,14.37-23.049,6.749-34.392c-0.111-0.165-0.223-0.328-0.339-0.491
			c-3.694-5.228-9.224-8.777-15.571-9.993c-6.347-1.217-12.798,0.035-18.165,3.525c-4.983,3.241-8.638,8.162-10.291,13.859
			c-0.867,2.988-2.837,5.602-5.545,7.359l-7.176,4.605c-0.942,0.605-1.587,1.542-1.814,2.638c-0.159,0.768-0.095,1.543,0.169,2.259
			l-2.574,1.73c-1.902,1.277-2.409,3.864-1.131,5.765l9.901,14.736c1.277,1.901,3.864,2.409,5.765,1.131l2.574-1.73
			c0.563,0.515,1.257,0.868,2.028,1.011c1.101,0.204,2.212-0.038,3.128-0.682l7.073-4.971c2.603-1.81,5.7-2.625,8.718-2.295
			C144.174,801.579,150.034,800.135,154.879,796.88z M111.801,778.194l16.453,24.489l-2.758,1.938l-16.532-24.606L111.801,778.194z
			 M108.432,780.356l16.547,24.629l-2.758,1.938l-16.626-24.746L108.432,780.356z M114.153,808.563
			c-1.323,0.889-3.122,0.536-4.011-0.787l-9.901-14.736c-0.889-1.323-0.536-3.123,0.787-4.012l2.473-1.662l13.125,19.535
			L114.153,808.563z M117.832,806.43l-13.439-20.003c-0.434-0.645-0.585-1.42-0.428-2.181c0.145-0.698,0.535-1.301,1.103-1.72
			l16.631,24.753c-0.603,0.368-1.309,0.501-2.01,0.371C118.925,807.508,118.265,807.075,117.832,806.43z M128.936,802.204
			l-0.164,0.116l-8.043-11.971l5.112-3.434l14.62-1.046l-0.045-0.63l-14.155,1.013l6.287-12.722l-0.567-0.28l-6.494,13.14
			l-5.112,3.435l-8.042-11.969l0.07-0.045c2.965-1.924,5.122-4.79,6.074-8.069c1.569-5.406,5.037-10.076,9.767-13.152
			c10.457-6.8,24.819-4.047,32.015,6.138c0.11,0.156,0.216,0.31,0.321,0.467c7.233,10.765,4.359,25.406-6.405,32.639
			c-4.598,3.089-10.159,4.459-15.658,3.858C135.194,799.325,131.793,800.218,128.936,802.204z"/>
	</g>
	<g>
		<path class="st2" d="M351.049,769.418c-1.309,0-2.419-0.849-2.757-2.115l-0.557-2.069c-0.077-0.281-0.298-0.501-0.581-0.579
			l-2.067-0.557c-1.265-0.338-2.115-1.446-2.117-2.755c0-1.311,0.85-2.421,2.117-2.761l2.069-0.557
			c0.281-0.078,0.501-0.298,0.579-0.581l0.557-2.067c0.338-1.265,1.448-2.115,2.757-2.115s2.419,0.85,2.759,2.115l0.557,2.069
			c0.078,0.281,0.298,0.501,0.581,0.579l2.067,0.557c1.265,0.34,2.115,1.45,2.115,2.761c0,1.309-0.852,2.417-2.115,2.755
			l-2.069,0.557c-0.281,0.077-0.501,0.298-0.579,0.581l-0.557,2.067C353.468,768.568,352.358,769.418,351.049,769.418z
			 M351.049,755.298c-0.147,0-0.641,0.044-0.792,0.607l-0.557,2.069c-0.265,0.979-1.037,1.751-2.013,2.015l-2.071,0.557
			c-0.565,0.153-0.609,0.646-0.609,0.794s0.044,0.639,0.609,0.79l2.069,0.559c0.979,0.265,1.751,1.037,2.015,2.013l0.557,2.071
			c0.151,0.563,0.645,0.607,0.792,0.607c0.147,0,0.641-0.044,0.794-0.607l0.557-2.069c0.265-0.979,1.037-1.751,2.013-2.015
			l2.071-0.557c0.563-0.151,0.607-0.645,0.607-0.792s-0.044-0.641-0.607-0.794l-2.069-0.557c-0.979-0.265-1.751-1.037-2.015-2.013
			l-0.557-2.071C351.69,755.342,351.196,755.298,351.049,755.298z"/>
	</g>
	<g>
		<path class="st2" d="M309.251,551.486l-88.018,63.631c-0.366,0.265-0.449,0.777-0.184,1.143l86.161,119.181
			c0.265,0.366,0.777,0.449,1.143,0.184l88.018-63.631c0.366-0.265,0.449-0.777,0.184-1.143l-86.16-119.181
			C310.129,551.303,309.618,551.221,309.251,551.486z M394.749,671.146l-86.691,62.672l-4.32-5.975l86.691-62.672L394.749,671.146z
			 M389.47,663.845l-86.691,62.672l-79.923-110.553l4.391-3.174l1.51,2.089c-0.301,0.787-0.214,1.706,0.317,2.44
			c0.836,1.157,2.452,1.417,3.609,0.58c1.157-0.836,1.417-2.452,0.58-3.609c-0.531-0.734-1.376-1.106-2.218-1.066l-1.51-2.089
			l6.114-4.42l1.51,2.088c-0.302,0.788-0.214,1.706,0.317,2.441c0.836,1.157,2.452,1.417,3.609,0.58
			c1.157-0.836,1.417-2.452,0.58-3.609c-0.531-0.734-1.376-1.106-2.218-1.066l-1.51-2.089l6.114-4.42l1.51,2.089
			c-0.301,0.787-0.214,1.706,0.317,2.441c0.836,1.157,2.452,1.417,3.609,0.58c1.157-0.836,1.417-2.452,0.58-3.609
			c-0.531-0.734-1.376-1.106-2.218-1.066l-1.51-2.088l6.114-4.42l1.51,2.089c-0.301,0.787-0.214,1.706,0.317,2.441
			c0.836,1.157,2.452,1.417,3.609,0.58c1.157-0.836,1.417-2.452,0.58-3.609c-0.531-0.734-1.376-1.106-2.218-1.066l-1.51-2.088
			l6.114-4.42l1.51,2.089c-0.302,0.787-0.214,1.706,0.317,2.441c0.836,1.157,2.452,1.417,3.609,0.58
			c1.157-0.836,1.417-2.452,0.58-3.609c-0.531-0.734-1.376-1.106-2.218-1.066l-1.51-2.089l6.114-4.42l1.51,2.088
			c-0.302,0.788-0.214,1.706,0.317,2.441c0.836,1.157,2.452,1.417,3.609,0.58c1.157-0.836,1.417-2.452,0.58-3.609
			c-0.531-0.734-1.376-1.106-2.218-1.066l-1.51-2.089l6.114-4.42l1.51,2.088c-0.302,0.787-0.214,1.706,0.317,2.441
			c0.836,1.157,2.452,1.417,3.609,0.58c1.157-0.836,1.417-2.452,0.58-3.609c-0.531-0.734-1.376-1.106-2.218-1.066l-1.51-2.089
			l6.114-4.42l1.51,2.089c-0.302,0.787-0.214,1.706,0.317,2.441c0.836,1.157,2.452,1.417,3.609,0.58
			c1.157-0.836,1.417-2.452,0.58-3.609c-0.531-0.734-1.376-1.106-2.218-1.066l-1.51-2.089l6.114-4.42l1.51,2.089
			c-0.302,0.787-0.214,1.706,0.317,2.441c0.836,1.157,2.452,1.417,3.609,0.58c1.157-0.836,1.417-2.452,0.58-3.609
			c-0.531-0.734-1.376-1.106-2.218-1.066l-1.51-2.088l6.114-4.42l1.51,2.089c-0.302,0.787-0.214,1.706,0.317,2.441
			c0.836,1.157,2.452,1.417,3.609,0.58c1.157-0.836,1.417-2.452,0.58-3.609c-0.531-0.734-1.376-1.106-2.218-1.066l-1.51-2.089
			l4.391-3.174L389.47,663.845z"/>
		<path class="st2" d="M311.088,587.193l-56.523,40.862c-1.117,0.807-1.368,2.372-0.561,3.488l19.132,26.465
			c0.807,1.116,2.372,1.368,3.488,0.561l56.523-40.862c1.116-0.807,1.368-2.372,0.561-3.488l-19.132-26.464
			C313.769,586.637,312.204,586.386,311.088,587.193z M333.045,614.698c0.543,0.751,0.374,1.803-0.377,2.345l-56.523,40.862
			c-0.751,0.543-1.803,0.374-2.345-0.377l-19.132-26.465c-0.543-0.751-0.374-1.803,0.377-2.345l56.523-40.862
			c0.75-0.542,1.802-0.373,2.345,0.378L333.045,614.698z"/>
	</g>
</g>
</svg>
