<?xml version="1.0" encoding="UTF-8"?>
<svg width="334px" height="316px" viewBox="0 0 334 316" version="1.1" xmlns="http://www.w3.org/2000/svg" xmlns:xlink="http://www.w3.org/1999/xlink">
    <!-- Generator: Sketch 51.3 (57544) - http://www.bohemiancoding.com/sketch -->
    <title>line</title>
    <desc>Created with Sketch.</desc>
    <defs></defs>
    <g id="Page-1" stroke="none" stroke-width="1" fill="none" fill-rule="evenodd">
        <g id="line" fill-rule="nonzero">
            <g id="Group">
                <path d="M332.272,149.605 C333.038,145.57 333.417,142.175 333.591,139.512 C333.879,135.117 333.551,128.592 333.434,126.549 C329.386,56.141 256.338,0.046 166.818,0.046 C74.7,0.046 0.025,59.443 0.025,132.713 C0.025,200.059 63.113,255.683 144.846,264.239 C149.843,264.762 153.446,269.273 152.892,274.266 L149.412,305.588 C148.622,312.698 155.974,317.871 162.417,314.761 C231.471,281.435 272.763,247.15 297.421,217.447 C301.908,212.042 316.539,191.543 319.522,186.159 C325.854,174.729 330.219,162.455 332.272,149.605 Z" id="Shape" fill="#FFFFFF"></path>
                <path d="M75.103,159.588 L75.103,103.706 C75.103,98.994 71.283,95.174 66.571,95.174 C61.859,95.174 58.039,98.994 58.039,103.706 L58.039,168.12 C58.039,172.832 61.859,176.652 66.571,176.652 L100.698,176.652 C105.41,176.652 109.23,172.832 109.23,168.12 C109.23,163.408 105.41,159.588 100.698,159.588 L75.103,159.588 Z" id="Shape" fill="#00C500"></path>
                <path d="M127.731,176.652 L124.001,176.652 C120.319,176.652 117.334,173.667 117.334,169.985 L117.334,101.841 C117.334,98.159 120.319,95.174 124.001,95.174 L127.731,95.174 C131.413,95.174 134.398,98.159 134.398,101.841 L134.398,169.985 C134.398,173.667 131.413,176.652 127.731,176.652 Z" id="Shape" fill="#00C500"></path>
                <path d="M196.678,103.706 L196.678,143.057 C196.678,143.057 162.605,98.614 162.085,98.03 C160.457,96.203 158.058,95.079 155.395,95.18 C150.754,95.356 147.195,99.412 147.195,104.056 L147.195,168.119 C147.195,172.831 151.015,176.651 155.727,176.651 C160.439,176.651 164.259,172.831 164.259,168.119 L164.259,129.007 C164.259,129.007 198.85,173.837 199.358,174.319 C200.867,175.747 202.894,176.631 205.131,176.651 C209.869,176.694 213.742,172.503 213.742,167.765 L213.742,103.706 C213.742,98.994 209.922,95.174 205.21,95.174 C200.498,95.175 196.678,98.994 196.678,103.706 Z" id="Shape" fill="#00C500"></path>
                <path d="M277.729,103.706 C277.729,98.994 273.909,95.174 269.197,95.174 L235.07,95.174 C230.358,95.174 226.538,98.994 226.538,103.706 L226.538,168.12 C226.538,172.832 230.358,176.652 235.07,176.652 L269.197,176.652 C273.909,176.652 277.729,172.832 277.729,168.12 C277.729,163.408 273.909,159.588 269.197,159.588 L243.602,159.588 L243.602,144.444 L269.197,144.444 C273.909,144.444 277.729,140.624 277.729,135.912 C277.729,131.2 273.909,127.38 269.197,127.38 L243.602,127.38 L243.602,112.236 L269.197,112.236 C273.909,112.238 277.729,108.418 277.729,103.706 Z" id="Shape" fill="#00C500"></path>
            </g>
        </g>
    </g>
</svg>