<?xml version="1.0" encoding="UTF-8"?>
<!DOCTYPE svg PUBLIC "-//W3C//DTD SVG 1.1//EN" "http://www.w3.org/Graphics/SVG/1.1/DTD/svg11.dtd">
<!-- Creator: CorelDRAW X7 -->
<svg xmlns="http://www.w3.org/2000/svg" xml:space="preserve" width="2.5cm" height="2.97363cm" version="1.1" style="shape-rendering:geometricPrecision; text-rendering:geometricPrecision; image-rendering:optimizeQuality; fill-rule:evenodd; clip-rule:evenodd"
viewBox="0 0 1818 2163"
 xmlns:xlink="http://www.w3.org/1999/xlink">
 <defs>
  <style type="text/css">
   <![CDATA[
    .str0 {stroke:#154E98;stroke-width:97.1698;stroke-linecap:round;stroke-linejoin:round}
    .fil0 {fill:none;fill-rule:nonzero}
   ]]>
  </style>
 </defs>
 <g id="Layer_x0020_1">
  <metadata id="CorelCorpID_0Corel-Layer"/>
  <g id="_735444536">
   <path class="fil0 str0" d="M898 677c-8,-82 -86,-133 -232,-133 -241,0 -489,74 -489,74 0,0 -253,-277 -49,-431 114,-76 350,-138 700,-138 620,0 921,171 941,475 25,360 -525,552 -497,732 0,0 -138,68 -350,68 -232,0 -334,-95 -338,-186 -12,-201 322,-307 314,-461"/>
   <path class="fil0 str0" d="M926 1557c232,0 432,29 440,283 0,248 -187,274 -424,274 -240,0 -439,-26 -439,-274 -17,-254 175,-283 423,-283"/>
  </g>
 </g>
</svg>
