<?xml version="1.0" encoding="UTF-8"?>
<!DOCTYPE svg PUBLIC "-//W3C//DTD SVG 1.1//EN" "http://www.w3.org/Graphics/SVG/1.1/DTD/svg11.dtd">
<!-- Creator: CorelDRAW X7 -->
<svg xmlns="http://www.w3.org/2000/svg" xml:space="preserve" width="1349px" height="1142px" version="1.1" style="shape-rendering:geometricPrecision; text-rendering:geometricPrecision; image-rendering:optimizeQuality; fill-rule:evenodd; clip-rule:evenodd"
viewBox="0 0 1349 1142"
 xmlns:xlink="http://www.w3.org/1999/xlink">
 <defs>
  <style type="text/css">
   <![CDATA[
    .fil0 {fill:#FCFCFC;fill-rule:nonzero;fill-opacity:0.501961}
   ]]>
  </style>
 </defs>
 <g id="Layer_x0020_1">
  <metadata id="CorelCorpID_0Corel-Layer"/>
  <g id="_482226384">
   <g>
    <path class="fil0" d="M1300 251c-13,-14 -36,-14 -51,-2 -14,13 -15,34 -1,47 13,13 34,14 48,4l5 5c-1,2 -1,4 1,6l52 50 0 -2 -51 -49c-1,-2 -1,-4 0,-6l3 -2c2,-1 4,-1 6,0l0 0 42 41 0 -2 -41 -40c-2,-1 -4,-2 -7,-1l-5 -5c12,-12 12,-32 -1,-44zm-51 44l0 0c-13,-12 -12,-33 2,-44 13,-12 35,-12 48,1 13,13 13,33 -1,45 -14,11 -36,11 -49,-2zm57 5l0 0c-1,1 -1,1 -1,1l-3 2c0,1 0,1 0,1l-5 -5c1,0 1,-1 2,-1 1,-1 1,-2 2,-2l5 4z"/>
    <path class="fil0" d="M1297 253c-12,-11 -32,-12 -45,-1 -13,11 -13,30 -1,42 12,11 32,12 45,1 13,-11 14,-30 1,-42zm-45 40l0 0c-12,-11 -12,-29 1,-40 12,-11 32,-11 44,1 12,11 11,30 -1,40 -13,11 -33,11 -44,-1z"/>
   </g>
   <g>
    <path class="fil0" d="M1284 747c11,-7 15,-22 7,-33 0,0 -1,0 -1,0 -4,-5 -9,-9 -16,-10 -7,-1 -13,0 -19,3 -5,4 -9,8 -11,14 -1,3 -3,5 -6,7l-7 4c-1,1 -2,2 -2,3 0,1 0,1 0,2l-3 2c-2,1 -2,3 -1,5l10 15c2,1 5,2 7,1l2 -2c1,0 2,1 2,1 2,0 3,0 4,-1l7 -5c3,-1 6,-2 9,-2 6,1 12,-1 18,-4zm-46 -18l0 0 18 24 -3 2 -18 -24 3 -2zm-3 2l0 0 17 24 -3 2 -17 -24 3 -2zm6 28l0 0c-2,0 -3,0 -4,-1l-11 -14c-1,-2 0,-3 1,-4l3 -2 13 19 -2 2zm4 -2l0 0 -14 -20c-1,0 -1,-1 -1,-2 0,-1 1,-1 1,-2l18 24c-1,1 -2,1 -2,1 -1,0 -2,-1 -2,-1zm11 -5l0 0 0 1 -8 -12 5 -3 15 -1 0 -1 -14 1 6 -12 0 0 -7 12 -6 4 -8 -12 0 0c3,-2 5,-5 6,-8 2,-5 6,-10 11,-13 11,-6 26,-3 33,6 0,1 0,1 1,1 7,10 4,24 -7,31 -5,3 -11,5 -17,4 -3,0 -7,1 -10,2z"/>
   </g>
   <g>
    <path class="fil0" d="M194 913c-3,0 -7,-2 -8,-5 0,-3 2,-6 5,-7 4,-1 7,1 8,5 1,3 -1,6 -5,7zm-2 -10l0 0c-3,0 -4,3 -4,5 1,2 3,3 6,3 2,-1 4,-3 3,-5 -1,-2 -3,-4 -5,-3z"/>
   </g>
   <g>
    <path class="fil0" d="M869 223c-4,1 -7,-1 -8,-5 -1,-3 2,-6 5,-7 4,-1 7,1 8,5 1,3 -2,6 -5,7zm-2 -10l0 0c-3,1 -4,3 -4,5 1,2 3,3 5,3 3,-1 4,-3 4,-5 -1,-2 -3,-3 -5,-3z"/>
   </g>
   <g>
    <path class="fil0" d="M1308 1003c-4,1 -7,-1 -8,-5 -1,-3 1,-6 5,-7 3,-1 7,1 8,5 0,3 -2,6 -5,7zm-3 -10l0 0c-2,1 -4,3 -3,5 0,2 3,3 5,3 2,-1 4,-3 3,-5 0,-2 -2,-3 -5,-3z"/>
   </g>
   <g>
    <path class="fil0" d="M460 310c-2,0 -3,-1 -3,-2l-1 -2c0,0 0,-1 0,-1l-2 0c-2,0 -3,-2 -3,-3 0,-1 1,-2 3,-2l2 -1c0,0 0,0 0,-1l1 -2c0,-1 1,-2 3,-2 1,0 2,1 3,2l0 2c0,1 1,1 1,1l2 1c1,0 2,1 2,2 0,1 -1,3 -2,3l-2 0c0,0 -1,1 -1,1l0 2c-1,1 -2,2 -3,2zm0 -14l0 0c0,0 -1,0 -1,1l-1 2c0,1 -1,2 -2,2l-2 0c-1,1 -1,1 -1,1 0,0 0,1 1,1l2 1c1,0 2,1 2,1l1 2c0,1 1,1 1,1 0,0 0,0 1,-1l0 -2c0,0 1,-1 2,-1l3 -1c0,0 0,-1 0,-1 0,0 0,0 0,-1l-3 0c-1,0 -2,-1 -2,-2l0 -2c-1,-1 -1,-1 -1,-1z"/>
   </g>
   <g>
    <path class="fil0" d="M78 591c-2,0 -3,-1 -3,-2l-1 -2c0,0 0,0 0,0l-3 -1c-1,0 -2,-1 -2,-3 0,-1 1,-2 2,-2l3 -1c0,0 0,0 0,0l1 -2c0,-2 1,-2 3,-2 1,0 2,0 3,2l0 2c0,0 1,0 1,0l2 1c1,0 2,1 2,2 0,2 -1,3 -2,3l-2 1c0,0 -1,0 -1,0l0 2c-1,1 -2,2 -3,2zm0 -14l0 0c0,0 -1,1 -1,1l-1 2c0,1 -1,2 -2,2l-2 1c-1,0 -1,0 -1,0 0,0 0,1 1,1l2 1c1,0 2,1 2,2l1 2c0,0 1,0 1,0 0,0 0,0 1,0l0 -2c0,-1 1,-2 2,-2l2 -1c1,0 1,-1 1,-1 0,0 0,0 -1,0l-2 -1c-1,0 -2,-1 -2,-2l0 -2c-1,0 -1,-1 -1,-1z"/>
   </g>
   <g>
    <path class="fil0" d="M943 679c-2,0 -3,-1 -3,-2l-1 -2c0,0 0,0 0,0l-3 -1c-1,0 -2,-1 -2,-3 0,-1 1,-2 2,-2l3 -1c0,0 0,0 0,0l1 -2c0,-2 1,-2 3,-2 1,0 2,0 3,2l0 2c0,0 1,0 1,0l2 1c1,0 2,1 2,2 0,2 -1,3 -2,3l-2 1c0,0 -1,0 -1,0l0 2c-1,1 -2,2 -3,2zm0 -13l0 0c0,0 -1,0 -1,0l-1 2c0,1 -1,2 -2,2l-2 1c-1,0 -1,0 -1,0 0,1 0,1 1,1l2 1c1,0 2,1 2,2l1 2c0,0 1,0 1,0 0,0 0,0 1,0l0 -2c0,-1 1,-2 2,-2l2 -1c1,0 1,0 1,-1 0,0 0,0 -1,0l-2 -1c-1,0 -2,-1 -2,-2l0 -2c-1,0 -1,0 -1,0z"/>
   </g>
   <g>
    <path class="fil0" d="M594 776c-1,0 -3,-1 -3,-2l0 -2c-1,0 -1,-1 -1,-1l-2 0c-2,-1 -2,-2 -2,-3 0,-1 0,-2 2,-3l2 0c0,0 0,0 1,-1l0 -2c0,-1 2,-2 3,-2 1,0 3,1 3,2l0 2c1,1 1,1 1,1l2 0c2,1 2,2 2,3 0,1 0,2 -2,3l-2 0c0,0 0,1 -1,1l0 2c0,1 -2,2 -3,2zm0 -14l0 0c0,0 -1,0 -1,1l0 2c-1,1 -2,2 -3,2l-2 0c0,0 0,1 0,1 0,0 0,1 0,1l2 0c1,1 2,1 3,2l0 2c0,1 1,1 1,1 0,0 1,0 1,-1l0 -2c1,-1 2,-1 3,-2l2 0c0,0 0,-1 0,-1 0,0 0,-1 0,-1l-2 0c-1,0 -2,-1 -3,-2l0 -2c0,-1 -1,-1 -1,-1z"/>
   </g>
   <g>
    <path class="fil0" d="M1260 591c-2,0 -3,-1 -3,-2l-1 -2c0,0 0,0 0,0l-3 -1c-1,0 -2,-1 -2,-3 0,-1 1,-2 2,-2l3 -1c0,0 0,0 0,0l1 -2c0,-2 1,-2 3,-2 1,0 2,0 3,2l0 2c0,0 1,0 1,0l2 1c1,0 2,1 2,2 0,2 -1,3 -2,3l-2 1c0,0 -1,0 -1,0l0 2c-1,1 -2,2 -3,2zm0 -14l0 0c0,0 -1,1 -1,1l-1 2c0,1 -1,2 -2,2l-2 1c-1,0 -1,0 -1,0 0,0 0,1 1,1l2 1c1,0 2,1 2,2l1 2c0,0 1,0 1,0 0,0 0,0 1,0l0 -2c0,-1 1,-2 2,-2l2 -1c1,0 1,-1 1,-1 0,0 0,0 -1,0l-2 -1c-1,0 -2,-1 -2,-2l0 -2c-1,0 -1,-1 -1,-1z"/>
   </g>
   <g>
    <path class="fil0" d="M1 570l0 1 0 2 1 -1 83 107 0 0 -84 56 0 2 85 -57 5 6 0 0 -90 60 0 2 92 -61c0,-1 0,-1 0,-1l-91 -116c0,0 0,0 -1,0zm0 11l0 -3c0,0 0,0 0,0 1,1 0,2 0,3z"/>
    <path class="fil0" d="M3 605l-2 1 0 1 3 -2c0,0 2,0 2,1l20 25 0 0c1,1 1,2 0,3l-25 16 0 1 25 -17c1,-1 2,-2 1,-3l-20 -26c-1,-1 -3,-1 -4,0z"/>
   </g>
  </g>
 </g>
</svg>
