<?xml version="1.0" encoding="UTF-8"?>
<!DOCTYPE svg PUBLIC "-//W3C//DTD SVG 1.1//EN" "http://www.w3.org/Graphics/SVG/1.1/DTD/svg11.dtd">
<!-- Creator: CorelDRAW X7 -->
<svg xmlns="http://www.w3.org/2000/svg" xml:space="preserve" width="2.5cm" height="3cm" version="1.1" style="shape-rendering:geometricPrecision; text-rendering:geometricPrecision; image-rendering:optimizeQuality; fill-rule:evenodd; clip-rule:evenodd"
viewBox="0 0 838 1006"
 xmlns:xlink="http://www.w3.org/1999/xlink">
 <defs>
  <style type="text/css">
   <![CDATA[
    .fil0 {fill:#154E98;fill-rule:nonzero}
   ]]>
  </style>
 </defs>
 <g id="Layer_x0020_1">
  <metadata id="CorelCorpID_0Corel-Layer"/>
  <path class="fil0" d="M564 617c-12,0 -22,12 -22,27l0 134c0,49 -33,89 -74,89l-175 0c-12,0 -22,12 -22,27l0 20 -27 -32c-4,-9 -11,-15 -20,-15l-105 0c-41,0 -74,-40 -74,-89l0 -298c0,-49 33,-89 74,-89l163 0c12,0 23,-12 23,-27 0,-15 -11,-27 -23,-27l-163 0c-66,0 -119,64 -119,143l0 298c0,79 53,143 119,143l94 0 65 77c4,5 9,8 15,8 3,0 6,-1 9,-2 8,-4 14,-14 14,-25l0 -58 152 0c65,0 119,-64 119,-143l0 -134c0,-15 -10,-27 -23,-27z"/>
  <path class="fil0" d="M598 0l-41 0c-133,0 -241,130 -241,289 0,159 108,289 241,289l41 0c19,0 38,-3 57,-9l58 70c4,5 10,8 16,8 3,0 6,-1 8,-2 9,-5 14,-14 14,-25l0 -109c25,-25 46,-56 61,-91 18,-41 26,-85 26,-131 0,-159 -108,-289 -240,-289zm195 289l0 0c0,74 -28,143 -78,188 -5,5 -9,13 -9,21l0 57 -28 -35c-5,-5 -10,-8 -16,-8 -2,0 -5,1 -7,2 -18,6 -38,10 -57,10l-41 0c-108,0 -196,-106 -196,-235 0,-130 88,-235 196,-235l41 0c108,0 195,105 195,235z"/>
  <path class="fil0" d="M587 136c-21,-2 -41,7 -56,24 -15,17 -24,40 -24,65 0,15 10,27 23,27 12,0 22,-12 22,-27 0,-10 3,-19 9,-26 7,-7 14,-10 23,-9 15,1 26,15 27,33 1,17 -8,33 -23,37 -17,4 -29,22 -29,43l0 47c0,15 10,27 23,27 12,0 22,-12 22,-27l0 -39c33,-13 55,-50 52,-92 -2,-44 -32,-80 -69,-83z"/>
  <path class="fil0" d="M566 407c-4,5 -7,12 -7,19 0,7 3,14 7,19 4,5 10,8 16,8 6,0 11,-3 16,-8 4,-5 6,-12 6,-19 0,-7 -2,-14 -6,-19 -9,-10 -24,-10 -32,0z"/>
  <path class="fil0" d="M450 600l-340 0c-13,0 -23,12 -23,27 0,15 10,27 23,27l340 0c12,0 22,-12 22,-27 0,-15 -10,-27 -22,-27z"/>
  <path class="fil0" d="M110 708c-13,0 -23,12 -23,27 0,15 10,27 23,27l340 0c12,0 22,-12 22,-27 0,-15 -10,-27 -22,-27l-340 0z"/>
  <path class="fil0" d="M345 492l-235 0c-13,0 -23,12 -23,27 0,14 10,26 23,26l235 0c12,0 22,-12 22,-26 0,-15 -10,-27 -22,-27z"/>
 </g>
</svg>
