<?xml version="1.0" encoding="UTF-8"?>
<!DOCTYPE svg PUBLIC "-//W3C//DTD SVG 1.1//EN" "http://www.w3.org/Graphics/SVG/1.1/DTD/svg11.dtd">
<!-- Creator: CorelDRAW X7 -->
<svg xmlns="http://www.w3.org/2000/svg" xml:space="preserve" width="2.5cm" height="3cm" version="1.1" style="shape-rendering:geometricPrecision; text-rendering:geometricPrecision; image-rendering:optimizeQuality; fill-rule:evenodd; clip-rule:evenodd"
viewBox="0 0 729 874"
 xmlns:xlink="http://www.w3.org/1999/xlink">
 <defs>
  <style type="text/css">
   <![CDATA[
    .fil0 {fill:#154E98;fill-rule:nonzero}
   ]]>
  </style>
 </defs>
 <g id="Layer_x0020_1">
  <metadata id="CorelCorpID_0Corel-Layer"/>
  <path class="fil0" d="M364 135c-135,0 -245,115 -245,257 0,92 35,146 60,187 16,25 24,39 24,54 0,33 17,65 46,88 1,20 4,69 4,69l0 0c0,13 7,41 50,57 5,8 12,16 20,22 5,3 11,5 18,5l47 0c6,0 12,-2 17,-5 8,-6 15,-14 20,-22 44,-16 51,-44 51,-57 0,0 3,-49 3,-69 30,-23 46,-55 46,-88 0,-15 9,-29 25,-55 25,-40 59,-94 59,-186 0,-142 -110,-257 -245,-257zm134 406l0 0c-18,29 -35,56 -35,92 0,16 -13,29 -23,36l-151 0c-10,-7 -24,-20 -24,-36 0,-36 -17,-63 -35,-93 -23,-36 -49,-77 -49,-148 0,-105 82,-190 183,-190 101,0 183,85 183,190 0,71 -26,112 -49,149z"/>
  <path class="fil0" d="M364 84c9,0 16,-7 16,-17l0 -50c0,-9 -7,-17 -16,-17 -8,0 -15,8 -15,17l0 50c0,10 7,17 15,17z"/>
  <path class="fil0" d="M200 120c3,5 8,8 13,8 3,0 5,-1 8,-2 7,-5 10,-15 6,-23l-24 -44c-4,-8 -13,-11 -21,-6 -7,5 -10,15 -6,23l24 44z"/>
  <path class="fil0" d="M110 217l-40 -25c-7,-5 -17,-2 -21,6 -4,8 -2,18 5,23l41 25c2,1 5,2 7,2 6,0 11,-3 14,-8 4,-8 2,-19 -6,-23z"/>
  <path class="fil0" d="M77 395c0,-9 -6,-16 -15,-16l-47 0c-8,0 -15,7 -15,16 0,10 7,17 15,17l47 0c9,0 15,-7 15,-17z"/>
  <path class="fil0" d="M95 545l-41 25c-7,5 -9,15 -5,23 3,5 8,8 13,8 3,0 6,0 8,-2l40 -25c8,-5 10,-15 6,-23 -4,-8 -14,-11 -21,-6z"/>
  <path class="fil0" d="M674 570l-40 -25c-8,-5 -17,-2 -21,6 -5,8 -2,18 5,23l41 25c2,2 5,2 7,2 6,0 11,-3 14,-8 4,-8 2,-18 -6,-23z"/>
  <path class="fil0" d="M713 379l-46 0c-9,0 -16,7 -16,16 0,10 7,17 16,17l46 0c9,0 16,-7 16,-17 0,-9 -7,-16 -16,-16z"/>
  <path class="fil0" d="M626 248c3,0 5,-1 8,-2l40 -25c8,-5 10,-15 6,-23 -5,-8 -14,-11 -21,-6l-41 25c-7,4 -10,15 -5,23 3,5 8,8 13,8z"/>
  <path class="fil0" d="M508 126c2,1 5,2 7,2 6,0 11,-3 14,-8l23 -44c4,-8 2,-18 -6,-23 -7,-5 -16,-2 -21,6l-23 44c-4,8 -2,18 6,23z"/>
 </g>
</svg>
