<?xml version="1.0" encoding="UTF-8"?>
<!DOCTYPE svg PUBLIC "-//W3C//DTD SVG 1.1//EN" "http://www.w3.org/Graphics/SVG/1.1/DTD/svg11.dtd">
<!-- Creator: CorelDRAW X7 -->
<svg xmlns="http://www.w3.org/2000/svg" xml:space="preserve" width="1349px" height="394px" version="1.1" style="shape-rendering:geometricPrecision; text-rendering:geometricPrecision; image-rendering:optimizeQuality; fill-rule:evenodd; clip-rule:evenodd"
viewBox="0 0 1349 394"
 xmlns:xlink="http://www.w3.org/1999/xlink">
 <defs>
  <style type="text/css">
   <![CDATA[
    .fil0 {fill:#FCFCFC;fill-rule:nonzero;fill-opacity:0.501961}
   ]]>
  </style>
 </defs>
 <g id="Layer_x0020_1">
  <metadata id="CorelCorpID_0Corel-Layer"/>
  <g id="_686104416">
   <g>
    <path class="fil0" d="M1049 333c8,-17 0,-37 -18,-44 -18,-8 -38,0 -46,17 -8,15 -1,33 14,42l-2 6c-3,0 -5,1 -6,3l-19 41 1 0 19 -40c1,-2 4,-3 6,-2l3 1c2,1 3,3 2,5l0 0 -17 36 2 0 16 -36c1,-2 1,-4 -1,-5l3 -7c17,6 36,-2 43,-17zm-63 -27l0 0c8,-16 28,-23 45,-16 16,7 24,26 17,42 -8,16 -28,23 -45,16 -17,-7 -24,-26 -17,-42zm16 50l0 0c0,0 0,0 0,0l-4 -2c0,0 0,0 -1,0l3 -6c1,1 2,1 3,1 0,1 1,1 2,1l-3 6z"/>
    <path class="fil0" d="M1045 331c7,-15 0,-32 -15,-39 -16,-6 -35,0 -42,15 -7,15 0,32 16,39 16,6 34,0 41,-15zm-56 -24l0 0c7,-14 25,-20 40,-14 16,6 22,23 16,38 -7,14 -25,21 -40,14 -16,-6 -23,-23 -16,-38z"/>
   </g>
   <path class="fil0" d="M1351 286l-7 -13 -18 -34 -5 -10 0 0 0 0c0,0 0,0 0,-1l-9 -7c0,0 0,-1 0,-1 0,0 0,0 0,0 0,0 0,0 0,0 0,0 0,0 0,0 -1,0 -1,0 -1,0 0,0 0,0 0,0 0,0 0,0 0,0 0,0 0,0 0,1 0,0 0,0 0,0 0,0 0,0 0,0 0,0 0,0 0,0 0,0 0,0 0,0 0,0 0,0 0,0 0,0 0,0 0,0l1 11c0,1 0,1 0,1l0 0 0 0 38 73 1 1 0 -4 -37 -70 0 0 6 -2 4 8 -1 1c-1,0 -1,1 -1,1l18 34c0,0 1,1 1,0l2 0 8 15 0 -4zm-9 -13l0 0 -1 1 -17 -33 1 -1 17 33zm-23 -44l0 0 -5 3 -1 -9 6 6z"/>
   <g>
    <path class="fil0" d="M102 364c12,-8 15,-22 7,-33 0,-1 0,-1 0,-1 -4,-5 -10,-8 -16,-9 -7,-2 -13,0 -19,3 -5,3 -9,8 -10,13 -1,3 -3,6 -6,7l-7 5c-1,0 -2,1 -2,2 0,1 0,2 0,2l-3 2c-2,1 -2,4 -1,6l10 14c2,2 4,2 6,1l3 -2c1,1 1,1 2,1 1,0 2,0 3,0l7 -5c3,-2 6,-3 9,-2 6,0 12,-1 17,-4zm-44 -18l0 0 17 23 -3 2 -17 -24 3 -1zm-3 2l0 0 17 24 -3 1 -17 -23 3 -2zm6 27l0 0c-2,1 -4,0 -5,-1l-10 -14c-1,-1 0,-3 1,-4l3 -1 13 18 -2 2zm3 -2l0 0 -13 -19c-1,-1 -1,-2 -1,-2 0,-1 1,-2 1,-2l17 24c0,0 -1,0 -2,0 -1,0 -1,0 -2,-1zm12 -4l0 0 0 0 -9 -12 6 -3 15 -1 0 0 -15 1 6 -13 0 0 -7 13 -5 3 -8 -12 0 0c3,-1 5,-4 6,-7 2,-6 5,-10 10,-13 11,-7 25,-4 33,6 0,0 0,0 0,0 8,11 5,25 -6,32 -5,3 -11,4 -16,3 -4,0 -7,1 -10,3z"/>
   </g>
   <g>
    <path class="fil0" d="M952 -105c-3,1 -7,-1 -8,-4 0,-3 2,-7 5,-7 4,-1 7,1 8,4 1,3 -2,7 -5,7zm-2 -9l0 0c-3,0 -4,2 -4,4 1,3 3,4 5,4 3,-1 4,-3 4,-5 -1,-2 -3,-4 -5,-3z"/>
   </g>
   <g>
    <path class="fil0" d="M939 -910c-3,1 -6,-1 -7,-5 -1,-3 1,-6 5,-7 3,-1 6,1 7,5 1,3 -1,6 -5,7zm-2 -10l0 0c-2,1 -4,3 -3,5 0,2 3,3 5,3 2,-1 4,-3 3,-5 0,-2 -3,-3 -5,-3z"/>
   </g>
   <g>
    <path class="fil0" d="M1267 -26c-4,1 -7,-1 -8,-4 -1,-4 1,-7 5,-8 3,0 7,2 8,5 0,3 -2,6 -5,7zm-3 -10l0 0c-2,1 -3,3 -3,5 1,2 3,4 5,3 3,0 4,-2 3,-5 0,-2 -2,-3 -5,-3z"/>
   </g>
   <g>
    <path class="fil0" d="M346 356c-1,0 -2,-1 -2,-2l-1 -2c0,0 0,0 -1,0l-2 -1c-1,0 -2,-1 -2,-3 0,-1 1,-2 2,-2l2 -1c1,0 1,0 1,0l1 -2c0,-2 1,-2 2,-2 2,0 3,0 3,2l1 2c0,0 0,0 0,0l3 1c1,0 2,1 2,2 0,2 -1,3 -2,3l-3 1c0,0 0,0 0,0l-1 2c0,1 -1,2 -3,2zm0 -13l0 0c0,0 0,0 0,0l-1 2c0,1 -1,2 -2,2l-2 1c-1,0 -1,0 -1,0 0,1 0,1 1,1l2 1c1,0 2,1 2,2l1 2c0,0 0,0 0,0 1,0 1,0 1,0l1 -2c0,-1 1,-2 2,-2l2 -1c1,0 1,0 1,-1 0,0 0,0 -1,0l-2 -1c-1,0 -2,-1 -2,-2l-1 -2c0,0 0,0 -1,0z"/>
   </g>
   <g>
    <path class="fil0" d="M79 -96c-1,0 -2,-1 -3,-2l0 -2c0,0 -1,-1 -1,-1l-2 0c-1,-1 -2,-2 -2,-3 0,-1 1,-2 2,-3l2 0c0,0 1,0 1,-1l0 -2c1,-1 2,-2 3,-2 1,0 3,1 3,2l0 2c1,1 1,1 1,1l2 0c1,1 2,2 2,3 0,1 -1,2 -2,3l-2 0c0,0 0,1 -1,1l0 2c0,1 -2,2 -3,2zm0 -14l0 0c0,0 -1,0 -1,1l0 2c-1,1 -1,2 -2,2l-3 0c0,0 0,1 0,1 0,0 0,1 0,1l3 0c1,1 1,1 2,2l0 2c0,1 1,1 1,1 0,0 1,0 1,-1l0 -2c1,-1 1,-1 2,-2l3 0c0,0 0,-1 0,-1 0,0 0,-1 0,-1l-3 0c-1,0 -1,-1 -2,-2l0 -2c0,-1 -1,-1 -1,-1z"/>
   </g>
   <g>
    <path class="fil0" d="M158 -24c-1,0 -2,-1 -3,-2l0 -2c0,0 0,0 -1,-1l-2 0c-1,0 -2,-1 -2,-3 0,-1 1,-2 2,-2l2 -1c1,0 1,0 1,0l0 -2c1,-2 2,-2 3,-2 2,0 3,0 3,2l1 2c0,0 0,0 0,0l2 1c2,0 3,1 3,2 0,2 -1,3 -3,3l-2 0c0,1 0,1 0,1l-1 2c0,1 -1,2 -3,2zm0 -14l0 0c0,0 0,1 -1,1l0 2c0,1 -1,2 -2,2l-2 1c-1,0 -1,0 -1,0 0,0 0,1 1,1l2 1c1,0 2,1 2,2l0 2c1,0 1,0 1,0 0,0 1,0 1,0l1 -2c0,-1 1,-2 2,-2l2 -1c0,0 0,-1 0,-1 0,0 0,0 0,0l-2 -1c-1,0 -2,-1 -2,-2l-1 -2c0,0 -1,-1 -1,-1z"/>
   </g>
   <g>
    <path class="fil0" d="M639 -848c-1,0 -2,0 -3,-2l0 -2c0,0 -1,0 -1,0l-2 -1c-1,0 -2,-1 -2,-2 0,-2 1,-3 2,-3l2 -1c0,0 1,0 1,0l0 -2c1,-1 2,-2 3,-2 2,0 3,1 3,2l1 2c0,0 0,0 0,0l2 1c2,0 2,1 2,3 0,1 0,2 -2,2l-2 1c0,0 0,0 0,0l-1 2c0,2 -1,2 -3,2zm0 -13l0 0c0,0 0,0 -1,0l0 2c0,1 -1,2 -2,2l-2 1c-1,0 -1,1 -1,1 0,0 0,0 1,0l2 1c1,0 2,1 2,2l0 2c1,0 1,0 1,0 0,0 1,0 1,0l1 -2c0,-1 1,-2 2,-2l2 -1c0,0 0,0 0,0 0,0 0,-1 0,-1l-2 -1c-1,0 -2,-1 -2,-2l-1 -2c0,0 -1,0 -1,0z"/>
   </g>
   <g>
    <path class="fil0" d="M1213 -284c-1,0 -2,-1 -3,-2l0 -2c0,-1 -1,-1 -1,-1l-2 0c-1,-1 -2,-2 -2,-3 0,-1 1,-2 2,-3l2 0c0,0 1,-1 1,-1l0 -2c1,-1 2,-2 3,-2 1,0 3,1 3,2l1 2c0,0 0,1 0,1l2 0c2,1 2,2 2,3 0,1 0,2 -2,3l-2 0c0,0 0,0 0,1l-1 2c0,1 -2,2 -3,2zm0 -14l0 0c0,0 -1,0 -1,1l0 2c-1,1 -1,1 -2,2l-2 0c-1,0 -1,1 -1,1 0,0 0,0 1,1l2 0c1,0 1,1 2,2l0 2c0,1 1,1 1,1 0,0 1,0 1,-1l1 -2c0,-1 1,-2 2,-2l2 0c0,-1 0,-1 0,-1 0,0 0,-1 0,-1l-2 0c-1,-1 -2,-1 -2,-2l-1 -2c0,-1 -1,-1 -1,-1z"/>
   </g>
   <g>
    <path class="fil0" d="M527 269l-90 62c-1,0 -1,0 0,1l50 66 2 0 -51 -66 5 -3 1 2c0,0 0,1 1,2 1,1 2,1 3,0 2,0 2,-2 1,-3 -1,-1 -1,-1 -2,-1l-2 -2 6 -4 2 2c0,0 0,1 0,2 1,1 3,1 4,1 1,-1 2,-3 1,-4 -1,-1 -2,-1 -3,-1l-1 -2 6 -4 2 2c-1,1 -1,1 0,2 1,1 2,2 4,1 1,-1 1,-3 0,-4 0,0 -1,-1 -2,-1l-2 -2 7 -4 1 2c0,1 0,2 1,2 0,1 2,2 3,1 1,-1 2,-2 1,-4 -1,0 -2,-1 -2,-1l-2 -2 6 -4 2 2c0,1 0,2 0,2 1,2 3,2 4,1 1,-1 1,-2 1,-3 -1,-1 -2,-2 -3,-1l-1 -2 6 -5 2 2c-1,1 -1,2 0,3 1,1 2,1 4,0 1,-1 1,-2 0,-3 0,-1 -1,-1 -2,-1l-2 -2 7 -5 1 2c0,1 0,2 0,3 1,1 3,1 4,0 1,0 2,-2 1,-3 -1,-1 -2,-1 -3,-1l-1 -2 6 -4 2 2c-1,0 0,1 0,2 1,1 3,1 4,0 1,0 1,-2 0,-3 0,-1 -1,-1 -2,-1l-1 -2 6 -4 1 2c0,0 0,1 1,2 1,1 2,1 3,1 2,-1 2,-3 1,-4 -1,-1 -1,-1 -2,-1l-2 -2 6 -4 2 2c0,1 0,2 0,2 1,1 3,2 4,1 1,-1 1,-3 1,-4 -1,0 -2,-1 -3,-1l-1 -2 4 -3 82 107 0 0 -29 20 3 0 27 -19 5 6 0 0 -19 13 2 0 18 -13c1,0 1,0 1,-1l-89 -114c0,-1 -1,-1 -1,-1z"/>
    <path class="fil0" d="M529 304l-58 39c-1,1 -2,2 -1,4l20 25c1,1 2,1 4,1l57 -40c2,-1 2,-2 1,-3l-20 -26c0,-1 -2,-1 -3,0zm22 26l0 0c1,1 1,2 0,3l-58 39c-1,0 -2,0 -2,0l-20 -26c-1,-1 0,-2 0,-2l58 -39c1,-1 2,-1 3,0l19 25z"/>
   </g>
  </g>
 </g>
</svg>
