<?xml version="1.0" encoding="UTF-8"?>
<!DOCTYPE svg PUBLIC "-//W3C//DTD SVG 1.1//EN" "http://www.w3.org/Graphics/SVG/1.1/DTD/svg11.dtd">
<!-- Creator: CorelDRAW X7 -->
<svg xmlns="http://www.w3.org/2000/svg" xml:space="preserve" width="2.5cm" height="3cm" version="1.1" style="shape-rendering:geometricPrecision; text-rendering:geometricPrecision; image-rendering:optimizeQuality; fill-rule:evenodd; clip-rule:evenodd"
viewBox="0 0 861 1033"
 xmlns:xlink="http://www.w3.org/1999/xlink">
 <defs>
  <style type="text/css">
   <![CDATA[
    .fil0 {fill:#154E98;fill-rule:nonzero}
   ]]>
  </style>
 </defs>
 <g id="Layer_x0020_1">
  <metadata id="CorelCorpID_0Corel-Layer"/>
  <path class="fil0" d="M844 100c-14,-17 -34,-27 -56,-27l-70 0 0 -22c0,-28 -22,-51 -49,-51l-477 0c-27,0 -49,23 -49,51l0 22 -70 0c-22,0 -42,10 -56,27 -14,16 -19,38 -16,59 18,117 90,220 191,277 9,22 20,44 32,64 37,65 83,109 134,131 6,54 -29,105 -82,117 0,0 0,0 0,0 -10,2 -18,12 -18,23l0 110 -43 0c-39,0 -70,32 -70,72l0 56c0,13 11,24 23,24l527 0c13,0 23,-11 23,-24l0 -56c0,-40 -31,-72 -70,-72l-43 0 0 -110c0,-11 -8,-21 -18,-23 0,0 0,0 0,0 -53,-12 -88,-64 -82,-118 50,-22 96,-66 132,-130 12,-20 22,-42 32,-64 101,-57 173,-160 191,-277 3,-21 -3,-43 -16,-59zm-797 52l0 0c-1,-8 1,-15 6,-21 5,-6 12,-10 20,-10l70 0 0 44c0,69 9,136 25,197 -64,-52 -108,-127 -121,-210zm624 801l0 0 0 32 -479 0 0 -32c0,-14 10,-24 23,-24l433 0c13,0 23,10 23,24zm-366 -72l0 0 0 -86 253 0 0 86 -253 0zm193 -134l0 0 -132 0c5,-6 11,-13 15,-21 16,-25 24,-53 24,-82 9,1 17,2 25,2 10,0 19,-1 28,-2 0,39 15,75 40,103zm-68 -149l0 0c-62,0 -121,-43 -166,-122 -48,-83 -74,-193 -74,-311l0 -114c0,-2 1,-3 2,-3l477 0c1,0 2,1 2,3l0 114c0,118 -26,228 -74,311 -45,79 -105,122 -167,122zm384 -446l0 0c-13,83 -57,158 -121,210 16,-61 25,-128 25,-197l0 -44 70 0c8,0 15,4 20,10 5,6 7,13 6,21z"/>
  <path class="fil0" d="M553 229l-70 -10 -32 -66c-4,-8 -12,-13 -21,-13 -8,0 -16,5 -20,13l-32 66 -70 10c-9,2 -16,8 -19,16 -3,9 0,19 6,25l51 51 -12 72c-2,9 2,18 9,23 7,5 17,6 25,2l62 -34 63 34c4,2 7,3 11,3 5,0 10,-2 14,-5 7,-5 11,-14 9,-23l-12 -72 51 -51c6,-6 8,-16 6,-25 -3,-8 -10,-14 -19,-16zm-79 66l0 0c-6,6 -8,14 -7,22l6 36 -32 -17c-3,-2 -7,-3 -11,-3 -3,0 -7,1 -10,3l-32 17 6 -36c1,-8 -1,-16 -7,-22l-26 -25 36 -6c8,-1 14,-6 18,-13l15 -33 16 33c4,7 10,12 18,13l36 6 -26 25z"/>
 </g>
</svg>
