<?xml version="1.0" encoding="UTF-8"?>
<!DOCTYPE svg PUBLIC "-//W3C//DTD SVG 1.1//EN" "http://www.w3.org/Graphics/SVG/1.1/DTD/svg11.dtd">
<!-- Creator: CorelDRAW X7 -->
<svg xmlns="http://www.w3.org/2000/svg" xml:space="preserve" width="3.00762cm" height="3.00762cm" version="1.1" style="shape-rendering:geometricPrecision; text-rendering:geometricPrecision; image-rendering:optimizeQuality; fill-rule:evenodd; clip-rule:evenodd"
viewBox="0 0 1459 1459"
 xmlns:xlink="http://www.w3.org/1999/xlink">
 <defs>
  <style type="text/css">
   <![CDATA[
    .str0 {stroke:#FEFEFE;stroke-width:3.69627}
    .fil0 {fill:#0F4D9A;fill-rule:nonzero}
   ]]>
  </style>
 </defs>
 <g id="Layer_x0020_1">
  <metadata id="CorelCorpID_0Corel-Layer"/>
  <path class="fil0 str0" d="M1287 116l-69 0 0 -114 -113 0 0 114 -751 0 0 -114 -113 0 0 114 -69 0c-94,0 -170,76 -170,170l0 1001c0,94 76,170 170,170l1115 0c94,0 170,-76 170,-170l0 -1001c0,-94 -76,-170 -170,-170zm-1115 113l0 0 69 0 0 114 113 0 0 -114 751 0 0 114 113 0 0 -114 69 0c31,0 56,26 56,57l0 136 -1227 0 0 -136c0,-31 25,-57 56,-57zm1115 1114l0 0 -1115 0c-31,0 -56,-25 -56,-56l0 -751 1227 0 0 751c0,31 -25,56 -56,56z"/>
  <path class="fil0 str0" d="M275 656c31,0 57,25 57,56 0,32 -26,57 -57,57 -32,0 -57,-25 -57,-57 0,-31 25,-56 57,-56z"/>
  <path class="fil0 str0" d="M502 656c31,0 57,25 57,56 0,32 -26,57 -57,57 -31,0 -57,-25 -57,-57 0,-31 26,-56 57,-56z"/>
  <path class="fil0 str0" d="M729 656c32,0 57,25 57,56 0,32 -25,57 -57,57 -31,0 -56,-25 -56,-57 0,-31 25,-56 56,-56z"/>
  <path class="fil0 str0" d="M957 656c31,0 57,25 57,56 0,32 -26,57 -57,57 -32,0 -57,-25 -57,-57 0,-31 25,-56 57,-56z"/>
  <path class="fil0 str0" d="M1184 656c32,0 57,25 57,56 0,32 -25,57 -57,57 -31,0 -57,-25 -57,-57 0,-31 26,-56 57,-56z"/>
  <path class="fil0 str0" d="M275 883c31,0 57,25 57,57 0,31 -26,57 -57,57 -32,0 -57,-26 -57,-57 0,-32 25,-57 57,-57z"/>
  <path class="fil0 str0" d="M502 883c31,0 57,25 57,57 0,31 -26,57 -57,57 -31,0 -57,-26 -57,-57 0,-32 26,-57 57,-57z"/>
  <path class="fil0 str0" d="M729 883c32,0 57,25 57,57 0,31 -25,57 -57,57 -31,0 -56,-26 -56,-57 0,-32 25,-57 56,-57z"/>
  <path class="fil0 str0" d="M957 883c31,0 57,25 57,57 0,31 -26,57 -57,57 -32,0 -57,-26 -57,-57 0,-32 25,-57 57,-57z"/>
  <path class="fil0 str0" d="M275 1110c31,0 57,26 57,57 0,32 -26,57 -57,57 -32,0 -57,-25 -57,-57 0,-31 25,-57 57,-57z"/>
  <path class="fil0 str0" d="M502 1110c31,0 57,26 57,57 0,32 -26,57 -57,57 -31,0 -57,-25 -57,-57 0,-31 26,-57 57,-57z"/>
  <path class="fil0 str0" d="M729 1110c32,0 57,26 57,57 0,32 -25,57 -57,57 -31,0 -56,-25 -56,-57 0,-31 25,-57 56,-57z"/>
 </g>
</svg>
