<?xml version="1.0" encoding="UTF-8"?>
<!DOCTYPE svg PUBLIC "-//W3C//DTD SVG 1.1//EN" "http://www.w3.org/Graphics/SVG/1.1/DTD/svg11.dtd">
<!-- Creator: CorelDRAW X7 -->
<svg xmlns="http://www.w3.org/2000/svg" xml:space="preserve" width="1349px" height="649px" version="1.1" style="shape-rendering:geometricPrecision; text-rendering:geometricPrecision; image-rendering:optimizeQuality; fill-rule:evenodd; clip-rule:evenodd"
viewBox="0 0 1349 649"
 xmlns:xlink="http://www.w3.org/1999/xlink">
 <defs>
  <style type="text/css">
   <![CDATA[
    .fil0 {fill:#FCFCFC;fill-rule:nonzero;fill-opacity:0.501961}
   ]]>
  </style>
 </defs>
 <g id="Layer_x0020_1">
  <metadata id="CorelCorpID_0Corel-Layer"/>
  <g id="_462469040">
   <g>
    <path class="fil0" d="M1302 127c-14,-12 -37,-13 -51,-2 -15,12 -15,30 -2,42 13,11 34,12 48,3l5 4c-1,2 -1,4 1,6l52 44 0 -2 -51 -43c-1,-1 -1,-4 1,-5l2 -2c2,-1 4,-1 6,0l0 0 42 36 0 -2 -41 -35c-2,-1 -4,-1 -6,-1l-5 -4c12,-11 11,-28 -1,-39zm-52 39l0 0c-13,-11 -12,-29 2,-39 14,-11 35,-11 48,1 13,11 13,29 -1,39 -14,11 -36,10 -49,-1zm57 5l0 0c0,0 -1,0 -1,0l-3 2c0,0 0,1 0,1l-5 -4c1,-1 1,-1 2,-2 1,0 1,-1 2,-1l5 4z"/>
    <path class="fil0" d="M1299 129c-12,-10 -33,-11 -46,-1 -12,10 -13,26 -1,37 12,10 32,11 45,1 13,-10 14,-27 2,-37zm-46 35l0 0c-12,-10 -11,-26 1,-36 13,-9 32,-9 44,1 12,11 11,27 -1,36 -13,10 -33,9 -44,-1z"/>
   </g>
   <g>
    <path class="fil0" d="M1285 566c12,-6 15,-19 7,-29 0,0 0,0 -1,-1 -3,-4 -9,-7 -16,-8 -7,-1 -13,0 -19,3 -5,3 -9,7 -11,12 -1,2 -3,5 -6,6l-7 4c-1,0 -2,1 -2,2 0,1 0,2 0,2l-3 2c-2,1 -2,3 -1,5l11 12c1,2 4,2 6,1l2 -1c1,0 2,0 3,0 1,1 2,0 3,0l7 -4c3,-2 6,-3 9,-2 7,0 13,-1 18,-4zm-45 -16l0 0 17 21 -3 2 -17 -21 3 -2zm-4 2l0 0 17 21 -3 2 -17 -21 3 -2zm6 24l0 0c-1,1 -3,1 -4,0l-11 -13c-1,-1 0,-3 1,-3l3 -2 14 17 -3 1zm4 -2l0 0 -14 -17c-1,0 -1,-1 -1,-2 0,0 1,-1 1,-1l18 21c-1,0 -1,1 -2,0 -1,0 -2,0 -2,-1zm12 -3l0 0 -1 0 -8 -10 5 -3 16 -1 0 -1 -15 1 6 -11 0 0 -7 11 -5 3 -9 -10 0 0c3,-2 6,-4 7,-7 1,-5 5,-9 10,-11 11,-6 26,-4 33,5 1,0 1,0 1,0 7,10 4,22 -7,28 -5,3 -11,4 -16,4 -4,-1 -7,0 -10,2z"/>
   </g>
   <g>
    <path class="fil0" d="M117 736c-3,0 -7,-2 -7,-4 -1,-3 1,-6 5,-7 3,0 7,1 7,4 1,3 -1,6 -5,7zm-2 -9l0 0c-2,0 -4,2 -3,4 0,2 3,3 5,3 2,-1 4,-2 3,-4 0,-2 -3,-4 -5,-3z"/>
   </g>
   <g>
    <path class="fil0" d="M870 102c-3,1 -7,-1 -7,-4 -1,-3 1,-6 4,-6 4,-1 7,1 8,4 1,3 -1,5 -5,6zm-2 -9l0 0c-2,1 -4,3 -3,5 0,2 2,3 5,2 2,0 4,-2 3,-4 0,-2 -3,-3 -5,-3z"/>
   </g>
   <g>
    <path class="fil0" d="M1309 792c-4,1 -7,-1 -8,-4 -1,-2 1,-5 5,-6 3,-1 7,1 8,4 0,3 -2,6 -5,6zm-3 -8l0 0c-2,0 -3,2 -3,4 1,2 3,3 5,3 3,-1 4,-3 4,-5 -1,-2 -3,-3 -6,-2z"/>
   </g>
   <g>
    <path class="fil0" d="M79 428c-1,0 -2,-1 -2,-2l-1 -2c0,0 0,0 -1,0l-2 -1c-1,0 -2,-1 -2,-2 0,-1 1,-2 2,-2l2 -1c1,0 1,0 1,0l1 -2c0,-1 1,-2 2,-2 2,0 3,1 3,2l1 2c0,0 0,0 1,0l2 1c1,0 2,1 2,2 0,1 -1,2 -2,2l-2 1c-1,0 -1,0 -1,0l-1 2c0,1 -1,2 -3,2zm0 -12l0 0c0,0 0,0 0,0l-1 2c0,1 -1,2 -2,2l-2 0c-1,0 -1,1 -1,1 0,0 0,1 1,1l2 0c1,0 2,1 2,2l1 2c0,0 0,0 0,0 1,0 1,0 1,0l1 -2c0,-1 1,-2 2,-2l2 0c1,0 1,-1 1,-1 0,0 0,-1 -1,-1l-2 0c-1,0 -2,-1 -2,-2l-1 -2c0,0 0,0 -1,0z"/>
   </g>
   <g>
    <path class="fil0" d="M944 506c-1,0 -2,-1 -3,-2l0 -2c-1,0 -1,0 -1,0l-2 -1c-2,0 -2,-1 -2,-2 0,-1 0,-2 2,-2l2 -1c0,0 0,0 1,0l0 -2c1,-1 2,-2 3,-2 1,0 3,1 3,2l1 2c0,0 0,0 0,0l2 1c2,0 3,1 3,2 0,1 -1,2 -3,2l-2 1c0,0 0,0 0,0l-1 2c0,1 -2,2 -3,2zm0 -12l0 0c0,0 -1,0 -1,0l0 2c-1,1 -1,2 -2,2l-3 0c0,0 0,1 0,1 0,0 0,1 0,1l3 0c1,0 1,1 2,2l0 2c0,0 1,0 1,0 0,0 1,0 1,0l0 -2c1,-1 2,-2 3,-2l2 0c0,0 0,-1 0,-1 0,0 0,-1 0,-1l-2 0c-1,0 -2,-1 -3,-2l0 -2c0,0 -1,0 -1,0z"/>
   </g>
   <g>
    <path class="fil0" d="M595 592c-1,0 -2,-1 -2,-2l-1 -2c0,0 0,0 -1,-1l-2 0c-1,0 -2,-1 -2,-2 0,-2 1,-2 2,-3l2 0c1,0 1,0 1,-1l1 -1c0,-2 1,-2 2,-2 2,0 3,0 3,2l1 1c0,1 0,1 1,1l2 0c1,1 2,1 2,3 0,1 -1,2 -2,2l-2 0c-1,1 -1,1 -1,1l-1 2c0,1 -1,2 -3,2zm0 -13l0 0c0,0 0,0 0,1l-1 2c0,1 -1,1 -2,1l-2 1c-1,0 -1,0 -1,1 0,0 0,0 1,0l2 1c1,0 2,1 2,1l1 2c0,1 0,1 0,1 1,0 1,0 1,-1l1 -2c0,0 1,-1 2,-1l2 -1c1,0 1,0 1,0 0,-1 0,-1 -1,-1l-2 -1c-1,0 -2,0 -2,-1l-1 -2c0,-1 0,-1 -1,-1z"/>
   </g>
   <g>
    <path class="fil0" d="M1261 428c-1,0 -3,-1 -3,-2l-1 -2c0,0 0,0 0,0l-2 -1c-2,0 -3,-1 -3,-2 0,-1 1,-2 3,-2l2 -1c0,0 0,0 0,0l1 -2c0,-1 2,-2 3,-2 1,0 2,1 3,2l0 2c0,0 1,0 1,0l2 1c1,0 2,1 2,2 0,1 -1,2 -2,2l-2 1c0,0 -1,0 -1,0l0 2c-1,1 -2,2 -3,2zm0 -12l0 0c0,0 -1,0 -1,0l-1 2c0,1 -1,2 -2,2l-2 0c0,0 0,1 0,1 0,0 0,1 0,1l2 0c1,0 2,1 2,2l1 2c0,0 1,0 1,0 0,0 1,0 1,0l0 -2c1,-1 1,-2 2,-2l3 0c0,0 0,-1 0,-1 0,0 0,-1 0,-1l-3 0c-1,0 -1,-1 -2,-2l0 -2c0,0 -1,0 -1,0z"/>
   </g>
   <g>
    <path class="fil0" d="M3 409l-1 1 0 2 1 -1 84 95 0 0 -85 49 0 2 86 -50 5 5 0 0 -91 53 0 2 92 -55c1,0 1,0 1,0l-91 -102c0,-1 -1,-1 -1,-1zm-1 10l0 -3c1,0 1,0 1,0 0,1 0,2 -1,3z"/>
    <path class="fil0" d="M5 440l-3 1 0 1 3 -1c1,-1 2,-1 3,0l20 23 0 0c1,0 0,1 0,2l-26 14 0 1 26 -15c1,-1 1,-2 1,-3l-20 -23c-1,0 -3,-1 -4,0z"/>
   </g>
  </g>
 </g>
</svg>
