<?xml version="1.0" encoding="UTF-8"?>
<!DOCTYPE svg PUBLIC "-//W3C//DTD SVG 1.1//EN" "http://www.w3.org/Graphics/SVG/1.1/DTD/svg11.dtd">
<!-- Creator: CorelDRAW X7 -->
<svg xmlns="http://www.w3.org/2000/svg" xml:space="preserve" width="1349px" height="1069px" version="1.1" style="shape-rendering:geometricPrecision; text-rendering:geometricPrecision; image-rendering:optimizeQuality; fill-rule:evenodd; clip-rule:evenodd"
viewBox="0 0 1349 1069"
 xmlns:xlink="http://www.w3.org/1999/xlink">
 <defs>
  <style type="text/css">
   <![CDATA[
    .fil0 {fill:#FCFCFC;fill-rule:nonzero;fill-opacity:0.501961}
   ]]>
  </style>
 </defs>
 <g id="Layer_x0020_1">
  <metadata id="CorelCorpID_0Corel-Layer"/>
  <g id="_485797512">
   <g>
    <path class="fil0" d="M1303 219c-14,-14 -37,-15 -51,-1 -15,13 -15,36 -2,50 13,13 34,15 49,4l4 5c-1,2 0,5 1,6l52 54 0 -2 -50 -53c-2,-1 -2,-4 0,-5l2 -3c2,-1 5,-1 6,0l0 0 42 44 0 -2 -41 -43c-1,-2 -4,-2 -6,-1l-5 -5c12,-14 12,-34 -1,-48zm-51 48l0 0c-13,-14 -13,-35 1,-48 14,-13 36,-12 49,1 13,14 12,35 -2,48 -14,13 -35,12 -48,-1zm56 5l0 0c0,1 0,1 -1,1l-2 2c-1,1 -1,1 -1,1l-5 -5c1,0 2,-1 2,-2 1,0 2,-1 2,-2l5 5z"/>
    <path class="fil0" d="M1300 222c-12,-13 -32,-13 -45,-1 -13,11 -14,31 -2,44 12,13 33,13 46,1 12,-11 13,-31 1,-44zm-46 43l0 0c-12,-13 -11,-32 1,-44 13,-11 32,-11 44,2 12,12 11,31 -1,43 -13,11 -32,11 -44,-1z"/>
   </g>
   <g>
    <path class="fil0" d="M1286 751c12,-8 15,-24 7,-35 0,0 0,-1 0,-1 -4,-5 -10,-9 -17,-10 -6,-1 -13,0 -19,4 -5,3 -9,8 -10,14 -1,3 -3,6 -6,8l-8 4c-1,1 -1,2 -2,3 0,1 0,2 0,2l-2 2c-2,1 -3,4 -1,6l10 15c1,2 4,3 6,2l3 -2c0,0 1,1 2,1 1,0 2,0 3,-1l8 -5c2,-2 6,-3 9,-2 6,0 12,-1 17,-5zm-45 -19l0 0 17 25 -3 2 -17 -25 3 -2zm-4 2l0 0 18 26 -3 2 -18 -26 3 -2zm6 29l0 0c-1,1 -3,1 -4,0l-10 -16c-1,-1 -1,-3 0,-4l3 -2 14 21 -3 1zm4 -2l0 0 -14 -20c0,-1 -1,-2 0,-3 0,0 0,-1 1,-2l17 26c0,0 -1,1 -2,0 -1,0 -1,0 -2,-1zm12 -4l0 0 0 0 -9 -12 6 -4 15 -1 0 -1 -15 1 7 -13 -1 0 -7 13 -5 4 -9 -12 0 0c4,-2 6,-5 7,-9 1,-5 5,-10 10,-13 11,-7 26,-5 34,6 0,0 0,0 0,0 8,12 5,27 -7,34 -5,3 -10,5 -16,4 -4,0 -7,1 -10,3z"/>
   </g>
   <g>
    <path class="fil0" d="M198 929c-4,0 -7,-2 -8,-5 -1,-4 2,-7 5,-8 4,-1 7,1 8,5 1,3 -2,7 -5,8zm-2 -11l0 0c-3,1 -4,3 -4,5 1,3 3,4 5,4 3,-1 4,-3 4,-6 -1,-2 -3,-3 -5,-3z"/>
   </g>
   <g>
    <path class="fil0" d="M872 189c-4,1 -7,-1 -8,-5 -1,-3 2,-7 5,-7 4,-1 7,1 8,5 1,3 -2,6 -5,7zm-3 -10l0 0c-2,0 -3,3 -3,5 1,2 3,4 5,3 3,0 4,-3 4,-5 -1,-2 -3,-4 -6,-3z"/>
   </g>
   <g>
    <path class="fil0" d="M1310 1025c-4,1 -7,-1 -8,-5 -1,-3 2,-7 5,-7 4,-1 7,1 8,5 1,3 -2,6 -5,7zm-2 -10l0 0c-3,0 -4,3 -4,5 1,2 3,4 6,3 2,0 3,-3 3,-5 -1,-2 -3,-4 -5,-3z"/>
   </g>
   <g>
    <path class="fil0" d="M463 283c-1,0 -2,-1 -3,-3l0 -2c0,0 -1,0 -1,0l-2 -1c-1,0 -2,-1 -2,-3 0,-1 1,-2 2,-3l2 0c0,0 1,0 1,-1l0 -2c1,-1 2,-2 3,-2 2,0 3,1 3,2l1 2c0,1 0,1 0,1l3 0c1,1 2,2 2,3 0,2 -1,3 -2,3l-3 1c0,0 0,0 0,0l-1 2c0,2 -1,3 -3,3zm0 -15l0 0c0,0 0,0 -1,1l0 2c0,1 -1,2 -2,2l-2 0c-1,1 -1,1 -1,1 0,0 0,1 1,1l2 1c1,0 2,1 2,2l0 2c1,0 1,1 1,1 0,0 1,-1 1,-1l1 -2c0,-1 1,-2 2,-2l2 -1c1,0 1,-1 1,-1 0,0 0,0 -1,-1l-2 0c-1,0 -2,-1 -2,-2l-1 -2c0,-1 -1,-1 -1,-1z"/>
   </g>
   <g>
    <path class="fil0" d="M82 584c-2,0 -3,-1 -3,-2l-1 -2c0,-1 0,-1 0,-1l-3 -1c-1,0 -2,-1 -2,-2 0,-2 1,-3 2,-3l3 -1c0,0 0,0 0,0l1 -3c0,-1 1,-2 3,-2 1,0 2,1 3,2l0 3c0,0 0,0 1,0l2 1c1,0 2,1 2,3 0,1 -1,2 -2,2l-2 1c-1,0 -1,0 -1,1l0 2c-1,1 -2,2 -3,2zm0 -15l0 0c0,0 -1,0 -1,1l-1 2c0,1 -1,2 -2,2l-2 1c-1,0 -1,0 -1,1 0,0 0,0 1,0l2 1c1,0 2,1 2,2l1 2c0,1 1,1 1,1 0,0 0,0 1,-1l0 -2c0,-1 1,-2 2,-2l2 -1c1,0 1,0 1,0 0,-1 0,-1 -1,-1l-2 -1c-1,0 -2,-1 -2,-2l0 -2c-1,-1 -1,-1 -1,-1z"/>
   </g>
   <g>
    <path class="fil0" d="M946 678c-2,0 -3,-1 -3,-2l-1 -2c0,0 0,0 -1,-1l-2 0c-1,0 -2,-2 -2,-3 0,-1 1,-2 2,-3l2 0c1,-1 1,-1 1,-1l1 -2c0,-1 1,-2 3,-2 1,0 2,1 2,2l1 2c0,0 0,0 1,1l2 0c1,1 2,2 2,3 0,1 -1,3 -2,3l-2 0c-1,1 -1,1 -1,1l-1 2c0,1 -1,2 -2,2zm0 -14l0 0c-1,0 -1,0 -1,0l-1 3c0,1 -1,1 -2,2l-2 0c-1,0 -1,1 -1,1 0,0 0,1 1,1l2 0c1,1 2,1 2,2l1 3c0,0 0,0 1,0 0,0 0,0 0,0l1 -3c0,-1 1,-1 2,-2l2 0c1,0 1,-1 1,-1 0,0 0,-1 -1,-1l-2 0c-1,-1 -2,-1 -2,-2l-1 -3c0,0 0,0 0,0z"/>
   </g>
   <g>
    <path class="fil0" d="M597 782c-1,0 -2,-1 -3,-2l0 -2c0,-1 -1,-1 -1,-1l-2 -1c-1,0 -2,-1 -2,-2 0,-2 1,-3 2,-3l2 -1c0,0 1,0 1,0l0 -3c1,-1 2,-2 3,-2 2,0 3,1 3,2l1 3c0,0 0,0 0,0l3 1c1,0 2,1 2,3 0,1 -1,2 -2,2l-3 1c0,0 0,0 0,1l-1 2c0,1 -1,2 -3,2zm0 -15l0 0c0,0 0,0 -1,1l0 2c0,1 -1,2 -2,2l-2 1c-1,0 -1,0 -1,1 0,0 0,0 1,0l2 1c1,0 2,1 2,2l0 2c1,1 1,1 1,1 0,0 1,0 1,-1l1 -2c0,-1 1,-2 2,-2l2 -1c1,0 1,0 1,0 0,-1 0,-1 -1,-1l-2 -1c-1,0 -2,-1 -2,-2l-1 -2c0,-1 -1,-1 -1,-1z"/>
   </g>
   <g>
    <path class="fil0" d="M1262 584c-1,0 -2,-1 -3,-2l0 -2c0,-1 -1,-1 -1,-1l-2 -1c-1,0 -2,-1 -2,-2 0,-2 1,-3 2,-3l2 -1c0,0 1,0 1,0l0 -3c1,-1 2,-2 3,-2 2,0 3,1 3,2l1 3c0,0 0,0 0,0l2 1c2,0 3,1 3,3 0,1 -1,2 -3,2l-2 1c0,0 0,0 0,1l-1 2c0,1 -1,2 -3,2zm0 -15l0 0c0,0 -1,0 -1,1l0 2c-1,1 -1,2 -2,2l-3 1c0,0 0,0 0,1 0,0 0,0 0,0l3 1c1,0 1,1 2,2l0 2c0,1 1,1 1,1 0,0 1,0 1,-1l1 -2c0,-1 1,-2 2,-2l2 -1c0,0 0,0 0,0 0,-1 0,-1 0,-1l-2 -1c-1,0 -2,-1 -2,-2l-1 -2c0,-1 -1,-1 -1,-1z"/>
   </g>
   <g>
    <path class="fil0" d="M5 562l0 0 0 2 1 -1 83 115 0 0 -84 60 0 2 85 -61 5 6 0 0 -90 65 0 2 92 -66c0,0 0,-1 0,-1l-91 -123c0,-1 0,-1 -1,0zm0 11l0 -3c0,0 0,0 0,0 1,1 1,2 0,3z"/>
    <path class="fil0" d="M7 599l-2 1 0 1 3 -2c0,0 2,0 2,1l20 27 0 0c1,1 1,2 0,2l-25 18 0 1 25 -18c1,-1 2,-2 1,-4l-20 -27c-1,-1 -3,-1 -4,0z"/>
   </g>
  </g>
 </g>
</svg>
