<?xml version="1.0" encoding="UTF-8"?>
<!DOCTYPE svg PUBLIC "-//W3C//DTD SVG 1.1//EN" "http://www.w3.org/Graphics/SVG/1.1/DTD/svg11.dtd">
<!-- Creator: CorelDRAW X7 -->
<svg xmlns="http://www.w3.org/2000/svg" xml:space="preserve" width="3.00762cm" height="3.01023cm" version="1.1" style="shape-rendering:geometricPrecision; text-rendering:geometricPrecision; image-rendering:optimizeQuality; fill-rule:evenodd; clip-rule:evenodd"
viewBox="0 0 1351 1352"
 xmlns:xlink="http://www.w3.org/1999/xlink">
 <defs>
  <style type="text/css">
   <![CDATA[
    .str0 {stroke:#FEFEFE;stroke-width:3.42231}
    .fil0 {fill:#0F4D9A;fill-rule:nonzero}
   ]]>
  </style>
 </defs>
 <g id="Layer_x0020_1">
  <metadata id="CorelCorpID_0Corel-Layer"/>
  <g id="_635088672">
   <path class="fil0 str0" d="M1349 576c-2,8 -4,17 -6,26 -20,78 -86,133 -160,134 -19,1 -38,0 -58,0 0,41 0,80 0,123 -113,-62 -224,-122 -337,-184 0,63 0,122 0,183 -113,0 -224,0 -337,0 0,-40 0,-80 0,-121 -5,0 -9,-1 -13,-1 -87,0 -173,0 -260,0 -42,0 -64,24 -64,69 0,79 0,157 0,236 0,37 24,63 57,63 165,0 331,0 496,0 2,0 4,0 8,0 0,-40 0,-80 0,-123 113,62 224,122 337,184 -113,62 -224,123 -336,184 0,-41 0,-81 0,-122 -8,0 -14,0 -21,0 -160,0 -321,0 -481,0 -83,0 -150,-58 -168,-144 -3,-14 -4,-29 -4,-43 0,-79 0,-159 0,-238 0,-106 72,-187 170,-188 86,-1 173,0 260,0 6,0 11,0 18,0 0,-41 0,-81 0,-121 113,0 225,0 338,0 0,60 0,119 0,182 113,-62 224,-122 337,-184 0,42 0,81 0,121 23,0 46,3 68,0 24,-3 43,-28 43,-55 1,-85 1,-169 0,-253 0,-35 -26,-58 -60,-58 -94,0 -188,0 -282,0 -180,0 -360,0 -540,0 -5,0 -9,0 -15,0 0,41 0,81 0,122 -113,0 -224,0 -336,0 0,-122 0,-244 0,-366 111,0 223,0 335,0 0,40 0,80 0,122 6,0 11,0 15,0 273,0 547,1 820,-1 97,0 165,77 174,157 0,2 1,4 2,5 0,97 0,194 0,291zm-785 38l0 0c0,42 0,81 0,121 37,0 74,0 110,0 0,-41 0,-81 0,-121 -37,0 -73,0 -110,0zm-449 -490l0 0c0,42 0,81 0,121 37,0 74,0 110,0 0,-41 0,-80 0,-121 -37,0 -73,0 -110,0z"/>
   <path class="fil0 str0" d="M1349 1348c-58,1 -116,1 -173,1 -54,0 -108,0 -163,0 0,-122 0,-244 0,-368 5,0 10,0 15,0 101,0 202,0 303,0 6,0 12,0 18,0 0,122 0,245 0,367zm-224 -122l0 0c38,0 74,0 111,0 0,-41 0,-81 0,-121 -38,0 -74,0 -111,0 0,41 0,80 0,121z"/>
  </g>
 </g>
</svg>
