<?xml version="1.0" encoding="utf-8"?>
<!-- Generator: Adobe Illustrator 21.1.0, SVG Export Plug-In . SVG Version: 6.00 Build 0)  -->
<svg version="1.1" id="Layer_1" xmlns="http://www.w3.org/2000/svg" xmlns:xlink="http://www.w3.org/1999/xlink" x="0px" y="0px"
	 viewBox="0 0 70.87 85.04" style="enable-background:new 0 0 70.87 85.04;" xml:space="preserve">
<style type="text/css">
	.st0{fill:#1B1464;}
</style>
<g>
	<g>
		<g>
			<g>
				<path class="st0" d="M32.24,63.311c-2.843,2.627-6.775,3.215-10.262,1.536c-1.261-0.607-2.325-1.446-3.158-2.45l-4.749,10.503
					c-0.216,0.478,0.025,0.838,0.139,0.971c0.114,0.132,0.433,0.426,0.938,0.285l3.457-0.962c0.394-0.11,0.792-0.162,1.185-0.162
					c1.657,0,3.216,0.938,3.966,2.491l1.561,3.231c0.228,0.472,0.656,0.519,0.834,0.516c0.175-0.002,0.604-0.059,0.82-0.537
					l7.553-16.707C33.695,62.265,32.909,62.693,32.24,63.311z"/>
			</g>
		</g>
		<g>
			<g>
				<path class="st0" d="M58.689,72.901L53.94,62.398c-0.833,1.004-1.897,1.843-3.158,2.45c-3.488,1.679-7.42,1.091-10.262-1.536
					c-0.669-0.618-1.455-1.046-2.285-1.285l7.553,16.707c0.216,0.478,0.646,0.535,0.82,0.537c0.178,0.004,0.606-0.044,0.834-0.516
					l1.561-3.231c0.751-1.554,2.31-2.491,3.966-2.491c0.393,0,0.791,0.053,1.185,0.162l3.457,0.962
					c0.505,0.141,0.824-0.153,0.938-0.285C58.664,73.739,58.905,73.379,58.689,72.901z"/>
			</g>
		</g>
		<g>
			<g>
				<path class="st0" d="M46.449,63.903c-1.615,0-3.357-0.537-4.907-1.97c-2.797-2.584-7.527-2.584-10.323,0
					c-2.706,2.502-5.997,2.272-8.175,1.224c-2.176-1.05-4.407-3.479-4.139-7.155c0.287-3.93-2.541-7.475-6.436-8.072
					c-3.645-0.556-5.517-3.273-6.054-5.629c-0.537-2.354-0.028-5.612,3.013-7.694c3.252-2.228,4.26-6.649,2.296-10.063
					c-1.835-3.199-0.879-6.356,0.627-8.244c1.508-1.888,4.374-3.517,7.896-2.443c3.767,1.142,7.852-0.818,9.3-4.48
					c1.355-3.429,4.418-4.649,6.834-4.649c2.416,0,5.48,1.222,6.833,4.649c1.448,3.667,5.538,5.631,9.301,4.48
					c3.521-1.079,6.387,0.552,7.895,2.443c1.508,1.888,2.463,5.047,0.627,8.244c-1.964,3.416-0.955,7.836,2.297,10.063
					c3.041,2.082,3.55,5.34,3.012,7.696c-0.537,2.356-2.41,5.071-6.053,5.627c-3.896,0.596-6.723,4.141-6.437,8.072
					c0.269,3.675-1.962,6.105-4.139,7.155C48.786,63.604,47.652,63.903,46.449,63.903z M18.02,16.753
					c-1.729,0-2.806,1.149-3.14,1.566c-0.408,0.512-1.642,2.36-0.35,4.613c2.8,4.868,1.361,11.17-3.274,14.348
					c-2.141,1.465-1.831,3.665-1.686,4.303c0.146,0.641,0.821,2.757,3.387,3.149c5.554,0.849,9.585,5.903,9.176,11.507
					c-0.189,2.588,1.725,3.718,2.316,4.002c0.589,0.282,2.666,1.075,4.572-0.685c1.999-1.846,4.612-2.862,7.359-2.862
					c2.746,0,5.359,1.016,7.358,2.862c1.905,1.76,3.982,0.967,4.572,0.685c0.591-0.285,2.506-1.414,2.316-4.002
					c-0.408-5.604,3.624-10.657,9.177-11.507c2.565-0.392,3.24-2.51,3.387-3.149c0.145-0.639,0.455-2.839-1.686-4.303l0,0
					c-4.635-3.176-6.074-9.479-3.275-14.35c1.293-2.251,0.059-4.099-0.35-4.611c-0.409-0.512-1.94-2.118-4.416-1.368
					c-5.375,1.646-11.198-1.159-13.261-6.386c-0.953-2.413-3.166-2.601-3.822-2.601c-0.655,0-2.869,0.188-3.823,2.601
					c-2.064,5.224-7.887,8.034-13.26,6.386C18.839,16.812,18.413,16.753,18.02,16.753z M36.38,53.484
					c-9.946,0-18.039-8.093-18.039-18.038c0-9.947,8.093-18.04,18.039-18.04s18.039,8.093,18.039,18.04
					C54.419,45.391,46.326,53.484,36.38,53.484z M36.38,20.643c-8.162,0-14.802,6.641-14.802,14.803
					c0,8.16,6.64,14.801,14.802,14.801s14.802-6.641,14.802-14.801C51.182,27.284,44.542,20.643,36.38,20.643z"/>
			</g>
		</g>
	</g>
</g>
</svg>
